<svg width="90" height="90" viewBox="0 0 90 90" fill="none" xmlns="http://www.w3.org/2000/svg">
<path d="M87.9213 56.9526L72.1902 42.345C74.2674 38.8684 75.4839 34.8198 75.4839 30.4839C75.4839 17.6777 65.0642 7.25806 52.2581 7.25806C49.1777 7.25806 46.2411 7.87355 43.5484 8.96806V4.35484C43.5484 1.95387 41.5945 0 39.1936 0H4.35484C1.95387 0 0 1.95387 0 4.35484V27.5806C0 29.9816 1.95387 31.9355 4.35484 31.9355H12.4635L20.0279 39.5013C11.369 41.7353 5.80645 45.8956 5.80645 50.8065V76.9355C5.80645 84.2618 18.5589 90 34.8387 90C51.1185 90 63.871 84.2618 63.871 76.9355V50.8065C63.871 50.7252 63.8594 50.6555 63.855 50.5771C63.945 50.5248 64.0306 50.4697 64.1192 50.416L78.7311 66.1515C79.9563 67.4695 81.691 68.2258 83.4953 68.2258C87.0808 68.2258 90 65.3066 90 61.7197C90 59.9168 89.2437 58.1806 87.9213 56.9526ZM72.5807 30.4839C72.5807 41.6903 63.4645 50.8065 52.2581 50.8065C41.0516 50.8065 31.9355 41.6903 31.9355 30.4839C31.9355 19.2774 41.0516 10.1613 52.2581 10.1613C63.4645 10.1613 72.5807 19.2774 72.5807 30.4839ZM35.4455 46.4618C38.8684 50.0618 43.4235 52.5542 48.5405 53.3831C45.0595 54.4036 40.4332 55.1613 34.8387 55.1613C23.9342 55.1613 17.4948 52.3873 15.2303 50.8065C17.4948 49.2256 23.9342 46.4516 34.8387 46.4516C35.0463 46.4516 35.2452 46.4574 35.4455 46.4618ZM34.8387 15.1737C33.734 16.4294 32.7513 17.7924 31.9355 19.2658V11.6129H34.8387V15.1737ZM4.35484 29.0323C3.55355 29.0323 2.90323 28.3805 2.90323 27.5806V4.35484C2.90323 3.555 3.55355 2.90323 4.35484 2.90323H39.1936C39.9948 2.90323 40.6452 3.555 40.6452 4.35484V10.4008C39.6276 10.9916 38.655 11.6492 37.7419 12.3823V8.70968H29.0323V23.2258H26.129V5.80645H17.4194V23.2258H14.5161V11.6129H5.80645V26.129H29.4561C29.2761 27.0769 29.1673 28.0481 29.1063 29.0323H23.2258V37.141C23.2258 37.6316 22.545 37.9118 22.1995 37.5663L13.6655 29.0323H4.35484ZM23.2258 23.2258H20.3226V8.70968H23.2258V23.2258ZM11.6129 14.5161V23.2258H8.70968V14.5161H11.6129ZM26.129 37.141V31.9355H29.1063C29.2355 34.0142 29.6303 36.0174 30.2734 37.9132C28.7666 38.0148 27.3077 38.1644 25.8982 38.3589C26.0405 37.9785 26.129 37.5706 26.129 37.141ZM31.4565 40.7526C31.9427 41.7339 32.4798 42.6847 33.0939 43.5818C21.2444 43.9127 13.4942 47.5374 11.9163 50.0298L11.4256 50.8065L11.9177 51.5831C13.5726 54.196 22.0006 58.0645 34.8387 58.0645C45.0203 58.0645 52.2363 55.7013 55.7332 53.4208C57.4694 53.1581 59.1431 52.7124 60.7326 52.0868C58.9413 57.3794 46.2934 60.9677 34.8387 60.9677C22.4797 60.9677 8.70968 56.7944 8.70968 50.8065C8.70968 46.4734 17.3874 41.4871 31.4565 40.7526ZM34.8387 87.0968C22.4797 87.0968 8.70968 82.9234 8.70968 76.9355V73.98C13.3635 78.3406 23.1823 81.2903 34.8387 81.2903C46.4952 81.2903 56.3139 78.3406 60.9677 73.98V76.9355C60.9677 82.9234 47.1977 87.0968 34.8387 87.0968ZM34.8387 78.3871C22.4797 78.3871 8.70968 74.2137 8.70968 68.2258V65.2703C13.3635 69.631 23.1823 72.5807 34.8387 72.5807C46.4952 72.5807 56.3139 69.631 60.9677 65.2703V68.2258C60.9677 74.2137 47.1977 78.3871 34.8387 78.3871ZM34.8387 69.6774C22.4797 69.6774 8.70968 65.504 8.70968 59.5161V56.5606C13.3635 60.9213 23.1823 63.871 34.8387 63.871C46.4952 63.871 56.3139 60.9213 60.9677 56.5606V59.5161C60.9677 65.504 47.1977 69.6774 34.8387 69.6774ZM83.4953 65.3226C82.4966 65.3226 81.5356 64.9045 80.8592 64.1758L66.5419 48.7597C68.0284 47.5955 69.3682 46.2556 70.5324 44.7692L85.9456 59.0792C86.6773 59.7586 87.0968 60.7224 87.0968 61.7197C87.0968 63.7069 85.4811 65.3226 83.4953 65.3226Z" fill="url(#paint0_linear)"/>
<path d="M52.2572 47.9051C61.8626 47.9051 69.6766 40.0911 69.6766 30.4858C69.6766 20.8804 61.8626 13.0664 52.2572 13.0664C42.6519 13.0664 34.8379 20.8804 34.8379 30.4858C34.8379 40.0911 42.6519 47.9051 52.2572 47.9051ZM52.2572 15.9696C60.2614 15.9696 66.7734 22.4816 66.7734 30.4858C66.7734 38.49 60.2614 45.0019 52.2572 45.0019C44.2531 45.0019 37.7411 38.49 37.7411 30.4858C37.7411 22.4816 44.2531 15.9696 52.2572 15.9696Z" fill="url(#paint1_linear)"/>
<path d="M60.968 30.484H63.8712C63.8712 24.0809 58.6614 18.8711 52.2583 18.8711V21.7743C57.0617 21.7743 60.968 25.6806 60.968 30.484Z" fill="url(#paint2_linear)"/>
<defs>
<linearGradient id="paint0_linear" x1="45" y1="0" x2="45" y2="90" gradientUnits="userSpaceOnUse">
<stop stop-color="#E280DE"/>
<stop offset="1" stop-color="#7F87F1"/>
</linearGradient>
<linearGradient id="paint1_linear" x1="52.2572" y1="13.0664" x2="52.2572" y2="47.9051" gradientUnits="userSpaceOnUse">
<stop stop-color="#E280DE"/>
<stop offset="1" stop-color="#7F87F1"/>
</linearGradient>
<linearGradient id="paint2_linear" x1="58.0648" y1="18.8711" x2="58.0648" y2="30.484" gradientUnits="userSpaceOnUse">
<stop stop-color="#E280DE"/>
<stop offset="1" stop-color="#7F87F1"/>
</linearGradient>
</defs>
</svg>
