<svg width="89" height="88" viewBox="0 0 89 88" fill="none" xmlns="http://www.w3.org/2000/svg">
<path d="M88.0061 16.7895C87.9184 9.31985 84.0959 5.20595 77.2423 5.20595C74.5897 5.20595 72.0336 5.82338 70.3627 6.33855C70.5291 3.28539 70.5316 1.40075 70.5316 1.30707L70.5318 0H17.4787V1.3069C17.4787 1.35159 17.4831 3.26596 17.6514 6.34009C15.9806 5.82459 13.4222 5.20595 10.7669 5.20595C3.91356 5.20595 0.090835 9.31968 0.00316966 16.7895C-0.0831205 24.1379 1.59283 30.6791 4.98411 36.2317C8.31367 41.6833 12.5694 44.9684 15.5533 46.7638C20.3324 49.6399 25.1088 50.2436 28.2744 50.2436C29.0548 50.2436 29.8066 50.2068 30.5098 50.1343C30.5564 50.1294 30.5996 50.1239 30.6451 50.1189C32.1757 51.7672 33.8257 53.0875 35.5888 54.0687C36.8884 54.7919 37.7924 56.053 38.1022 57.5026C36.3497 58.048 35.0738 59.6853 35.0738 61.6148C35.0738 63.5876 36.4082 65.2538 38.2211 65.7609V71.246H31.1491V76.9702H24.1703V88H63.8399V76.9702H56.861V71.246H49.789V65.7609C51.6021 65.2536 52.9365 63.5876 52.9365 61.6148C52.9365 59.6851 51.6606 58.048 49.9081 57.5026C50.2179 56.053 51.1217 54.792 52.4215 54.0687C54.1803 53.0901 55.8417 51.7626 57.3684 50.1196C57.9094 50.1796 58.7205 50.2434 59.7347 50.2434C59.7351 50.2434 59.7349 50.2434 59.7354 50.2434C62.9006 50.2434 67.6768 49.6394 72.4556 46.7636C75.4394 44.968 79.6953 41.6831 83.0248 36.2316C86.4166 30.6791 88.0924 24.1377 88.0061 16.7895ZM67.8964 2.6138C67.8847 3.09184 67.8661 3.69277 67.8376 4.39616H20.1781C20.1485 3.69294 20.1287 3.09115 20.116 2.6138H67.8964ZM69.6741 14.6142C71.4449 14.0247 73.74 13.4303 75.796 13.4303C77.52 13.4303 78.7612 13.8515 79.4854 14.6821C80.3177 15.6367 80.586 17.2405 80.2824 19.4493C79.0185 28.6501 75.0291 35.8321 69.0486 39.672C66.9654 41.0097 64.7218 41.5623 62.8417 41.7586C66.8188 33.3993 68.7436 22.9111 69.6741 14.6142ZM19.6809 23.7181C20.9665 30.6136 22.7415 36.535 24.9569 41.3175C25.0254 41.466 25.0952 41.6123 25.1647 41.7586C23.2852 41.5618 21.043 41.0093 18.9607 39.6723C12.9804 35.8323 8.99076 28.6504 7.72683 19.4497C7.42344 17.2407 7.69159 15.6367 8.52407 14.6824C9.24825 13.8518 10.4897 13.4308 12.2134 13.4308C14.2711 13.4308 16.5683 14.0261 18.3398 14.6159C18.6563 17.4456 19.0889 20.5429 19.6809 23.7181ZM28.2744 47.6298C25.4402 47.6298 21.1661 47.0909 16.9013 44.5244C12.5395 41.8996 2.41586 33.9454 2.61697 16.8202C2.68814 10.7639 5.35402 7.81992 10.7669 7.81992C13.6618 7.81992 16.5209 8.69262 17.8278 9.15295C17.8929 10.0298 17.966 10.9092 18.0468 11.785C16.2702 11.2631 14.1771 10.8165 12.2134 10.8165C9.70068 10.8165 7.79662 11.539 6.55383 12.964C5.20293 14.5133 4.72627 16.8149 5.13709 19.805C5.84082 24.9275 7.31154 29.4552 9.5085 33.2619C11.6058 36.8961 14.3108 39.7928 17.5483 41.8714C20.7104 43.9019 24.1306 44.414 26.5702 44.463C26.5785 44.4774 26.5869 44.4912 26.5952 44.5055C26.7289 44.7397 26.864 44.9701 27.0005 45.1975C27.0429 45.2685 27.0857 45.339 27.1285 45.4093C27.2587 45.6231 27.3898 45.8349 27.5224 46.0423C27.5722 46.1204 27.6227 46.1965 27.6729 46.2739C27.7632 46.4126 27.8539 46.5501 27.9454 46.6861C28.0337 46.8176 28.1224 46.9477 28.2116 47.0765C28.2991 47.2024 28.3868 47.3278 28.4752 47.4514C28.5166 47.5094 28.5573 47.5698 28.5987 47.6272C28.4935 47.6289 28.3854 47.6298 28.2744 47.6298ZM61.2262 79.5843V85.3862H26.7844V79.5843H31.1493H56.8612H61.2262ZM49.7893 73.8601H54.2472V76.9703H33.7633V73.8601H38.2213H49.7893ZM40.8351 71.2461V65.9205H47.1754V71.2461H40.8351ZM50.3229 61.6148C50.3229 62.5477 49.5638 63.3066 48.6311 63.3066H39.3795C38.4467 63.3066 37.6877 62.5477 37.6877 61.6148C37.6877 60.6819 38.4467 59.923 39.3795 59.923H48.6311C49.564 59.923 50.3229 60.6819 50.3229 61.6148ZM56.8607 46.6732C56.8462 46.6919 56.8318 46.7107 56.8173 46.7294C56.6888 46.8958 56.5592 47.0581 56.4289 47.2181C56.3969 47.2571 56.3654 47.2968 56.3333 47.3357C56.1901 47.5096 56.0457 47.6798 55.9006 47.8458C55.8936 47.8537 55.8871 47.862 55.88 47.8699C54.4225 49.5326 52.8315 50.8495 51.1509 51.7846C49.0794 52.937 47.6709 54.9837 47.2835 57.3091H40.7272C40.3395 54.9835 38.931 52.937 36.8596 51.7846C35.2376 50.8823 33.7727 49.6762 32.4493 48.2348L32.1296 47.8701C30.8301 46.388 29.6052 44.5924 28.4891 42.5337L28.1472 41.9026C22.5268 31.043 20.8268 15.3473 20.3142 7.00996H67.7059C67.6841 7.37265 67.6602 7.74721 67.6337 8.1362C67.6325 8.15425 67.6311 8.17282 67.6299 8.19086C67.601 8.61234 67.5701 9.03503 67.5373 9.45806C67.5364 9.47043 67.5354 9.48281 67.5345 9.49536C67.43 10.8361 67.3063 12.1819 67.1651 13.5116L67.0797 14.3157C66.13 22.8293 64.1242 33.6752 59.8944 41.8449L59.5209 42.5335C58.6898 44.0661 57.7983 45.4526 56.8607 46.6732ZM71.1082 44.5244C66.843 47.0911 62.5697 47.6298 59.7357 47.6298C59.7356 47.6298 59.7352 47.6298 59.7351 47.6298C59.6238 47.6298 59.5157 47.6289 59.4104 47.6272C59.4121 47.6248 59.4138 47.6222 59.4155 47.6198C59.5852 47.3857 59.7523 47.1481 59.9168 46.9073C59.9369 46.8779 59.9566 46.8478 59.9767 46.8184C60.1158 46.6135 60.2528 46.4059 60.3882 46.1962C60.4231 46.1424 60.458 46.0884 60.4926 46.0343C60.6425 45.7989 60.7908 45.5621 60.9362 45.3211C60.9591 45.2834 60.9813 45.2448 61.004 45.2068C61.1231 45.0077 61.2408 44.8068 61.357 44.6039C61.3842 44.5565 61.4122 44.5111 61.4395 44.4633C63.8792 44.4143 67.2994 43.9023 70.4615 41.8717C73.6989 39.7928 76.404 36.8961 78.5013 33.2623C80.6981 29.4556 82.1688 24.9279 82.8727 19.8053C83.2832 16.8151 82.8067 14.5134 81.4559 12.9643C80.2133 11.5392 78.3091 10.8167 75.7964 10.8167C73.8328 10.8167 71.7394 11.2629 69.963 11.785C70.0454 10.892 70.116 10.0354 70.1765 9.22136C70.1782 9.19867 70.1801 9.17581 70.1818 9.15329C71.4891 8.69279 74.348 7.82026 77.2427 7.82026C82.6556 7.82026 85.3215 10.7643 85.3928 16.8202C85.5932 33.9454 75.47 41.8994 71.1082 44.5244Z" fill="url(#paint0_linear)"/>
<path d="M33.0649 42.3203L30.8818 43.7585C31.6272 44.8901 32.4282 45.9182 33.2627 46.8141L35.1755 45.0323C34.4404 44.2431 33.7303 43.3305 33.0649 42.3203Z" fill="url(#paint1_linear)"/>
<path d="M27.4518 27.8281L24.9033 28.4095C26.1568 33.904 27.8301 38.5166 29.8767 42.1189L32.1495 40.8277C30.2291 37.4474 28.6485 33.0738 27.4518 27.8281Z" fill="url(#paint2_linear)"/>
<path d="M76.2668 57.3231L76.2649 54.7091L74.0584 54.7105L74.0568 52.5039L71.4428 52.5056L71.4444 54.7124L69.2378 54.7139L69.2395 57.3279L71.4461 57.3264L71.4477 59.5328L74.0616 59.5311L74.0601 57.3245L76.2668 57.3231Z" fill="url(#paint3_linear)"/>
<path d="M19.3867 70.8975L19.384 68.2835L17.5324 68.2854L17.5305 66.4336L14.9165 66.4363L14.9184 68.288L13.0664 68.2899L13.0693 70.9038L14.921 70.9019L14.9228 72.7539L17.5368 72.7512L17.5349 70.8994L19.3867 70.8975Z" fill="url(#paint4_linear)"/>
<path d="M10.8638 49.5273H8.39795V52.1413H10.8638V49.5273Z" fill="url(#paint5_linear)"/>
<path d="M26.7124 57.2617H24.2466V59.8757H26.7124V57.2617Z" fill="url(#paint6_linear)"/>
<path d="M66.4536 65.125H63.9878V67.739H66.4536V65.125Z" fill="url(#paint7_linear)"/>
<defs>
<linearGradient id="paint0_linear" x1="44.0046" y1="0" x2="44.0046" y2="88" gradientUnits="userSpaceOnUse">
<stop stop-color="#E280DE"/>
<stop offset="1" stop-color="#7F87F1"/>
</linearGradient>
<linearGradient id="paint1_linear" x1="33.0287" y1="42.3203" x2="33.0287" y2="46.8141" gradientUnits="userSpaceOnUse">
<stop stop-color="#E280DE"/>
<stop offset="1" stop-color="#7F87F1"/>
</linearGradient>
<linearGradient id="paint2_linear" x1="28.5264" y1="27.8281" x2="28.5264" y2="42.1189" gradientUnits="userSpaceOnUse">
<stop stop-color="#E280DE"/>
<stop offset="1" stop-color="#7F87F1"/>
</linearGradient>
<linearGradient id="paint3_linear" x1="72.7523" y1="52.5039" x2="72.7523" y2="59.5328" gradientUnits="userSpaceOnUse">
<stop stop-color="#E280DE"/>
<stop offset="1" stop-color="#7F87F1"/>
</linearGradient>
<linearGradient id="paint4_linear" x1="16.2266" y1="66.4336" x2="16.2266" y2="72.7539" gradientUnits="userSpaceOnUse">
<stop stop-color="#E280DE"/>
<stop offset="1" stop-color="#7F87F1"/>
</linearGradient>
<linearGradient id="paint5_linear" x1="9.63085" y1="49.5273" x2="9.63085" y2="52.1413" gradientUnits="userSpaceOnUse">
<stop stop-color="#E280DE"/>
<stop offset="1" stop-color="#7F87F1"/>
</linearGradient>
<linearGradient id="paint6_linear" x1="25.4795" y1="57.2617" x2="25.4795" y2="59.8757" gradientUnits="userSpaceOnUse">
<stop stop-color="#E280DE"/>
<stop offset="1" stop-color="#7F87F1"/>
</linearGradient>
<linearGradient id="paint7_linear" x1="65.2207" y1="65.125" x2="65.2207" y2="67.739" gradientUnits="userSpaceOnUse">
<stop stop-color="#E280DE"/>
<stop offset="1" stop-color="#7F87F1"/>
</linearGradient>
</defs>
</svg>
