<svg width="92" height="80" viewBox="0 0 92 80" fill="none" xmlns="http://www.w3.org/2000/svg">
<path d="M73.3194 55.0064V48.602C73.3194 47.8574 72.7157 47.2536 71.971 47.2536C71.2264 47.2536 70.6226 47.8574 70.6226 48.602V55.0064C70.6226 55.2542 70.421 55.4558 70.1733 55.4558H52.2455C51.6946 49.1637 55.3392 43.031 61.441 40.6755C62.6566 40.2063 63.3042 38.8624 62.9153 37.6159L61.1664 32.0046C60.9646 31.3576 60.5001 30.8146 59.8923 30.5145C59.2819 30.2133 58.5644 30.1752 57.924 30.4105C51.8279 32.6486 46.8755 37.1013 43.9788 42.9481C41.0721 48.8153 40.5421 55.4815 42.4861 61.7187C44.5976 68.4929 49.4414 74.0393 55.8531 77.0694C55.6849 77.733 55.8541 78.4312 56.3256 78.9537C56.8737 79.5641 57.7107 79.7834 58.4756 79.5422L66.5626 77.0216C67.1414 76.8413 67.6098 76.4182 67.8483 75.861C68.0867 75.3038 68.0691 74.6727 67.7999 74.1295L64.0384 66.5395C63.6759 65.8082 62.9444 65.3694 62.1281 65.3909C61.3121 65.4138 60.606 65.8941 60.2849 66.6444L60.0994 67.0778C56.6241 65.309 54.0052 62.2266 52.8408 58.4909C52.8057 58.3785 52.7765 58.2654 52.7443 58.1528H70.1729C71.908 58.1528 73.3194 56.7413 73.3194 55.0064ZM59.9399 69.9782C60.8036 70.3467 61.8075 69.9422 62.1775 69.0769L62.2278 68.9594L65.0561 74.6662L58.8287 76.6072C58.836 76.3725 58.794 76.1368 58.7027 75.9125C58.5318 75.4924 58.2077 75.1629 57.7901 74.9844C51.6716 72.3686 47.0318 67.2408 45.0605 60.916C41.4883 49.4554 47.4557 37.2434 58.6564 33.0152L60.2825 38.233C51.9991 41.5419 47.6034 50.7509 50.266 59.2934C51.7645 64.1006 55.2903 67.9948 59.9399 69.9782Z" fill="url(#paint0_linear)"/>
<path d="M9.96726 12.8251C11.4194 12.8251 12.5966 11.6479 12.5966 10.1958C12.5966 8.74361 11.4194 7.56641 9.96726 7.56641C8.5151 7.56641 7.33789 8.74361 7.33789 10.1958C7.33789 11.6479 8.5151 12.8251 9.96726 12.8251Z" fill="url(#paint1_linear)"/>
<path d="M17.9648 12.8251C19.417 12.8251 20.5942 11.6479 20.5942 10.1958C20.5942 8.74361 19.417 7.56641 17.9648 7.56641C16.5127 7.56641 15.3354 8.74361 15.3354 10.1958C15.3354 11.6479 16.5127 12.8251 17.9648 12.8251Z" fill="url(#paint2_linear)"/>
<path d="M25.9594 12.8251C27.4116 12.8251 28.5888 11.6479 28.5888 10.1958C28.5888 8.74361 27.4116 7.56641 25.9594 7.56641C24.5073 7.56641 23.3301 8.74361 23.3301 10.1958C23.3301 11.6479 24.5073 12.8251 25.9594 12.8251Z" fill="url(#paint3_linear)"/>
<path d="M90.8484 46.646C88.6799 39.6886 83.6754 34.0689 77.0376 31.0888L77.0439 31.0742C77.365 30.3239 77.2246 29.4813 76.6777 28.8756C76.1307 28.2697 75.3067 28.0442 74.5277 28.2871L73.3213 28.6632V3.14633C73.3213 1.41144 71.9098 0 70.175 0H16.8682C16.1235 0 15.5198 0.603749 15.5198 1.34837C15.5198 2.093 16.1235 2.69675 16.8682 2.69675H70.175C70.4227 2.69675 70.6244 2.89836 70.6244 3.14615V17.7988H2.69675V3.14633C2.69675 2.89854 2.89836 2.69693 3.14615 2.69693H10.0152C10.7599 2.69693 11.3636 2.09318 11.3636 1.34855C11.3636 0.60393 10.7599 0.000179589 10.0152 0.000179589H3.14633C1.41145 -9.87138e-08 0 1.41144 0 3.14633V55.0074C0 56.7422 1.41145 58.1537 3.14633 58.1537H35.5787C36.3233 58.1537 36.927 57.5499 36.927 56.8053C36.927 56.0607 36.3233 55.4569 35.5787 55.4569H3.14633C2.89854 55.4569 2.69693 55.2553 2.69693 55.0075V20.4959H70.6244V29.5038L66.4405 30.808C65.8619 30.9882 65.3933 31.4112 65.1549 31.9686C64.9164 32.5258 64.934 33.1568 65.2032 33.7L68.9648 41.29C69.3272 42.0214 70.0614 42.46 70.875 42.4386C71.691 42.4158 72.3971 41.9355 72.7181 41.1851L72.7713 41.0607C76.4823 42.7836 79.2704 45.9499 80.4935 49.8739C82.7549 57.1293 78.9773 64.9549 71.8933 67.6893C70.6781 68.1585 70.0305 69.5026 70.4192 70.7489L72.1681 76.36C72.5535 77.6922 74.1211 78.4584 75.4107 77.9543C81.5066 75.7162 86.459 71.2635 89.3557 65.4167C92.2623 59.5493 92.7924 52.8831 90.8484 46.646ZM74.6779 75.3492L73.0516 70.1313C81.335 66.8224 85.7307 57.6134 83.0681 49.0708C81.5041 44.0533 77.7854 40.0805 72.8652 38.171C72.0764 37.8646 71.2051 38.1787 70.7839 38.8876L67.9468 33.1628L74.0672 31.2552C73.9951 31.5898 74.0257 31.9378 74.1593 32.2614C74.3336 32.6837 74.6772 33.024 75.1016 33.1951C81.446 35.7515 86.2471 40.9466 88.2736 47.4484C91.8458 58.9093 85.8784 71.1212 74.6779 75.3492Z" fill="url(#paint4_linear)"/>
<path d="M9.91553 23.7734C7.74994 23.7734 5.98828 25.5353 5.98828 27.7007V40.5296C5.98828 42.6952 7.74994 44.4569 9.91553 44.4569H22.7445C24.9101 44.4569 26.6717 42.6952 26.6717 40.5296V27.8187C26.6717 25.5881 24.8571 23.7734 22.6264 23.7734H9.91553ZM23.975 27.8187V40.5296C23.975 41.2081 23.423 41.7601 22.7445 41.7601H9.91553C9.23703 41.7601 8.68503 41.2081 8.68503 40.5296V27.7007C8.68503 27.0222 9.23703 26.4702 9.91553 26.4702H22.6266C23.3702 26.4704 23.975 27.0752 23.975 27.8187Z" fill="url(#paint5_linear)"/>
<path d="M31.6994 27.3803H41.6169C42.3616 27.3803 42.9653 26.7766 42.9653 26.032C42.9653 25.2873 42.3616 24.6836 41.6169 24.6836H31.6994C30.9548 24.6836 30.3511 25.2873 30.3511 26.032C30.3511 26.7766 30.9548 27.3803 31.6994 27.3803Z" fill="url(#paint6_linear)"/>
<path d="M31.6994 33.6186H41.6169C42.3616 33.6186 42.9653 33.0149 42.9653 32.2702C42.9653 31.5256 42.3616 30.9219 41.6169 30.9219H31.6994C30.9548 30.9219 30.3511 31.5256 30.3511 32.2702C30.3511 33.0149 30.9548 33.6186 31.6994 33.6186Z" fill="url(#paint7_linear)"/>
<defs>
<linearGradient id="paint0_linear" x1="57.3269" y1="30.2578" x2="57.3269" y2="79.6382" gradientUnits="userSpaceOnUse">
<stop stop-color="#E280DE"/>
<stop offset="1" stop-color="#7F87F1"/>
</linearGradient>
<linearGradient id="paint1_linear" x1="9.96726" y1="7.56641" x2="9.96726" y2="12.8251" gradientUnits="userSpaceOnUse">
<stop stop-color="#E280DE"/>
<stop offset="1" stop-color="#7F87F1"/>
</linearGradient>
<linearGradient id="paint2_linear" x1="17.9648" y1="7.56641" x2="17.9648" y2="12.8251" gradientUnits="userSpaceOnUse">
<stop stop-color="#E280DE"/>
<stop offset="1" stop-color="#7F87F1"/>
</linearGradient>
<linearGradient id="paint3_linear" x1="25.9594" y1="7.56641" x2="25.9594" y2="12.8251" gradientUnits="userSpaceOnUse">
<stop stop-color="#E280DE"/>
<stop offset="1" stop-color="#7F87F1"/>
</linearGradient>
<linearGradient id="paint4_linear" x1="46" y1="0" x2="46" y2="78.1104" gradientUnits="userSpaceOnUse">
<stop stop-color="#E280DE"/>
<stop offset="1" stop-color="#7F87F1"/>
</linearGradient>
<linearGradient id="paint5_linear" x1="16.33" y1="23.7734" x2="16.33" y2="44.4569" gradientUnits="userSpaceOnUse">
<stop stop-color="#E280DE"/>
<stop offset="1" stop-color="#7F87F1"/>
</linearGradient>
<linearGradient id="paint6_linear" x1="36.6582" y1="24.6836" x2="36.6582" y2="27.3803" gradientUnits="userSpaceOnUse">
<stop stop-color="#E280DE"/>
<stop offset="1" stop-color="#7F87F1"/>
</linearGradient>
<linearGradient id="paint7_linear" x1="36.6582" y1="30.9219" x2="36.6582" y2="33.6186" gradientUnits="userSpaceOnUse">
<stop stop-color="#E280DE"/>
<stop offset="1" stop-color="#7F87F1"/>
</linearGradient>
</defs>
</svg>
