<svg width="88" height="75" viewBox="0 0 88 75" fill="none" xmlns="http://www.w3.org/2000/svg">
<path d="M84.5407 0H58.2438C57.5344 0 56.9592 0.57498 56.9592 1.28452C56.9592 1.99405 57.5344 2.56903 58.2438 2.56903H84.5407C84.7768 2.56903 84.9688 2.76103 84.9688 2.99714V16.9553H82.2001C81.5765 10.3043 75.9644 5.08113 69.1532 5.08113C62.342 5.08113 56.7298 10.3043 56.1063 16.9553H2.56903V2.99714C2.56903 2.76103 2.7612 2.56903 2.99714 2.56903H51.8166C52.5259 2.56903 53.1011 1.99405 53.1011 1.28452C53.1011 0.57498 52.5259 0 51.8166 0H2.99714C1.34453 0 0 1.34453 0 2.99714V58.3371C0 59.9897 1.34453 61.3343 2.99714 61.3343H18.2392V61.5302C18.2392 62.6136 18.7994 63.5841 19.7376 64.1257C20.6759 64.6677 21.7964 64.6672 22.7347 64.1257L27.5696 61.3343H42.4471L42.5401 62.3141C42.5962 62.9046 42.2444 63.4533 41.6842 63.6484C40.5799 64.0801 38.6662 64.4345 38.056 65.5898L37.3451 66.6978C36.453 68.0887 36.8587 69.9463 38.2498 70.8388L44.0009 74.5279C45.3448 75.4267 47.2983 74.9968 48.142 73.6236L61.3317 53.0612H65.2904C66.943 53.0612 68.2875 51.7167 68.2875 50.0641V49.2195H70.1063C71.759 49.2195 73.1035 47.875 73.1035 46.2224V40.5757C73.1035 38.923 71.759 37.5785 70.1063 37.5785H68.2875V36.7339C68.2875 35.0813 66.943 33.7368 65.2904 33.7368H45.2386C43.0537 33.7368 40.8988 33.1594 39.0066 32.0669L22.735 22.6725C21.7966 22.1307 20.6762 22.1308 19.7379 22.6725C18.7996 23.2143 18.2395 24.1845 18.2395 25.268V37.5785H13.712C12.0594 37.5785 10.7148 38.923 10.7148 40.5757V46.2224C10.7148 47.875 12.0594 49.2195 13.712 49.2195H18.2393V58.7652H2.99714C2.76103 58.7652 2.56903 58.5732 2.56903 58.3371V19.5242H56.1141C56.7857 26.1259 62.3772 31.2946 69.1532 31.2946C75.9291 31.2946 81.5206 26.1259 82.1922 19.5242H84.9688V58.3371C84.9688 58.5732 84.7766 58.7652 84.5407 58.7652H63.0491C62.3398 58.7652 61.7646 59.3402 61.7646 60.0497C61.7646 60.7593 62.3398 61.3343 63.0491 61.3343H84.5407C86.1933 61.3343 87.5378 59.9897 87.5378 58.3371V2.99714C87.5378 1.34453 86.1933 0 84.5407 0ZM42.792 58.2072C42.6791 58.3831 42.588 58.571 42.5147 58.7652H32.0194L39.0066 54.7311C40.8988 53.6386 43.0537 53.0612 45.2386 53.0612H46.0926L42.792 58.2072ZM45.9798 72.2365C45.7833 72.4618 45.6611 72.4885 45.3882 72.3657L39.637 68.6767C39.4382 68.5493 39.3802 68.2838 39.5078 68.0849L40.2185 66.9769C40.4717 66.559 40.8879 66.5848 42.5302 66.0741C44.1726 65.5634 45.2658 63.8424 45.0977 62.0715L44.8884 59.8654C44.8795 59.7705 44.9028 59.6741 44.9543 59.5939L49.1448 53.0611H58.2797L45.9798 72.2365ZM70.1065 40.1475C70.3426 40.1475 70.5346 40.3396 70.5346 40.5757V46.2224C70.5346 46.4585 70.3424 46.6505 70.1065 46.6505H68.2877V40.1474H70.1065V40.1475ZM65.2906 36.3058C65.5267 36.3058 65.7187 36.4978 65.7187 36.7339V50.0641C65.7187 50.3002 65.5265 50.4922 65.2906 50.4922H55.0457V36.3056H65.2906V36.3058ZM20.8082 25.268C20.8396 24.8836 21.1547 24.7527 21.4504 24.8972L25.949 27.4944V52.9007C25.949 53.6102 26.5241 54.1852 27.2335 54.1852C27.9429 54.1852 28.518 53.6102 28.518 52.9007V28.9778L37.7221 34.2917C40.0043 35.6094 42.6034 36.3058 45.2386 36.3058H52.4767V50.4924H45.2386C42.6034 50.4924 40.0043 51.1888 37.7221 52.5064L21.4505 61.9009C21.0944 62.0474 20.862 61.9084 20.8082 61.5302C20.8082 61.53 20.8082 25.268 20.8082 25.268ZM13.712 46.6506C13.4759 46.6506 13.2839 46.4586 13.2839 46.2225V40.5758C13.2839 40.3397 13.4759 40.1477 13.712 40.1477H18.2393V46.6508H13.712V46.6506ZM69.1532 28.7256C63.3427 28.7256 58.6155 23.9984 58.6155 18.1877C58.6155 12.377 63.3427 7.64999 69.1532 7.64999C74.9637 7.64999 79.6909 12.3772 79.6909 18.1879C79.6909 23.9985 74.9637 28.7256 69.1532 28.7256Z" fill="url(#paint0_linear)"/>
<path d="M9.49156 12.2165C10.8749 12.2165 11.9963 11.0951 11.9963 9.71178C11.9963 8.32844 10.8749 7.20703 9.49156 7.20703C8.10823 7.20703 6.98682 8.32844 6.98682 9.71178C6.98682 11.0951 8.10823 12.2165 9.49156 12.2165Z" fill="url(#paint1_linear)"/>
<path d="M17.1131 12.2165C18.4965 12.2165 19.6179 11.0951 19.6179 9.71178C19.6179 8.32844 18.4965 7.20703 17.1131 7.20703C15.7298 7.20703 14.6084 8.32844 14.6084 9.71178C14.6084 11.0951 15.7298 12.2165 17.1131 12.2165Z" fill="url(#paint2_linear)"/>
<path d="M24.7313 12.2165C26.1146 12.2165 27.2361 11.0951 27.2361 9.71178C27.2361 8.32844 26.1146 7.20703 24.7313 7.20703C23.348 7.20703 22.2266 8.32844 22.2266 9.71178C22.2266 11.0951 23.348 12.2165 24.7313 12.2165Z" fill="url(#paint3_linear)"/>
<path d="M70.5608 16.9218C69.6992 16.6173 68.7491 16.2514 68.2348 15.8482C68.1776 15.8033 68.1145 15.6217 68.161 15.375C68.1836 15.2555 68.2875 14.8561 68.6778 14.7384C69.5647 14.471 70.1284 14.9127 70.1897 14.9641L70.1684 14.945L70.324 15.0323C71.5895 15.7432 72.8778 14.138 71.9099 13.0562C71.6071 12.7769 71.0708 12.4387 70.3747 12.2441V12.0853C70.3747 11.3758 69.7996 10.8008 69.0902 10.8008C68.3809 10.8008 67.8057 11.3758 67.8057 12.0853V12.3231C66.6908 12.7121 65.865 13.6861 65.6362 14.8993C65.4159 16.0688 65.8041 17.2069 66.6492 17.8696C67.4535 18.5005 68.593 18.951 69.7044 19.3439C70.4101 19.5935 70.4818 20.1012 70.4175 20.4833C70.3262 21.0263 69.8692 21.6134 69.0817 21.6185C68.1829 21.6235 67.9493 21.5878 67.2842 21.1528C66.648 20.7368 65.7804 20.9574 65.4299 21.6577C65.1331 22.2506 65.3687 22.9744 65.9259 23.3339C66.6284 23.7872 67.1876 24.0082 67.8055 24.11V24.2902C67.8055 24.9997 68.3807 25.5747 69.09 25.5747C69.7994 25.5747 70.3746 24.9997 70.3746 24.2902V23.9694C71.8147 23.4707 72.7369 22.1833 72.9509 20.9094C73.2495 19.135 72.2888 17.5326 70.5608 16.9218Z" fill="url(#paint4_linear)"/>
<defs>
<linearGradient id="paint0_linear" x1="43.7689" y1="0" x2="43.7689" y2="75" gradientUnits="userSpaceOnUse">
<stop stop-color="#E280DE"/>
<stop offset="1" stop-color="#7F87F1"/>
</linearGradient>
<linearGradient id="paint1_linear" x1="9.49156" y1="7.20703" x2="9.49156" y2="12.2165" gradientUnits="userSpaceOnUse">
<stop stop-color="#E280DE"/>
<stop offset="1" stop-color="#7F87F1"/>
</linearGradient>
<linearGradient id="paint2_linear" x1="17.1131" y1="7.20703" x2="17.1131" y2="12.2165" gradientUnits="userSpaceOnUse">
<stop stop-color="#E280DE"/>
<stop offset="1" stop-color="#7F87F1"/>
</linearGradient>
<linearGradient id="paint3_linear" x1="24.7313" y1="7.20703" x2="24.7313" y2="12.2165" gradientUnits="userSpaceOnUse">
<stop stop-color="#E280DE"/>
<stop offset="1" stop-color="#7F87F1"/>
</linearGradient>
<linearGradient id="paint4_linear" x1="69.1528" y1="10.8008" x2="69.1528" y2="25.5747" gradientUnits="userSpaceOnUse">
<stop stop-color="#E280DE"/>
<stop offset="1" stop-color="#7F87F1"/>
</linearGradient>
</defs>
</svg>
