<svg width="91" height="91" viewBox="0 0 91 91" fill="none" xmlns="http://www.w3.org/2000/svg">
<path fill-rule="evenodd" clip-rule="evenodd" d="M86.5108 43.9824C86.5108 43.9824 69.4104 19.6525 45.4976 19.6525C21.5848 19.6525 4.48438 43.9824 4.48438 43.9824C4.48438 43.9824 21.5848 68.3123 45.4976 68.3123C69.4104 68.3123 86.5108 43.9824 86.5108 43.9824ZM14.3007 43.9862C19.9197 37.8054 31.5663 27.2358 45.497 27.2358C55.5721 27.2358 64.4386 32.8892 70.1025 37.6317C72.7767 39.8708 75.0068 42.1218 76.6934 43.9786C71.0744 50.1593 59.4278 60.7289 45.497 60.7289C35.422 60.7289 26.5555 55.0756 20.8916 50.333C18.2174 48.0939 15.9873 45.843 14.3007 43.9862Z" fill="#C7D1E7"/>
<path fill-rule="evenodd" clip-rule="evenodd" d="M45.5001 53.4018C51.085 53.4018 55.6124 48.8744 55.6124 43.2895C55.6124 37.7045 51.085 33.1771 45.5001 33.1771C39.9152 33.1771 35.3877 37.7045 35.3877 43.2895C35.3877 48.8744 39.9152 53.4018 45.5001 53.4018Z" stroke="#C7D1E7" stroke-width="6" stroke-linecap="round" stroke-linejoin="round"/>
</svg>
