<svg width="270" height="102" viewBox="0 0 270 102" fill="none" xmlns="http://www.w3.org/2000/svg">
<path d="M134.176 102C192.245 102 239.318 99.4176 239.318 96.232C239.318 93.0465 192.245 90.4641 134.176 90.4641C76.1079 90.4641 29.0342 93.0465 29.0342 96.232C29.0342 99.4176 76.1079 102 134.176 102Z" fill="#140823"/>
<path opacity="0.41" d="M257.075 10.6806C252.887 10.963 254.297 18.2637 253.169 21.8939C252.042 25.5241 243.666 27.5005 239.478 28.1862C235.29 28.8719 227.438 36.455 227.438 36.455C229.129 23.83 220.431 14.5932 206.458 16.0049C192.484 17.4167 191.92 40.9322 191.92 40.9322C177.947 40.3675 155.558 48.2329 155.558 48.2329L129.262 52.1454C127.007 49.3623 119.759 47.3859 119.759 47.3859C110.819 29.4366 83.114 20.1998 76.9529 16.0049C70.7917 11.81 73.6105 4.22697 67.4494 4.22697C61.2882 4.22697 59.6372 16.2873 59.6372 16.2873C55.1674 24.1123 59.3553 24.1123 66.644 24.7174C73.9326 25.3224 80.8991 33.6315 80.8991 33.6315C71.1138 32.7844 71.1139 43.9977 71.1139 43.9977C69.9863 40.3675 46.5095 23.83 43.6907 19.6351C40.9122 15.4402 44.8183 9.2689 38.9391 6.20341C33.0598 3.13792 21.5832 10.3983 21.5832 10.3983C5.63668 11.2453 0.0393066 20.7645 0.0393066 20.7645C4.50915 29.4366 21.865 23.5476 31.3684 29.1543C40.8719 34.7609 57.3821 69.4897 59.3553 73.9669C61.3284 78.4441 78.926 83.2037 79.7717 86.0272C80.6173 88.8103 82.0266 92.1985 83.1139 92.1985C84.2012 92.1985 128.698 93.8926 134.215 94.7396C139.732 95.5867 176.256 97.2808 189.424 94.7396C202.551 92.1985 215.719 64.2057 219.062 62.794C222.404 61.3823 226.874 50.7337 230.82 51.0161C234.726 51.2984 259.331 28.8719 262.149 26.0888C264.968 23.3056 267.183 23.83 268.311 17.4167C269.358 10.963 261.263 10.3983 257.075 10.6806ZM77.3555 60.0108C74.7381 59.2445 74.577 51.7018 74.577 51.7018C78.1207 53.0732 82.5503 51.8631 86.094 51.7018C89.6376 51.5404 101.316 60.0108 101.316 60.0108C101.316 60.0108 79.973 60.7772 77.3555 60.0108Z" fill="#140823"/>
<path d="M191.883 40.9324C191.883 40.9324 191.037 74.4108 203.44 71.5469C203.44 71.5469 188.38 78.888 188.38 40.9324H191.883Z" fill="#F90069"/>
<path d="M230.783 51.0164C230.783 51.0164 232.515 44.9257 231.669 40.2468C231.669 40.2468 234.206 44.2804 234.649 47.7895C235.092 51.2987 239.32 44.8854 240.891 40.9325C242.461 36.9797 244.918 41.3762 244.918 41.3762C244.918 41.3762 239.844 48.1929 230.783 51.0164Z" fill="white"/>
<path d="M167.6 72.0713C167.6 72.0713 150.527 63.6008 141.829 67.352C133.171 71.1032 130.191 77.4762 129.788 79.8157C129.386 82.1551 127.05 78.525 137.681 76.7099C148.312 74.8948 147.386 75.5401 149.198 81.6308C151.01 87.7214 170.057 80.1787 167.6 72.0713Z" fill="#534C75"/>
<path d="M130.833 94.3766C130.833 94.3766 133.25 81.9936 139.854 81.7516C146.458 81.5096 141.021 86.5918 147.626 88.0843C154.23 89.5363 176.015 87.5196 180.928 95.6673C180.928 95.6673 153.022 97.5631 130.833 94.3766Z" fill="white"/>
<path d="M215.317 67.2713C215.317 67.2713 203.438 79.1703 191.921 78.3636C180.404 77.5972 195.948 81.2274 191.921 87.56C187.894 93.933 181.572 86.9147 175.733 87.56C169.894 88.2054 185.76 89.3751 185.8 95.1834C185.8 95.1834 194.901 96.9179 203.438 84.5752C212.015 72.2729 215.317 67.2713 215.317 67.2713Z" fill="white"/>
<path d="M162.567 45.9743C162.567 45.9743 171.064 52.0649 170.822 63.4798C170.58 74.8948 177.023 50.6532 175.372 47.6684C173.681 44.6836 183.265 47.5474 183.023 53.759C182.782 59.9707 188.459 40.9324 188.459 40.9324C188.459 40.9324 170.661 41.4567 162.567 45.9743Z" fill="#F90069"/>
<path d="M155.517 48.1925C155.517 48.1925 144.363 47.5068 141.625 50.2497C138.886 52.9925 143.437 64.8914 143.437 64.8914C143.437 64.8914 142.953 53.7185 145.611 52.6294C148.229 51.5404 146.94 64.5284 150.765 65.5771C154.591 66.6661 147.061 56.784 150.765 53.6782C154.47 50.5723 158.578 56.5823 162.564 55.9773C166.591 55.4126 162.927 46.4178 155.517 48.1925Z" fill="#F90069"/>
<path d="M119.718 47.3858C119.718 47.3858 108.926 45.8531 102.483 45.7321C96.04 45.6111 89.5166 42.1019 89.5166 42.1019C89.5166 42.1019 90.805 32.5021 83.919 36.2533C83.919 36.2533 83.0332 33.6315 80.8587 33.6718C78.6842 33.6718 74.2143 32.8248 71.9995 39.2381C71.9995 39.2381 75.7444 34.0348 80.2948 36.1323C84.8452 38.2297 82.6304 38.7944 85.3284 40.5288C88.0265 42.1826 100.228 54.2832 119.718 47.3858Z" fill="#F90069"/>
<path d="M143.439 64.8917C143.439 64.8917 122.378 68.7639 116.177 67.3521C109.975 65.9404 94.7942 55.6146 94.7942 55.6146C94.7942 55.6146 110.338 60.5758 117.909 62.1892C125.56 63.843 143.439 64.8917 143.439 64.8917Z" fill="#534C75"/>
<path d="M76.2315 59.0428C76.2315 59.0428 75.5065 48.8379 71.0766 43.9977C66.6064 39.1978 73.8957 55.5336 76.2315 59.0428Z" fill="#534C75"/>
<path d="M83.0732 92.1986C83.0732 92.1986 85.2476 78.5652 91.8115 75.9031C98.3351 73.2409 94.9525 87.7617 101.315 89.0121C107.677 90.2625 127.047 86.6726 128.416 83.2441C128.416 83.2441 124.671 87.802 124.671 94.0137L83.0732 92.1986Z" fill="#534C75"/>
<path d="M54 62.9553C54 62.9553 56.4565 57.0663 72.0004 54.0412C72.0004 54.0412 63.3424 52.3471 56.9396 56.0176C50.5368 59.6881 58.631 51.3387 70.148 49.4833C70.148 49.4833 62.6981 46.7808 53.396 51.7017C53.396 51.7017 54.8859 44.8044 47.557 38.9557C40.228 33.1071 28.4695 27.8635 28.4695 27.8635C28.4695 27.8635 42.1207 37.6247 54 62.9553Z" fill="#F90069"/>
<path d="M42.9655 18.2635C42.9655 18.2635 31.0052 11.8905 28.8306 23.1844C28.8306 23.1844 38.0928 16.3677 45.7845 21.934" fill="#534C75"/>
<path d="M0 20.7648C0 20.7648 2.1746 14.6339 9.34247 12.1734C16.5103 9.71294 23.1145 8.50288 29.3159 5.84074C35.5173 3.1786 40.6314 4.34833 41.7589 9.10791C41.7589 9.10791 35.6381 5.27605 27.0608 10.076C18.4835 14.8759 11.8794 13.4641 7.16798 17.2557C2.45652 21.0068 0 20.7648 0 20.7648Z" fill="#F90069"/>
<path d="M75.2629 14.5527C75.2629 14.5527 68.216 15.9241 67.8938 22.0148C67.8938 22.0148 66.8468 16.0855 70.8737 12.6166C74.9408 9.10743 66.565 2.73445 63.3032 6.48564C63.3032 6.48564 66.7663 1.56472 70.7126 4.46887C74.6992 7.33268 73.5716 13.1006 75.2629 14.5527Z" fill="#F90069"/>
<path d="M75.2639 14.5529C75.2639 14.5529 88.15 26.6535 94.8347 31.6551C101.519 36.6567 119.761 47.3456 119.761 47.3456C119.761 47.3456 114.687 36.1323 105.345 30.929C96.0025 25.7258 75.2639 14.5529 75.2639 14.5529Z" fill="#534C75"/>
<path d="M59.2365 23.5477C59.2365 23.5477 55.814 22.6603 57.5856 18.7074C59.3572 14.7142 61.8939 9.75298 62.0953 8.34124C62.2966 6.9295 62.5381 13.6655 60.6054 16.852C58.6325 19.9982 59.2365 23.5477 59.2365 23.5477Z" fill="#F90069"/>
<path d="M53.9995 62.9552C53.9995 62.9552 64.1877 63.6409 68.2549 68.3602C72.3221 73.0794 75.6242 83.3246 79.7317 85.9868C79.7317 85.9868 61.6909 78.0407 59.758 75.5399C57.825 73.0391 53.9995 62.9552 53.9995 62.9552Z" fill="#534C75"/>
<path d="M256.15 10.8822C256.15 10.8822 254.096 10.3982 253.774 16.6502C253.452 22.9021 251.438 24.3946 249.586 25.2013C247.734 26.008 238.431 27.0567 232.914 31.7356C227.397 36.4549 227.397 36.4548 227.397 36.4548C227.397 36.4548 232.31 38.3103 237.747 34.3171C243.183 30.3239 251.962 30.0415 253.331 26.492C254.74 22.9828 258.405 13.383 256.15 10.8822Z" fill="#534C75"/>
<path d="M265.452 11.8505C265.452 11.8505 268.794 16.3681 265.452 21.2083C262.11 26.0486 246.123 35.124 242.136 43.5945C242.136 43.5945 259.371 29.7998 262.11 26.8149C264.888 23.8704 274.674 17.3361 265.452 11.8505Z" fill="white"/>
<path d="M221.442 25.6047C221.442 25.6047 221.965 23.3459 220.596 20.1594C219.227 16.9729 204.086 11.931 204.086 11.931L198.408 18.0619C198.408 18.0619 192.77 28.7105 193.737 32.0987C194.542 35.0432 216.328 32.26 216.328 32.26L221.442 25.6047Z" fill="#140823"/>
<path d="M225.551 2.16993C225.551 2.16993 209.564 -5.13078 198.611 7.05052C185.403 21.6923 220.356 5.51778 220.356 5.51778C220.356 5.51778 221.242 1.60524 225.551 2.16993Z" fill="#1F1336"/>
<path d="M214.396 1.64566C214.396 1.64566 202.154 0.717945 195.59 10.5598C189.027 20.3613 188.664 44.1995 188.664 44.1995L190.839 44.2802C190.839 44.2802 194.342 6.48591 217.456 14.3916C217.416 14.432 219.832 4.95316 214.396 1.64566Z" fill="#140823"/>
<path d="M220.637 14.5935L217.416 14.4322C217.416 14.4322 216.772 4.99367 214.396 1.64583C214.396 1.64583 220.275 -0.975974 225.55 2.17019C225.55 2.17019 220.879 9.55158 220.637 14.5935Z" fill="#C2C3CA"/>
<path d="M223.416 21.0471C223.416 21.0471 223.859 43.4736 224.342 56.1389L226.718 51.9037C226.718 51.9037 225.228 44.6029 225.711 42.1021C226.194 39.6013 228.409 37.9073 228.409 37.9073C228.409 37.9073 228.651 40.8114 228.208 42.2232C227.765 43.6349 226.234 45.7323 226.557 46.8617C226.879 47.9508 228.932 58.5187 227.885 65.3353C227.885 65.3353 230.744 50.2902 230.503 47.3861C230.261 44.4819 228.57 26.331 228.57 26.331C228.57 26.331 227.161 25.5243 226.476 24.7982C225.832 24.0319 224.503 21.0874 223.416 21.0471Z" fill="white"/>
<path d="M223.417 21.0471C223.417 21.0471 220.599 23.6285 219.793 25.4033C219.793 25.4033 214.759 24.7983 211.779 26.8554C208.799 28.8721 202.437 34.0351 193.578 30.7276C193.578 30.7276 192.732 33.5914 193.014 35.4065C193.014 35.4065 196.799 37.2216 197.282 42.3038C197.765 47.3861 197.927 52.4684 197.927 52.4684L217.941 67.2714L218.988 47.9911C218.988 47.9911 207.471 47.4668 207.108 39.1577L221.404 42.3442C221.404 42.3442 222.088 51.0566 220.88 53.5171L224.384 56.2195L223.417 21.0471Z" fill="#F90069"/>
<path d="M217.417 14.432C217.417 14.432 217.82 5.63893 214.397 1.64572C214.397 1.64572 212.665 6.28429 209.363 8.01871C206.061 9.75313 197.967 12.3346 194.585 21.2891C194.585 21.2891 191.202 29.8805 190.839 44.3206C190.799 44.3206 191.484 4.46919 217.417 14.432Z" fill="#F90069"/>
<path d="M217.294 19.9982C217.294 19.9982 214.032 16.1663 208.475 15.884C202.918 15.6016 199.495 18.1428 199.495 18.1428L200.461 16.4487L205.173 13.5445L209.643 12.8185L215.643 14.0285L217.374 15.5209L218.703 15.0369L219.307 17.0134L218.22 19.7158L217.294 19.9982Z" fill="#140823"/>
<path d="M196.194 19.5544C197.443 17.215 199.456 15.2385 201.872 14.0285C203.08 13.4234 204.369 13.0201 205.698 12.7781C207.027 12.5764 208.355 12.4957 209.644 12.5764C210.611 12.6571 211.577 12.7781 212.543 12.9797C214.154 13.3024 215.725 13.8268 217.174 14.5528L221 14.7142L220.96 15.8839L219.913 15.8435C219.752 19.3527 220.597 20.0788 220.597 20.0788L220.557 20.6838L218.785 20.6031L217.013 20.5225L217.053 19.9174C217.053 19.9174 217.98 19.3124 218.141 15.7629L217.094 15.7225C217.094 15.7225 209.08 12.7377 203.845 14.4721C203.644 14.5528 203.443 14.6335 203.241 14.7142C203.201 14.7142 203.201 14.7545 203.161 14.7545C202.879 14.8755 202.637 14.9965 202.355 15.1175C201.268 15.6822 200.221 16.3679 199.335 17.215C199.134 17.4166 198.852 17.6183 198.651 17.8603L198.047 18.546C197.845 18.788 197.684 19.03 197.483 19.2721L197.201 19.6351L196.959 20.0384C195.59 22.1359 194.624 24.556 193.899 27.0165C194.181 24.435 194.906 21.8535 196.194 19.5544Z" fill="#4A4267"/>
</svg>
