<svg width="375" height="375" viewBox="0 0 375 375" fill="none" xmlns="http://www.w3.org/2000/svg">
<path d="M225.723 47.4082C225.723 47.4082 215.753 52.1705 215.753 58.0534C215.753 63.9363 207.655 70.1926 207.655 81.2113C207.655 92.23 204.332 122.018 216.689 120.944C216.689 120.944 217.578 126.08 216.502 127.947C215.425 129.768 200.681 126.827 193.286 131.636C185.89 136.398 147.182 168.054 142.033 168.054C136.884 168.054 142.033 171.742 142.033 171.742C142.033 171.742 98.8779 170.248 84.134 173.563C84.134 173.563 71.7771 161.704 68.6411 150.732C68.6411 150.732 62.1819 151.245 67.7518 165.906C67.7518 165.906 37.7023 164.505 37.515 167.493C37.3278 170.435 42.0552 170.295 42.0552 170.295C42.0552 170.295 34.1918 169.081 34.0046 172.022C33.8174 174.964 39.4341 174.45 39.4341 174.45C39.4341 174.45 33.8642 178.279 41.0255 178.979C41.0255 178.979 37.0002 181.594 40.8383 183.181C44.6764 184.768 49.4038 183.181 52.0249 184.582C54.6461 185.982 58.9991 187.757 68.7816 186.776C78.564 185.796 82.4021 186.403 86.0998 187.056C89.7975 187.71 120.502 197.655 153.875 192.099C153.875 192.099 154.203 197.841 165.389 198.215C165.389 198.215 139.178 231.505 135.153 241.449C135.153 241.449 62.8372 277.354 56.0035 294.442C56.0035 294.442 20.5244 339.917 53.8972 346.034C87.2699 352.15 167.262 340.291 167.262 340.291C167.262 340.291 169.93 352.617 195.626 350.656C221.323 348.742 240.888 340.571 240.888 340.571C240.888 340.571 262.699 342.485 263.027 332.727C263.355 322.969 253.572 321.849 250.202 314.472C246.832 307.095 236.862 294.769 226.471 304.247C226.471 304.247 226.939 292.061 228.25 286.785C228.25 286.785 233.539 285.804 233.071 272.685C233.071 272.685 245.756 262.46 245.756 248.033C245.756 233.606 257.457 200.876 278.66 186.823C278.66 186.823 297.757 186.216 302.578 183.835C302.578 183.835 321.535 185.095 322.143 168.474C322.143 168.474 322.798 144.616 328.743 133.55C334.687 122.485 343.206 107.451 341.568 104.743C339.976 102.035 333.751 107.684 333.751 107.684C333.751 107.684 334.734 94.0042 330.475 94.0976C326.168 94.191 326.636 102.735 326.636 102.735C326.636 102.735 321.581 100.354 320.739 108.992C319.896 117.629 315.543 114.408 315.075 117.302C314.607 120.197 309.084 116.088 309.037 127.154C308.991 138.219 309.786 149.144 303.187 147.464C296.587 145.783 289.285 123.652 279.877 123.652C270.469 123.652 251.934 122.111 252.074 112.306C252.215 102.502 265.274 94.6579 263.589 79.6706C261.997 64.5899 255.678 47.6883 225.723 47.4082Z" fill="#140823"/>
<path d="M68.6416 150.685C68.6416 150.685 72.8541 160.537 76.8327 165.252C80.8112 170.014 65.4588 154.98 65.9736 153.113C66.4885 151.245 68.6416 150.685 68.6416 150.685Z" fill="#F90069"/>
<path d="M40.0901 170.015C40.0901 170.015 37.0477 170.015 37.5626 167.447C38.0775 164.879 58.9061 165.626 58.9061 165.626C58.9061 165.626 39.7624 166.746 40.0901 170.015Z" fill="#F90069"/>
<path d="M40.0887 170.015C40.0887 170.015 34.1444 169.034 34.0508 171.975C34.0508 171.975 38.0761 169.781 40.0887 170.015Z" fill="#F90069"/>
<path d="M39.4807 174.403C39.4807 174.403 37.4212 174.263 37.5148 177.531C37.5148 177.531 38.1701 175.244 39.4807 174.403Z" fill="#1C1536"/>
<path d="M41.076 178.932C41.076 178.932 38.1738 179.913 39.4844 182.154C39.4844 182.154 39.3909 179.773 41.076 178.932Z" fill="#1C1536"/>
<path d="M84.1367 173.516C84.1367 173.516 87.694 171.695 107.119 171.509C126.543 171.322 99.1616 175.057 84.1367 173.516Z" fill="#F90069"/>
<path d="M82.5469 186.403C82.5469 186.403 83.8107 182.481 93.9676 182.807C104.125 183.134 132.629 188.504 139.791 188.504C146.952 188.504 143.816 193.219 143.816 193.219C143.816 193.219 128.651 193.826 113.86 192.472C99.1163 191.165 86.6658 186.122 82.5469 186.403Z" fill="#534C75"/>
<path d="M142.036 171.695C142.036 171.695 138.198 169.781 140.024 168.427C141.802 167.073 161.554 157.782 172.226 147.51C182.851 137.239 145.406 166.653 161.554 188.083C177.703 209.514 148.73 172.396 146.951 173.189C145.172 174.03 153.925 191.959 153.925 191.959C153.925 191.959 145.172 175.757 142.036 171.695Z" fill="#F90069"/>
<path d="M184.958 162.824C184.958 162.824 171.431 190.324 165.44 198.075C159.449 205.825 137.731 231.971 135.203 241.309C135.203 241.309 162.491 237.901 199.608 243.223C236.725 248.593 151.445 231.551 159.027 219.925C166.61 208.3 189.826 213.155 197.081 202.277C204.383 191.445 180.979 178.372 184.958 162.824Z" fill="#534C75"/>
<path d="M184.113 138.406C184.113 138.406 192.07 139.433 190.339 146.996C188.607 154.56 194.317 133.083 203.912 133.783C213.508 134.484 216.456 127.947 216.456 127.947C216.456 127.947 199.747 127.574 194.879 130.749C190.058 133.877 184.113 138.406 184.113 138.406Z" fill="#F90069"/>
<path d="M198.763 143.215C198.763 143.215 183.785 160.49 193.942 173.89C204.099 187.289 229.749 167.727 256.054 167.913C282.359 168.1 277.725 142.188 267.428 139.946C257.084 137.705 207.048 154.7 198.763 143.215Z" fill="#534C75"/>
<path d="M259.707 120.617C259.707 120.617 236.257 138.686 214.773 135.138C214.773 135.138 239.019 141.254 263.639 121.831L259.707 120.617Z" fill="white"/>
<path d="M279.928 123.512C279.928 123.512 265.699 126.687 262.75 136.071C262.75 136.071 271.269 128.648 279.928 131.216C288.587 133.784 296.684 140.927 296.684 140.927C296.684 140.927 289.149 123.979 279.928 123.512Z" fill="white"/>
<path d="M303.235 147.323C303.235 147.323 281.376 143.728 279.738 171.695C279.738 171.695 284.091 157.782 290.129 157.969C296.167 158.155 282.406 171.369 285.636 181.827C285.683 181.827 292.236 156.241 303.235 147.323Z" fill="#534C75"/>
<path d="M278.71 186.682C278.71 186.682 271.549 180.66 271.268 173.89C270.987 167.12 268.74 194.153 259.707 199.055C250.673 203.958 236.35 223.007 236.07 239.021C235.789 255.036 232.98 254.756 227.645 252.795C227.645 252.795 234.151 263.066 233.121 272.544C233.121 272.544 242.997 265.121 245.337 252.748C247.678 240.375 252.639 208.486 278.71 186.682Z" fill="white"/>
<path d="M259.144 176.971C259.144 176.971 258.02 194.48 241.123 203.537C224.226 212.595 243.37 196.534 236.349 190.231C229.328 183.975 237.472 177.812 259.144 176.971Z" fill="#534C75"/>
<path d="M233.026 239.582C232.511 248.826 222.308 242.663 222.308 242.663C222.308 242.663 176.719 227.489 193.054 229.73C193.054 229.73 228.814 226.182 241.17 209.234C253.527 192.285 233.869 224.127 233.026 239.582Z" fill="white"/>
<path d="M336.047 105.723C336.047 105.723 340.447 104.089 340.54 106.517C340.681 108.945 338.34 115.155 338.34 115.155C338.34 115.155 343.396 107.124 341.57 104.603C339.791 102.082 336.047 105.723 336.047 105.723Z" fill="white"/>
<path d="M326.686 102.548C326.686 102.548 327.763 106.75 326.686 115.154C326.686 115.154 326.499 101.754 322.755 103.342C322.708 103.342 325.048 101.194 326.686 102.548Z" fill="white"/>
<path d="M56.0508 294.302C56.0508 294.302 85.0238 302.005 92.8872 318.954C100.751 335.902 96.6786 290.94 84.6026 284.403C72.5266 277.867 110.72 266.381 128.366 260.265C146.012 254.195 135.2 241.262 135.2 241.262C135.2 241.262 69.5778 266.568 56.0508 294.302Z" fill="#F90069"/>
<path d="M174.144 270.724C174.144 270.724 162.817 294.395 163.706 307.655C163.706 307.655 188.092 279.174 212.057 301.352C212.057 301.352 194.177 274.412 180.463 282.022C166.748 289.633 174.144 270.724 174.144 270.724Z" fill="#534C75"/>
<path d="M233.118 272.544C233.118 272.544 233.773 285.524 226.237 286.365C218.701 287.205 216.595 268.576 206.157 270.724C195.72 272.918 227.735 288.979 221.182 312.884C221.182 312.884 239.39 285.851 233.118 272.544Z" fill="white"/>
<path d="M53.2896 298.13C53.2896 298.13 71.6375 309.896 58.9063 319.841C46.175 329.786 40.5115 331.14 46.7367 343.419C46.7367 343.419 34.8012 338.237 40.0903 322.736C45.3794 307.281 53.2896 298.13 53.2896 298.13Z" fill="#F90069"/>
<path d="M69.4844 337.63C69.4844 337.63 91.5302 329.319 95.7428 322.736C99.9554 316.153 99.3936 335.809 69.4844 337.63Z" fill="#534C75"/>
<path d="M163.657 307.655C163.657 307.655 154.998 284.264 143.203 282.022C143.25 282.022 161.27 285.804 163.657 307.655Z" fill="#534C75"/>
<path d="M166.045 312.884C166.045 312.884 143.999 309.896 133.795 316.713C123.592 323.529 95.7422 322.782 95.7422 322.782C95.7422 322.782 106.227 326.938 135.2 321.428C164.219 315.919 166.045 312.884 166.045 312.884Z" fill="#534C75"/>
<path d="M167.357 340.104C167.357 340.104 163.285 322.969 166.046 312.837C168.808 302.706 171.803 329.739 187.811 335.762C203.819 341.785 207.002 349.208 207.002 349.208C207.002 349.208 174.705 357.519 167.357 340.104Z" fill="#534C75"/>
<path d="M207.003 349.255C207.003 349.255 207.237 333.474 198.578 326.937C198.578 326.891 214.118 333.894 207.003 349.255Z" fill="#534C75"/>
<path d="M240.985 340.431C240.985 340.431 251.001 322.736 233.168 318.253C233.121 318.253 246.274 323.016 240.985 340.431Z" fill="white"/>
<path d="M221.183 312.884C221.183 312.884 213.367 319.561 213.835 348.088C213.835 348.088 203.023 319.794 221.183 312.884Z" fill="white"/>
<path d="M260.314 337.443C260.314 337.443 262.748 329.786 257.365 325.817C251.983 321.848 248.519 316.526 248.285 310.596C248.285 310.596 252.919 318.207 255.868 320.681C258.769 323.156 268.926 329.972 260.314 337.443Z" fill="white"/>
<path d="M324.953 144.802C324.953 144.802 322.987 155.354 322.753 159.183C322.519 163.011 326.591 184.768 302.627 183.695C278.662 182.621 305.342 179.959 309.975 175.664C314.609 171.369 320.273 146.763 324.953 144.802Z" fill="white"/>
<path d="M333.8 107.544C333.8 107.544 335.157 93.444 330.523 93.9575C330.523 93.9575 335.813 105.63 330.523 120.244C330.523 120.244 334.034 113.987 333.8 107.544Z" fill="white"/>
<path d="M218.278 62.7688C218.278 62.7688 217.529 59.3138 219.635 54.5515C221.741 49.7892 244.957 42.3188 244.957 42.3188L253.476 51.7034C253.476 51.7034 261.854 67.9513 260.356 73.0872C259.046 77.5227 225.954 72.9471 225.954 72.9471L218.278 62.7688Z" fill="#140823"/>
<path d="M212.477 27.0981C212.477 27.0981 236.956 16.3129 253.432 34.9886C273.278 57.4463 220.34 32.3273 220.34 32.3273C220.34 32.3273 219.029 26.3511 212.477 27.0981Z" fill="#1F1336"/>
<path d="M229.469 26.5378C229.469 26.5378 248.098 25.3706 257.974 40.3579C267.85 55.3919 267.944 91.5762 267.944 91.5762L264.667 91.6695C264.667 91.6695 259.987 34.2416 224.648 45.8672C224.648 45.9139 221.138 31.4869 229.469 26.5378Z" fill="#140823"/>
<path d="M219.685 46.054L224.646 45.8673C224.646 45.8673 225.816 31.5803 229.467 26.4912C229.467 26.4912 220.527 22.4292 212.43 27.0514C212.476 27.0981 219.451 38.397 219.685 46.054Z" fill="#C2C3CA"/>
<path d="M215.332 55.8123C215.332 55.8123 214.302 89.8488 213.272 109.085L209.762 102.642C209.762 102.642 212.149 91.5763 211.447 87.7945C210.745 83.966 207.375 81.3514 207.375 81.3514C207.375 81.3514 206.954 85.7402 207.609 87.9346C208.217 90.129 210.558 93.3039 210.043 94.9847C209.528 96.6655 206.252 112.68 207.703 123.045C207.703 123.045 203.63 100.167 204.005 95.7317C204.379 91.2962 207.328 63.7961 207.328 63.7961C207.328 63.7961 209.481 62.6289 210.558 61.5084C211.681 60.3411 213.694 55.8589 215.332 55.8123Z" fill="#F90069"/>
<path d="M215.333 55.8123C215.333 55.8123 219.592 59.7809 220.762 62.4888C220.762 62.4888 228.439 61.6951 232.932 64.8233C237.425 67.9515 247.068 75.842 260.641 71.033C260.641 71.033 261.905 75.3751 261.437 78.1298C261.437 78.1298 255.633 80.8378 254.791 88.5415C253.948 96.2453 253.667 103.949 253.667 103.949L222.916 126.08L221.652 96.8056C221.652 96.8056 239.204 96.1986 239.906 83.5925L218.095 88.0746C218.095 88.0746 216.878 101.288 218.656 105.07L213.273 109.085L215.333 55.8123Z" fill="white"/>
<path d="M224.645 45.9139C224.645 45.9139 224.224 32.5141 229.466 26.5378C229.466 26.5378 232.04 33.6346 237.048 36.2492C242.01 38.8638 254.367 42.9725 259.375 56.6525C259.375 56.6525 264.383 69.7722 264.711 91.6696C264.664 91.7163 264.29 31.2535 224.645 45.9139Z" fill="#F90069"/>
<path d="M224.691 54.3647C224.691 54.3647 229.699 48.5752 238.218 48.295C246.737 48.0149 251.839 51.8434 251.839 51.8434L250.434 49.2288L243.32 44.7L236.533 43.5327L227.359 45.2602L224.691 47.548L222.678 46.801L221.742 49.7891L223.334 53.8978L224.691 54.3647Z" fill="#140823"/>
<path d="M256.847 54.038C254.975 50.4896 251.932 47.4548 248.328 45.5405C246.503 44.6067 244.537 43.9998 242.524 43.6263C240.512 43.2527 238.499 43.1127 236.486 43.2527C234.988 43.3461 233.537 43.4862 232.086 43.7663C229.606 44.2332 227.219 44.9803 225.019 46.0541L219.168 46.2409L219.215 48.0151L220.806 47.9684C220.993 53.3377 219.683 54.3648 219.683 54.3648L219.73 55.2986L222.444 55.2052L225.159 55.1119L225.112 54.1781C225.112 54.1781 223.708 53.1976 223.568 47.875L225.159 47.8283C225.159 47.8283 237.422 43.4395 245.333 46.1475C245.66 46.2409 245.941 46.3809 246.269 46.521C246.316 46.521 246.362 46.5677 246.409 46.5677C246.83 46.7544 247.205 46.9412 247.626 47.128C249.311 47.9684 250.809 49.0889 252.213 50.3962C252.541 50.723 252.915 51.0032 253.196 51.3767L254.132 52.4506C254.413 52.8241 254.694 53.1976 254.975 53.5711L255.396 54.1314L255.77 54.7383C257.83 57.9599 259.234 61.6017 260.357 65.3835C259.889 61.4616 258.813 57.5397 256.847 54.038Z" fill="#4A4267"/>
</svg>
