<svg width="375" height="375" viewBox="0 0 375 375" fill="none" xmlns="http://www.w3.org/2000/svg">
<path d="M151.442 83.2872C151.442 83.2872 142.409 65.125 143.205 55.367C144 45.5622 143.485 29.5477 160.102 29.8278C176.718 30.108 178.637 41.5002 177.794 51.5851C177.794 51.5851 182.99 55.1335 177.935 61.9035L175.875 70.3543C175.875 70.3543 208.874 77.1709 220.856 88.0029C232.838 98.8815 241.825 121.152 241.825 122.273C241.825 123.347 241.825 123.347 241.825 123.347C241.825 123.347 254.931 137.774 260.922 145.104C266.913 152.434 280.019 173.118 285.448 170.13C290.878 167.141 300.567 162.706 301.316 161.585C301.316 161.585 304.264 162.613 302.345 165.974C300.426 169.336 291.112 170.223 294.248 175.359C294.248 175.359 314.983 182.409 314.609 185.117C314.234 187.825 299.163 181.522 297.197 182.269C295.231 183.016 312.783 190.86 311.613 194.361C310.443 197.816 295.371 186.658 294.342 188.338C293.312 190.019 303.375 200.431 301.175 202.205C298.975 203.979 291.393 190.766 288.818 191.42C286.244 192.074 289.193 203.372 285.355 203.653C281.47 203.933 284.559 192.961 282.5 189.646C280.44 186.284 277.351 184.23 274.402 179.981C274.402 179.981 252.497 162.613 244.493 155.282C236.489 147.952 228.86 134.599 228.86 134.599L222.167 129.837C222.167 129.837 224.507 155.422 223.992 157.477C223.992 157.477 238.549 168.169 235.974 190.626C233.4 213.084 227.362 202.765 232.23 229.052H222.307C222.307 229.052 209.669 248.008 214.21 255.711C218.703 263.415 223.945 263.275 228.86 269.485C233.774 275.694 239.719 286.573 245.663 287.367C251.608 288.16 259.705 286.199 259.565 298.059C259.424 309.871 256.335 308.984 257.131 315.801C257.926 322.617 261.25 341.9 252.497 342.133C243.744 342.414 243.37 320.423 242.808 317.201C242.293 313.98 240.983 305.996 238.549 302.541C236.115 299.086 228.251 293.81 228.251 293.81C228.251 293.81 226.379 299.086 228.86 303.335C231.341 307.583 234.804 311.552 234.711 320.283C234.57 329.014 227.643 358.988 213.18 358.101C198.763 357.214 208.031 339.472 208.686 336.11C209.342 332.749 213.461 312.579 214.49 312.579C214.49 312.579 215.66 306.136 215.005 303.568C214.35 301 194.645 274.761 192.211 268.971C189.777 263.182 187.811 251.603 187.811 251.603C187.811 251.603 167.357 218.406 173.816 175.312C173.816 175.312 171.616 166.301 167.918 161.959C164.221 157.663 159.727 153.555 157.995 147.952C156.263 142.349 145.451 130.07 145.451 130.07C145.451 130.07 132.907 156.823 118.444 167.141C103.981 177.507 83.8544 191.28 81.0461 197.35C78.2377 203.372 74.54 210.703 72.3869 210.703C70.2338 210.703 75.1017 201.458 75.0081 199.684C74.9145 197.91 67.4723 210.563 64.6171 209.162C61.7619 207.761 72.1529 196.462 71.9188 194.968C71.6848 193.521 63.1661 201.552 61.2003 199.124C59.2344 196.696 72.3869 190.393 72.4805 189.226C72.5741 188.105 64.2894 193.614 63.4001 191.42C62.5108 189.226 75.8974 182.502 75.757 179.421C75.6165 176.339 67.5659 168.075 71.3572 164.9C71.3572 164.9 83.1523 175.359 85.9139 175.125C88.6754 174.892 112.125 149.259 117.929 144.731C117.929 144.731 124.716 112.655 128.32 107.146C131.971 101.589 151.442 83.2872 151.442 83.2872Z" fill="#140823"/>
<path d="M199.231 184.323C199.231 184.323 192.771 192.587 192.397 199.964C192.022 207.341 192.397 221.861 192.397 221.861C192.397 221.861 201.384 217.566 211.821 219.714C211.821 219.714 191.461 214.858 194.924 209.489C198.388 204.119 201.384 207.715 208.405 205.38C215.426 203.046 206.111 200.011 204.473 195.342C202.835 190.626 205.549 181.989 199.231 184.323Z" fill="#534C75"/>
<path d="M232.278 229.005H222.355C222.355 229.005 219.827 223.495 215.194 220.601C210.56 217.706 227.129 224.896 226.755 217.893C226.38 210.889 219.359 214.484 218.283 210.516C217.206 206.547 228.674 206.734 230.874 200.291C233.073 193.848 236.865 186.097 232.278 179.467C227.691 172.837 222.729 161.492 224.04 157.383C225.35 153.275 224.04 157.383 224.04 157.383C224.04 157.383 239.018 167.982 237.426 185.21C235.835 202.438 233.635 211.169 232.278 229.005Z" fill="white"/>
<path d="M192.256 206.967C192.256 206.967 186.78 196.229 183.316 194.781C183.316 194.781 190.244 204.166 189.776 210.422C189.308 216.679 186.499 235.448 187.81 251.603C187.81 251.603 189.074 228.491 192.397 221.908L192.256 206.967Z" fill="#F90069"/>
<path d="M173.816 175.265C173.816 175.265 174.19 186.564 195.393 180.961C195.393 180.961 176.109 184.23 176.858 195.995C177.654 207.715 183.692 206.314 184.581 213.691C185.47 221.068 180.977 219.527 182.615 241.097C182.615 241.097 165.25 199.17 173.816 175.265Z" fill="#F90069"/>
<path d="M221.746 164.2C221.746 164.2 213.602 178.907 203.398 178.767C193.194 178.627 218.329 181.288 218.329 190.206C218.329 199.124 229.469 194.501 229.469 188.432C229.469 182.362 220.857 174.892 221.746 164.2Z" fill="#534C75"/>
<path d="M208.078 211.496C208.078 211.496 222.962 214.111 221.98 216.819C220.997 219.48 213.601 216.585 208.078 211.496Z" fill="#534C75"/>
<path d="M222.353 229.005C222.353 229.005 212.149 247.12 215.426 257.532C215.426 257.532 228.157 266.356 228.017 275.414C227.876 284.425 226.847 293.903 228.017 301.187C228.017 301.187 224.366 290.028 224.225 281.811C224.085 273.593 221.604 268.738 220.575 268.224C219.545 267.71 220.855 281.437 205.877 281.951C205.877 281.951 218.047 279.803 218.328 265.096C218.609 250.435 209.013 277.235 202.227 277.235C202.227 277.235 214.677 263.135 212.337 257.485C209.903 251.836 209.996 231.386 222.353 229.005Z" fill="white"/>
<path d="M231.152 306.976C231.152 306.976 230.872 322.477 221.791 320.002C212.758 317.481 214.957 308.797 214.957 308.797C214.957 308.797 211.868 322.524 221.885 322.897C231.948 323.224 231.714 310.104 231.152 306.976Z" fill="#F90069"/>
<path d="M211.964 320.796C211.964 320.796 208.641 330.508 222.963 332.655C222.963 332.655 214.679 331.441 212.759 334.103C210.84 336.764 223.525 337.464 223.525 337.464C223.525 337.464 210.84 337.324 208.921 340.826C207.002 344.328 219.172 338.305 223.01 342.04C226.801 345.775 211.074 341.806 208.734 344.468C206.394 347.129 206.815 354.926 213.228 358.008C213.228 358.008 202.883 358.801 204.568 347.829C206.207 336.857 210.466 326.632 211.964 320.796Z" fill="#F90069"/>
<path d="M222.539 263.882C222.539 263.882 230.122 267.477 235.177 276.488C240.232 285.499 244.491 286.199 248.095 287.507C248.095 287.507 262.933 299.366 244.632 309.497C244.632 309.497 257.644 298.852 247.3 289.094C247.3 289.094 229.373 287.227 227.828 281.951C227.781 281.904 229.654 273.687 222.539 263.882Z" fill="white"/>
<path d="M241.965 312.159C241.965 312.159 243.556 317.995 251.701 317.668C251.701 317.668 245.101 317.295 245.428 320.796C245.756 324.298 253.011 323.411 253.011 323.411C253.011 323.411 245.335 324.718 245.756 335.083C245.756 335.083 243.79 327.94 243.182 324.485C242.573 321.03 242.667 315.287 241.965 312.159Z" fill="#534C75"/>
<path d="M258.581 306.976C258.581 306.976 254.602 309.357 254.602 314.12C254.602 318.882 258.019 340.452 252.496 342.087C252.496 342.087 259.47 343.067 258.394 328.22C257.317 313.373 257.13 310.618 258.581 306.976Z" fill="white"/>
<path d="M241.872 123.3C241.872 123.3 234.336 133.198 239.204 140.902C244.072 148.606 272.53 163.593 274.402 179.841C274.402 179.841 247.582 160.325 240.468 150.987C233.4 141.649 231.902 141.182 228.86 134.459C225.818 127.782 228.86 134.459 228.86 134.459C228.86 134.459 232.417 125.588 241.872 123.3Z" fill="#534C75"/>
<path opacity="0.33" d="M282.547 189.552C282.547 189.552 285.028 191.186 285.262 196.836C285.449 202.485 285.964 203.326 286.806 202.672C287.649 202.018 284.091 206.36 283.436 201.131C282.781 195.855 283.202 191.933 282.547 189.552Z" fill="#C2C3CA"/>
<path opacity="0.33" d="M288.863 191.326C288.863 191.326 291.999 190.533 296.071 195.902C300.143 201.318 301.735 201.598 301.501 200.804C301.501 200.804 302.25 203.653 299.441 201.645C296.586 199.637 291.11 191.7 288.863 191.326Z" fill="#C2C3CA"/>
<path opacity="0.33" d="M294.389 188.245C294.389 188.245 294.202 186.424 296.964 187.685C299.725 188.945 310.491 195.015 311.661 194.268C311.661 194.268 311.427 195.388 308.993 194.688C306.325 193.894 295.091 187.544 294.389 188.245Z" fill="#C2C3CA"/>
<path d="M297.242 182.222C297.242 182.222 298.506 180.915 302.016 181.802C305.527 182.689 313.203 185.724 314.654 185.07C314.654 185.07 315.45 186.377 312.033 185.677C308.616 184.93 297.991 181.755 297.242 182.222Z" fill="white"/>
<path d="M294.249 175.265C294.249 175.265 292.096 172.697 293.453 170.783C294.81 168.869 303.469 164.947 301.363 161.539C301.363 161.539 305.388 162.706 301.55 166.861C297.712 171.017 294.436 170.316 294.249 175.265Z" fill="white"/>
<path d="M241.873 123.3C241.873 123.3 237.801 130.07 244.775 139.315C251.749 148.559 275.48 166.534 278.101 171.764C280.722 177.04 281.752 188.338 287.93 185.257C294.109 182.175 285.45 170.456 293.407 165.974C293.407 165.974 284.373 170.737 282.922 169.523C281.471 168.309 276.556 165.601 269.395 155.236C262.234 144.871 249.034 128.062 241.873 123.3Z" fill="white"/>
<path d="M135.529 147.579C135.529 147.579 124.67 147.532 120.176 147.065C115.73 146.598 125.933 152.808 117.555 161.305C109.177 169.803 92.9351 176.246 88.6758 189.132C88.6758 189.132 118.491 167.422 121.253 164.807C124.061 162.239 132.018 155.049 135.529 147.579Z" fill="#534C75"/>
<path d="M114.7 147.578C114.7 147.578 120.363 152.154 114.7 158.037C109.036 163.92 93.0285 174.985 85.8672 175.125C85.914 175.125 111.236 149.446 114.7 147.578Z" fill="#F90069"/>
<path d="M71.3574 164.9C71.3574 164.9 72.2467 168.262 74.6806 172.137C77.1145 176.012 76.9273 178.347 75.7571 179.374C75.7571 179.421 67.1917 167.001 71.3574 164.9Z" fill="#F90069"/>
<path d="M63.4007 191.373C63.4007 191.373 62.8858 190.72 64.8517 189.132C66.8175 187.545 74.7278 181.288 74.7278 181.288C74.7278 181.288 71.0301 185.864 68.3153 188.198C65.6474 190.533 63.4007 191.373 63.4007 191.373Z" fill="#F90069"/>
<path d="M72.4804 189.226C72.4804 189.226 68.3615 192.167 66.9573 193.101C65.5531 194.035 60.2641 196.416 61.2002 199.077C61.2002 199.077 62.2767 197.443 64.851 195.809C67.3785 194.175 74.025 190.299 72.4804 189.226Z" fill="#F90069"/>
<path d="M71.9204 194.968C71.9204 194.968 62.0911 207.388 64.6186 209.162C64.6186 209.162 68.2227 202.532 70.1885 199.124C72.1544 195.715 72.7161 195.342 71.9204 194.968Z" fill="#F90069"/>
<path d="M75.0067 199.637C75.0067 199.637 70.3729 209.956 72.3855 210.656C72.3855 210.656 73.4621 206.641 74.445 204.4C75.4279 202.158 76.0364 199.917 75.0067 199.637Z" fill="#F90069"/>
<path d="M154.672 87.3025C154.672 87.3025 162.02 115.129 175.313 83.0071C175.313 83.0071 165.11 122.46 154.672 87.3025Z" fill="#534C75"/>
<path d="M181.445 86.7888C181.445 86.7888 194.691 87.3024 200.635 96.7337C206.579 106.165 196.282 94.4459 189.87 92.4382C183.457 90.4306 192.631 99.0681 203.537 104.951C214.396 110.881 179.619 99.3483 181.445 86.7888Z" fill="white"/>
<path d="M228.905 134.506C228.905 134.506 232.837 125.775 241.87 123.3C241.87 123.3 234.522 122.039 228.905 128.903C223.288 135.766 224.552 122.039 235.411 117.23C235.411 117.23 226.19 117.557 219.965 128.623L228.905 134.506Z" fill="#534C75"/>
<path d="M241.871 123.3C241.871 123.3 235.084 123.487 236.254 119.378C237.424 115.269 235.318 113.402 224.318 118.117C213.319 122.88 231.246 110.741 228.671 105.371C226.097 100.002 216.361 104.578 212.991 102.71C209.621 100.842 216.829 83.007 204.426 78.7583C204.473 78.7583 230.778 84.1276 241.871 123.3Z" fill="white"/>
<path d="M215.193 149.259C215.193 149.259 199.841 141.836 194.505 134.505C189.169 127.175 201.338 126.755 207.096 127.595C212.853 128.436 208.781 111.674 194.926 106.585C181.071 101.449 181.493 105.978 162.957 106.585C144.422 107.192 147.184 129.51 177.467 158.877C207.751 188.245 169.37 143.703 170.868 131.517C172.365 119.331 185.799 156.963 207.33 162.893C228.86 168.822 195.862 158.691 185.612 134.505C185.612 134.505 202.415 150.567 215.193 149.259Z" fill="#534C75"/>
<path d="M224.041 157.383C224.041 157.383 214.399 161.632 212.667 155.983C210.982 150.286 220.671 158.737 220.671 149.446C220.671 140.155 198.344 138.334 204.476 133.852C210.608 129.37 222.871 137.073 222.871 137.073C222.871 137.073 224.743 150.94 224.041 157.383Z" fill="#534C75"/>
<path d="M149.148 94.2124C149.148 94.2124 140.302 101.636 137.447 109.2C134.592 116.763 142.83 100.282 147.417 101.916C152.004 103.55 146.293 107.332 146.293 113.775C146.293 113.775 150.88 103.037 158.65 104.157C166.42 105.278 151.067 101.122 149.148 94.2124Z" fill="#F90069"/>
<path d="M119.285 138.521C119.285 138.521 126.212 147.438 135.527 147.578C135.527 147.578 122.842 143.143 123.498 137.167C124.153 131.19 128.74 135.252 131.876 130.677C135.012 126.101 126.212 118.351 127.383 114.569C128.553 110.787 134.404 117.23 134.404 117.23C134.404 117.23 133.421 112.234 128.319 107.099C128.319 107.099 123.31 115.083 119.285 138.521Z" fill="#F90069"/>
<path d="M145.45 130.023C145.45 130.023 139.833 123.72 137.914 118.818C137.914 118.818 151.02 130.677 154.671 138.24C158.321 145.804 159.445 150.847 164.968 155.469C170.491 160.044 173.768 175.312 173.768 175.312C173.768 175.312 169.976 165.414 165.717 161.305C161.457 157.196 156.683 148.979 154.624 143.796C152.611 138.567 148.82 134.505 145.45 130.023Z" fill="#F90069"/>
<path d="M147.51 44.5349C147.51 44.5349 146.527 42.2939 147.323 38.6988C148.118 35.1504 163.003 26.793 163.003 26.793L170.164 32.0689C170.164 32.0689 178.168 42.0604 177.84 45.7956C177.559 49.0171 154.203 50.4178 154.203 50.4178L147.51 44.5349Z" fill="#140823"/>
<path d="M138.57 20.8634C138.57 20.8634 153.876 10.0781 167.777 20.6299C184.534 33.3295 144.702 23.3379 144.702 23.3379C144.702 23.3379 142.97 19.416 138.57 20.8634Z" fill="#1F1336"/>
<path d="M150.176 18.1087C150.176 18.1087 162.814 14.747 171.66 23.6647C180.507 32.6291 185.608 57.4212 185.608 57.4212L183.362 57.9348C183.362 57.9348 172.175 19.1825 149.521 32.0221C149.521 32.0688 145.121 22.6842 150.176 18.1087Z" fill="#140823"/>
<path d="M146.153 32.8625L149.523 32.0688C149.523 32.0688 148.353 22.0772 150.178 18.1086C150.178 18.1086 143.485 16.5212 138.57 20.8633C138.57 20.8633 144.936 27.6333 146.153 32.8625Z" fill="#C2C3CA"/>
<path d="M144.517 40.146C144.517 40.146 148.496 63.6308 150.508 76.9839L147.185 73.0153C147.185 73.0153 147.279 65.1248 146.296 62.5569C145.313 60.0357 142.598 58.6817 142.598 58.6817C142.598 58.6817 142.926 61.7632 143.675 63.1639C144.423 64.5646 146.436 66.4788 146.342 67.6461C146.249 68.86 146.202 80.2989 148.636 87.2089C148.636 87.2089 142.692 72.0349 142.317 69.0001C141.989 65.9186 140.164 46.6358 140.164 46.6358C140.164 46.6358 141.475 45.5153 142.036 44.6282C142.598 43.7411 143.394 40.4261 144.517 40.146Z" fill="#F90069"/>
<path d="M144.516 40.146C144.516 40.146 147.979 42.2937 149.196 43.9745C149.196 43.9745 154.345 42.3871 157.855 43.8811C161.366 45.3752 169.089 49.5306 177.701 44.3014C177.701 44.3014 179.152 47.1027 179.246 49.0637C179.246 49.0637 175.642 51.725 176.11 57.1409C176.578 62.5569 177.467 67.8795 177.467 67.8795L159.447 87.3023L154.532 67.3659C154.532 67.3659 166.514 64.5179 165.204 55.787L150.881 61.9033C150.881 61.9033 151.864 71.1478 153.643 73.4822L150.507 76.984L144.516 40.146Z" fill="white"/>
<path d="M149.523 32.0688C149.523 32.0688 147.37 22.9643 150.178 18.1086C150.178 18.1086 152.94 22.6375 156.731 23.7581C160.523 24.8786 169.556 25.9992 174.892 34.6834C174.892 34.6834 180.134 42.9941 183.364 57.9814C183.364 57.9814 174.705 16.5679 149.523 32.0688Z" fill="#F90069"/>
<path d="M150.742 37.8582C150.742 37.8582 153.363 33.1892 159.214 31.8352C165.065 30.4812 169.043 32.3955 169.043 32.3955L167.686 30.8081L162.163 28.707L157.342 28.8471L151.304 31.2749L149.806 33.1892L148.355 32.9558L148.121 35.1502L149.759 37.7648L150.742 37.8582Z" fill="#140823"/>
<path d="M172.785 33.1893C171.006 30.9949 168.525 29.3608 165.764 28.5204C164.36 28.1469 162.955 27.9601 161.504 28.0068C160.1 28.0535 158.696 28.2403 157.292 28.5671C156.262 28.8472 155.279 29.1274 154.343 29.5476C152.705 30.2012 151.207 31.0416 149.803 32.1155L145.824 33.0493L146.105 34.2632L147.182 34.0297C148.024 37.6715 147.275 38.5586 147.275 38.5586L147.416 39.1656L149.241 38.7454L151.067 38.3252L150.926 37.7182C150.926 37.7182 149.85 37.2513 148.96 33.6095L150.037 33.3761C150.037 33.3761 157.853 28.6605 163.657 29.4542C163.891 29.5009 164.125 29.5476 164.36 29.5942C164.406 29.5942 164.406 29.5942 164.453 29.5942C164.781 29.6409 165.062 29.7343 165.342 29.8277C166.606 30.2012 167.823 30.7148 168.946 31.4151C169.227 31.6019 169.508 31.742 169.789 31.9754L170.585 32.5824C170.866 32.7691 171.053 33.0493 171.334 33.236L171.708 33.5628L172.036 33.9364C173.908 35.8506 175.359 38.1851 176.669 40.6129C175.874 37.905 174.563 35.3837 172.785 33.1893Z" fill="#4A4267"/>
</svg>
