<svg width="375" height="375" viewBox="0 0 375 375" fill="none" xmlns="http://www.w3.org/2000/svg">
<path d="M146.054 92.3092C146.054 92.3092 141.654 91.0953 137.067 78.2557C132.48 65.4161 129.016 39.4101 148.488 33.1071C167.959 26.804 180.129 41.3711 182.048 49.8686C183.967 58.366 186.916 76.2948 194.217 77.0418C201.519 77.7888 238.964 89.4145 251.367 111.265C263.771 133.116 280.06 178.218 285.91 188.163C291.761 198.107 298.08 216.55 298.314 228.222C298.548 239.894 300.748 256.376 303.416 261.698C306.084 267.021 314.93 288.218 314.93 292.607C314.93 296.996 314.93 312.963 314.93 312.963C314.93 312.963 310.25 315.018 310.25 298.21C310.25 298.21 307.488 305.633 307.628 313.057C307.628 313.057 300.654 314.504 304.212 296.996C304.212 296.996 300.795 296.856 298.314 310.676C298.314 310.676 293.399 310.536 299.016 294.428C299.016 294.428 293.54 284.576 293.54 278.974C293.54 273.371 293.399 268.562 292.604 266.554C291.761 264.5 277.532 239.194 274.396 230.743C271.26 222.246 255.065 183.167 242.849 179.899C242.849 179.899 239.666 233.638 237.092 247.505C237.092 247.505 258.81 322.348 256.516 330.705C256.516 330.705 261.431 349.755 266.065 356.992H230.164L222.067 345.459C222.067 345.459 205.872 346.907 200.349 342.845C194.826 338.783 180.924 305.587 180.924 305.587C180.924 305.587 133.416 349.194 126.489 350.922C126.489 350.922 81.3209 343.685 81.3209 342.238C81.3209 340.79 90.8694 322.021 93.7714 317.679C93.7714 317.679 95.7839 303.812 89.4183 302.365C89.4183 302.365 83.0527 323.935 79.2146 323.795C75.3765 323.655 83.0528 302.085 81.8358 301.151C80.6189 300.217 70.6959 320.107 66.0621 317.959C61.4283 315.811 71.9128 303.159 72.5681 299.61C73.1765 296.062 62.3643 315.158 59.4624 312.683C56.5604 310.209 70.8832 291.253 70.8832 291.253C70.8832 291.253 63.9559 291.72 62.4113 287.704C62.4113 287.704 81.4146 284.623 82.8188 282.148C84.223 279.674 91.9459 275.519 92.0863 273.511C92.2267 271.503 108.328 214.776 111.136 206.512C113.992 198.248 123.166 185.781 123.166 184.101L116.8 181.766C116.8 181.766 122.697 160.569 122.697 153.706C122.697 146.842 114.694 114.393 146.054 92.3092Z" fill="#140823"/>
<path d="M192.766 83.5317C192.766 83.5317 147.739 83.5317 149.424 114.16C151.109 144.788 152.747 111.499 168.099 104.822C183.452 98.1455 161.781 114.16 158.738 135.777C155.743 157.394 174.184 124.151 186.962 133.443C199.74 142.781 175.401 200.629 158.738 214.636C142.075 228.596 184.107 196.987 202.783 166.732C221.458 136.477 189.115 220.612 153.402 228.596C117.736 236.58 175.074 233.591 173.061 249.232C171.048 264.873 150.36 250.913 140.062 257.216C140.062 257.216 166.414 270.85 198.102 251.567C229.79 232.284 238.636 235.366 238.636 235.366C238.636 235.366 236.436 222.293 220.429 218.324C204.421 214.355 222.114 193.018 228.76 178.405C235.407 163.791 229.135 138.485 238.636 149.784C248.138 161.083 245.096 150.438 240.789 137.458C236.483 124.478 246.781 121.49 250.478 130.455C254.176 139.419 258.997 125.365 251.414 111.265C243.785 97.165 210.272 81.1505 192.766 83.5317Z" fill="#534C75"/>
<path d="M260.309 129.054L284.133 184.661C284.133 184.661 296.583 204.644 298.221 225.328C298.221 225.328 291.154 199.835 283.571 191.384C275.942 182.934 270.044 177.471 269.202 167.759C268.312 158.048 260.309 129.054 260.309 129.054Z" fill="white"/>
<path d="M304.728 264.36C304.728 264.36 313.95 282.335 314.979 292.607C316.009 302.832 314.979 312.964 314.979 312.964C314.979 312.964 312.311 311.143 312.779 303.439C313.247 295.735 313.809 293.261 311.89 289.339C309.924 285.37 302.997 268.982 304.728 264.36Z" fill="white"/>
<path d="M310.298 298.21C310.298 298.21 307.724 306.614 307.677 313.057C307.724 313.057 303.746 307.641 310.298 298.21Z" fill="white"/>
<path d="M304.26 296.949C304.26 296.949 300.282 300.311 298.363 310.629C298.363 310.629 296.819 299.424 304.26 296.949Z" fill="white"/>
<path d="M242.848 179.805C242.848 179.805 256.936 173.315 264.004 162.764C264.004 162.764 250.337 174.763 248.418 168.693C246.499 162.624 251.647 158.141 251.647 153.799C251.647 149.457 244.205 158.888 242.848 179.805Z" fill="#534C75"/>
<path d="M237.093 247.412C237.093 247.412 228.34 256.376 213.316 258.197C198.291 260.018 236.017 260.251 237.093 271.363C238.17 282.475 227.311 282.055 229.651 296.996C231.991 311.936 249.075 298.07 246.22 310.676C243.365 323.282 247.25 340.09 236.625 343.965C236.625 343.965 251.79 337.195 256.518 330.659C256.518 330.659 257.173 329.165 256.143 323.235C255.114 317.259 245.612 261.652 237.093 247.412Z" fill="white"/>
<path d="M193.609 266.087C193.609 266.087 233.348 260.952 229.229 276.126C225.11 291.3 215.796 301.385 224.314 309.368C232.833 317.352 242.381 306.287 241.867 317.072C241.352 327.904 236.624 343.965 202.596 343.919C202.596 343.919 231.335 332.013 217.761 320.154C204.188 308.295 194.92 292.327 199.788 284.856C204.703 277.433 193.609 266.087 193.609 266.087Z" fill="#534C75"/>
<path d="M129.859 263.006C129.859 263.006 104.303 290.833 100.418 307.548C100.418 307.548 112.026 299.424 122.089 312.964C122.089 312.964 116.566 304.84 116.66 291.813C116.753 278.787 140.016 280.374 145.024 286.444C149.986 292.56 148.722 259.924 129.859 263.006Z" fill="#F90069"/>
<path d="M93.7241 317.586C93.7241 317.586 82.35 335.001 81.2734 342.145L102.43 346.767C102.43 346.767 94.9411 346.767 96.6262 338.036C98.3112 329.305 100.745 318.613 93.7241 317.586Z" fill="#F90069"/>
<path d="M184.293 279.02C184.293 279.02 168.707 276.406 161.873 270.476C155.039 264.547 156.162 273.744 163.417 279.02C170.672 284.296 158.128 281.868 153.541 276.406C148.907 270.943 149.423 277.293 156.771 284.716C164.073 292.187 145.631 289.339 129.811 287.891C113.99 286.444 144.508 293.494 146.286 300.918C148.065 308.341 140.342 316.278 128.032 324.169C115.722 332.059 119.045 343.965 119.045 343.965C119.045 343.965 161.358 321.788 153.12 315.391C144.882 308.995 157.941 303.906 164.307 304.653C170.672 305.353 185.603 301.618 174.417 297.463C163.183 293.261 184.293 279.02 184.293 279.02Z" fill="#534C75"/>
<path d="M62.3633 287.658L75.5625 284.997C75.5625 284.95 66.5758 291.626 62.3633 287.658Z" fill="#F90069"/>
<path d="M59.4173 312.59C59.4173 312.59 57.2641 311.236 62.7402 303.019L66.2973 297.509C66.3441 297.509 60.4469 311.423 59.4173 312.59Z" fill="#F90069"/>
<path d="M66.0641 317.866C66.0641 317.866 61.9451 316.652 68.3575 307.408C74.77 298.116 66.3449 311.189 66.0641 317.866Z" fill="#F90069"/>
<path d="M79.1654 323.702C79.1654 323.702 76.3101 323.702 79.8206 311.329C83.3312 298.957 78.1824 321.274 79.1654 323.702Z" fill="#F90069"/>
<path d="M82.7266 282.102C82.7266 282.102 96.2068 284.483 97.2833 277.993C98.3598 271.503 94.709 267.908 97.2833 261.138C99.8576 254.368 111.091 233.031 112.168 221.966C113.244 210.9 123.12 184.101 123.12 184.101C123.12 184.101 108.657 203.617 104.632 225.281C100.606 246.945 92.1346 268.282 82.7266 282.102Z" fill="#F90069"/>
<path d="M140.063 106.036C135.242 122.984 146.382 122.518 136.225 134.797C126.068 147.076 130.421 158.935 126.77 171.541C123.12 184.148 125.6 184.148 125.6 184.148L116.754 181.813C116.754 181.813 122.792 158.142 123.119 151.792C123.447 145.442 109.639 120.416 146.054 92.4028" fill="#F90069"/>
<path d="M192.766 76.6216C192.766 76.6216 234.517 83.7651 246.546 104.542C246.546 104.542 208.305 77.1819 192.766 76.6216Z" fill="white"/>
<path d="M256.516 330.612C256.516 330.612 261.243 352.136 266.064 356.898H251.133C251.133 356.898 259.745 343.405 256.516 330.612Z" fill="white"/>
<path d="M141.654 191.945C141.654 191.945 141.654 214.869 127.003 239.895C112.353 264.92 108.187 278.834 106.081 284.997C103.975 291.16 97.3287 298.116 100.371 307.594C100.371 307.594 92.9757 306.941 97.7499 292.047C102.524 277.153 113.898 262.539 116.706 252.734C119.561 242.883 132.714 193.719 141.654 191.945Z" fill="#534C75"/>
<path d="M269.761 182.934C269.761 182.934 286.19 198.855 290.168 211.508C294.147 224.16 299.436 257.076 301.261 264.36C303.086 271.643 292.04 260.671 290.168 245.684C288.296 230.697 255.438 184.614 269.761 182.934Z" fill="#534C75"/>
<path d="M125.598 184.101C125.598 184.101 142.775 193.439 155.694 184.101C168.565 174.763 145.584 187.462 125.598 184.101Z" fill="#534C75"/>
<path d="M84.2235 342.798C84.2235 342.798 83.4746 349.895 84.2235 356.898H121.856L124.009 349.848L84.2235 342.798Z" fill="#140823"/>
<path d="M185.934 125.085L183.5 111.686H226.234C226.234 111.686 219.728 169.347 201.801 205.905H190.802C190.802 205.905 211.584 149.877 211.584 126.299L185.934 125.085Z" fill="#140823"/>
<path d="M171.565 60.3737C171.565 60.3737 153.919 68.591 145.26 60.6071C136.601 52.6232 140.907 46.9271 134.542 48.6546C128.176 50.3821 137.49 94.5503 137.49 94.5503L160.191 79.6564C160.191 79.6564 164.17 67.7039 172.454 65.1827L171.565 60.3737Z" fill="#4A4267"/>
<path d="M134.584 48.6548C134.584 48.6548 135.708 70.1319 140.061 75.688C144.414 81.244 147.831 84.1854 146.052 88.9478L137.533 94.5505C137.533 94.5505 126.159 51.6896 134.584 48.6548Z" fill="#F90069"/>
<path d="M176.199 58.5995C176.199 58.5995 179.148 61.3075 183.782 57.5256L186.263 66.6301C186.263 66.6301 181.067 63.8287 177.182 63.9221L176.199 58.5995Z" fill="#4A4267"/>
<path d="M173.2 82.7847C173.2 82.7847 173.388 28.3448 145.163 34.3211C145.163 34.3211 137.3 39.3635 134.632 48.5613C134.632 48.5613 129.062 35.9085 131.402 27.1309C131.402 27.1309 152.044 11.3032 165.618 31.1929C176.617 47.3474 175.915 60.0469 176.664 81.7108L173.2 82.7847Z" fill="#4A4267"/>
<path d="M176.664 81.7108C176.664 81.7108 174.745 1.03152 131.402 27.1776C131.402 27.1776 171.562 -11.9481 180.128 80.9638L176.664 81.7108Z" fill="white"/>
</svg>
