<svg width="375" height="375" viewBox="0 0 375 375" fill="none" xmlns="http://www.w3.org/2000/svg">
<path d="M186.523 258.24C267.254 258.24 332.699 254.645 332.699 250.21C332.699 245.775 267.254 242.179 186.523 242.179C105.793 242.179 40.3477 245.775 40.3477 250.21C40.3477 254.645 105.793 258.24 186.523 258.24Z" fill="#140823"/>
<path d="M357.365 131.759C351.514 132.132 353.48 142.217 351.935 147.26C350.391 152.302 338.736 155.01 332.885 155.991C327.034 156.971 316.175 167.429 316.175 167.429C318.516 149.968 306.44 137.175 287.015 139.136C267.591 141.097 266.795 173.639 266.795 173.639C247.37 172.845 216.244 183.724 216.244 183.724L179.689 189.14C176.6 185.265 166.489 182.557 166.489 182.557C154.039 157.718 115.564 144.925 106.999 139.136C98.4333 133.299 102.318 122.841 93.7997 122.841C85.281 122.841 82.8937 139.509 82.8937 139.509C76.6685 150.388 82.5194 150.388 92.6295 151.182C102.74 152.022 112.475 163.554 112.475 163.554C98.8547 162.387 98.8546 177.888 98.8546 177.888C97.31 172.845 64.6394 149.968 60.7545 144.131C56.8696 138.295 62.2991 129.798 54.1548 125.502C46.0105 121.254 30.0497 131.339 30.0497 131.339C7.86356 132.506 0.09375 145.672 0.09375 145.672C6.31896 157.718 30.4241 149.547 43.6234 157.298C56.8228 165.048 79.8046 213.138 82.5194 219.348C85.2341 225.558 109.761 232.141 110.884 236.016C112.054 239.891 113.973 244.56 115.565 244.56C117.156 244.56 178.94 246.895 186.616 248.062C194.292 249.229 245.077 251.564 263.331 248.062C281.586 244.56 299.887 205.761 304.567 203.847C309.248 201.886 315.473 187.179 320.903 187.553C326.332 187.926 360.548 156.924 364.432 153.049C368.317 149.174 371.454 149.968 372.998 141.003C374.449 132.132 363.169 131.385 357.365 131.759ZM107.561 200.065C103.91 198.992 103.722 188.58 103.722 188.58C108.637 190.494 114.816 188.813 119.73 188.58C124.645 188.346 140.886 200.065 140.886 200.065C140.886 200.065 111.165 201.139 107.561 200.065Z" fill="#140823"/>
<path d="M266.747 173.639C266.747 173.639 265.577 219.955 282.848 215.986C282.848 215.986 261.926 226.118 261.926 173.639H266.747Z" fill="#F90069"/>
<path d="M320.809 187.599C320.809 187.599 323.196 179.195 322.025 172.705C322.025 172.705 325.583 178.308 326.144 183.117C326.753 187.973 332.604 179.102 334.85 173.592C337.05 168.13 340.42 174.246 340.42 174.246C340.42 174.246 333.446 183.677 320.809 187.599Z" fill="white"/>
<path d="M232.955 216.78C232.955 216.78 209.178 205.014 197.149 210.244C185.073 215.473 180.954 224.25 180.392 227.472C179.83 230.694 176.601 225.698 191.391 223.177C206.135 220.655 204.871 221.542 207.399 229.993C209.927 238.444 236.372 227.986 232.955 216.78Z" fill="#534C75"/>
<path d="M181.891 247.689C181.891 247.689 185.261 230.553 194.435 230.18C203.609 229.806 196.073 236.903 205.247 238.911C214.421 240.919 244.751 238.117 251.538 249.416C251.538 249.416 212.689 252.031 181.891 247.689Z" fill="white"/>
<path d="M299.327 210.15C299.327 210.15 282.851 226.585 266.844 225.511C250.836 224.437 272.414 229.48 266.844 238.257C261.274 247.035 252.427 237.37 244.33 238.257C236.232 239.144 258.278 240.732 258.325 248.856C258.325 248.856 271.01 251.237 282.852 234.149C294.74 217.013 299.327 210.15 299.327 210.15Z" fill="white"/>
<path d="M225.98 180.643C225.98 180.643 237.822 189.047 237.448 204.874C237.074 220.702 246.107 187.086 243.767 182.977C241.426 178.868 254.766 182.79 254.392 191.428C254.017 200.065 261.927 173.686 261.927 173.686C261.927 173.686 237.214 174.386 225.98 180.643Z" fill="#F90069"/>
<path d="M216.199 183.724C216.199 183.724 200.706 182.79 196.915 186.572C193.123 190.354 199.442 206.835 199.442 206.835C199.442 206.835 198.787 191.381 202.438 189.887C206.088 188.393 204.263 206.322 209.599 207.816C214.935 209.31 204.45 195.63 209.599 191.334C214.748 187.039 220.411 195.35 226.028 194.509C231.598 193.715 226.496 181.203 216.199 183.724Z" fill="#F90069"/>
<path d="M166.441 182.557C166.441 182.557 151.463 180.409 142.523 180.269C133.583 180.129 124.503 175.227 124.503 175.227C124.503 175.227 126.282 161.92 116.687 167.103C116.687 167.103 115.423 163.507 112.427 163.507C109.432 163.507 103.206 162.34 100.117 171.211C100.117 171.211 105.313 164.021 111.678 166.916C117.997 169.857 114.908 170.604 118.652 172.985C122.35 175.413 139.341 192.175 166.441 182.557Z" fill="#F90069"/>
<path d="M199.443 206.835C199.443 206.835 170.143 212.204 161.53 210.244C152.918 208.283 131.809 193.996 131.809 193.996C131.809 193.996 153.386 200.859 163.964 203.1C174.543 205.388 199.443 206.835 199.443 206.835Z" fill="#534C75"/>
<path d="M105.967 198.758C105.967 198.758 104.984 184.611 98.8055 177.935C92.5802 171.211 102.691 193.902 105.967 198.758Z" fill="#534C75"/>
<path d="M115.516 244.607C115.516 244.607 118.558 225.698 127.638 222.056C136.719 218.414 131.991 238.444 140.884 240.172C149.731 241.899 176.691 236.903 178.563 232.188C178.563 232.188 173.321 238.491 173.368 247.128L115.516 244.607Z" fill="#534C75"/>
<path d="M75.0767 204.174C75.0767 204.174 78.4935 196.003 100.118 191.801C100.118 191.801 88.0886 189.42 79.1487 194.556C70.2088 199.692 81.4891 188.066 97.4967 185.498C97.4967 185.498 87.1525 181.763 74.1872 188.533C74.1872 188.533 76.2936 179.008 66.0899 170.885C55.8862 162.807 39.5508 155.524 39.5508 155.524C39.5508 155.524 58.5542 169.11 75.0767 204.174Z" fill="#F90069"/>
<path d="M59.7251 142.264C59.7251 142.264 43.1088 133.44 40.0664 149.081C40.0664 149.081 52.8913 139.649 63.6567 147.353" fill="#534C75"/>
<path d="M0 145.719C0 145.719 3.0425 137.221 12.9654 133.813C22.8884 130.405 32.1091 128.724 40.7215 125.082C49.3338 121.44 56.4484 123.028 58.0398 129.611C58.0398 129.611 49.5212 124.288 37.5856 130.965C25.65 137.642 16.5228 135.681 9.96988 140.91C3.417 146.092 0 145.719 0 145.719Z" fill="#F90069"/>
<path d="M104.612 137.128C104.612 137.128 94.8298 139.042 94.3618 147.446C94.3618 147.446 92.9107 139.229 98.5275 134.42C104.144 129.611 92.5363 120.693 87.9961 125.922C87.9961 125.922 92.7703 119.106 98.2935 123.121C103.817 127.136 102.272 135.12 104.612 137.128Z" fill="#F90069"/>
<path d="M104.613 137.128C104.613 137.128 122.493 153.843 131.808 160.846C141.122 167.803 166.444 182.603 166.444 182.603C166.444 182.603 159.423 167.056 146.411 159.866C133.352 152.676 104.613 137.128 104.613 137.128Z" fill="#534C75"/>
<path d="M82.33 149.594C82.33 149.594 77.6023 148.38 80.0363 142.871C82.4702 137.361 85.9809 130.498 86.2617 128.537C86.5426 126.576 86.8703 135.914 84.2023 140.303C81.5343 144.645 82.33 149.594 82.33 149.594Z" fill="#F90069"/>
<path d="M75.0781 204.174C75.0781 204.174 89.2603 205.108 94.877 211.691C100.494 218.274 105.128 232.374 110.838 236.11C110.838 236.11 85.7497 225.138 83.0818 221.636C80.4138 218.088 75.0781 204.174 75.0781 204.174Z" fill="#534C75"/>
<path d="M356.101 132.039C356.101 132.039 353.246 131.385 352.778 140.023C352.31 148.66 349.502 150.761 346.927 151.882C344.353 153.002 331.434 154.45 323.758 160.94C316.082 167.429 316.082 167.429 316.082 167.429C316.082 167.429 322.869 169.997 330.451 164.441C338.034 158.885 350.251 158.512 352.123 153.609C353.995 148.707 359.191 135.541 356.101 132.039Z" fill="#534C75"/>
<path d="M369.019 133.393C369.019 133.393 373.653 139.649 369.019 146.372C364.385 153.096 342.152 165.655 336.629 177.374C336.629 177.374 360.594 158.278 364.432 154.17C368.223 150.014 381.844 140.957 369.019 133.393Z" fill="white"/>
<path d="M307.841 152.442C307.841 152.442 308.543 149.314 306.671 144.925C304.799 140.536 283.689 133.486 283.689 133.486L275.826 141.937C275.826 141.937 268.009 156.691 269.32 161.36C270.443 165.422 300.727 161.593 300.727 161.593L307.841 152.442Z" fill="#140823"/>
<path d="M313.553 119.993C313.553 119.993 291.367 109.908 276.109 126.763C257.761 147.073 306.345 124.662 306.345 124.662C306.345 124.662 307.562 119.199 313.553 119.993Z" fill="#1F1336"/>
<path d="M298.014 119.293C298.014 119.293 281.023 118.032 271.896 131.619C262.769 145.205 262.254 178.215 262.254 178.215L265.249 178.355C265.249 178.355 270.117 126.063 302.226 136.988C302.226 136.988 305.596 123.868 298.014 119.293Z" fill="#140823"/>
<path d="M306.722 137.175L302.228 136.988C302.228 136.988 301.292 123.915 298.016 119.293C298.016 119.293 306.207 115.651 313.555 119.993C313.555 119.993 307.049 130.171 306.722 137.175Z" fill="#C2C3CA"/>
<path d="M310.605 146.092C310.605 146.092 311.214 177.141 311.916 194.696L315.193 188.86C315.193 188.86 313.133 178.775 313.788 175.273C314.444 171.818 317.579 169.437 317.579 169.437C317.579 169.437 317.907 173.452 317.299 175.413C316.69 177.374 314.584 180.316 315.005 181.81C315.426 183.35 318.282 197.964 316.831 207.395C316.831 207.395 320.762 186.572 320.481 182.557C320.201 178.541 317.767 153.423 317.767 153.423C317.767 153.423 315.801 152.349 314.865 151.275C313.929 150.248 312.103 146.186 310.605 146.092Z" fill="white"/>
<path d="M310.605 146.092C310.605 146.092 306.674 149.687 305.55 152.115C305.55 152.115 298.576 151.322 294.41 154.123C290.245 156.924 281.398 164.021 269.088 159.492C269.088 159.492 267.918 163.461 268.293 165.982C268.293 165.982 273.535 168.503 274.237 175.553C274.939 182.603 275.126 189.607 275.126 189.607L302.929 210.057L304.38 183.35C304.38 183.35 288.372 182.65 287.904 171.118L307.75 175.507C307.75 175.507 308.686 187.552 307.048 191.008L311.916 194.743L310.605 146.092Z" fill="#F90069"/>
<path d="M302.228 136.988C302.228 136.988 302.743 124.802 298.016 119.292C298.016 119.292 295.582 125.736 291.042 128.07C286.455 130.405 275.174 134.046 270.494 146.466C270.494 146.466 265.813 158.372 265.298 178.355C265.251 178.355 266.188 123.214 302.228 136.988Z" fill="#F90069"/>
<path d="M302.085 144.692C302.085 144.692 297.545 139.369 289.822 138.996C282.052 138.622 277.371 142.124 277.371 142.124L278.682 139.743L285.235 135.727L291.46 134.747L299.791 136.381L302.178 138.482L304.004 137.828L304.846 140.536L303.349 144.271L302.085 144.692Z" fill="#140823"/>
<path d="M272.738 144.038C274.469 140.816 277.278 138.062 280.601 136.381C282.286 135.587 284.065 134.98 285.89 134.653C287.716 134.327 289.588 134.233 291.413 134.373C292.771 134.467 294.128 134.653 295.439 134.887C297.685 135.354 299.838 136.054 301.898 137.035L307.234 137.268L307.14 138.856L305.689 138.809C305.455 143.665 306.672 144.645 306.672 144.645L306.625 145.485L304.191 145.392L301.757 145.299L301.804 144.458C301.804 144.458 303.068 143.618 303.302 138.715L301.851 138.669C301.851 138.669 290.711 134.56 283.456 136.941C283.175 137.035 282.895 137.128 282.614 137.268C282.567 137.268 282.52 137.315 282.52 137.315C282.146 137.455 281.771 137.642 281.397 137.828C279.852 138.575 278.448 139.603 277.184 140.723C276.857 141.003 276.529 141.283 276.248 141.61L275.406 142.591C275.125 142.918 274.891 143.291 274.61 143.618L274.236 144.131L273.861 144.692C271.942 147.633 270.631 150.948 269.602 154.356C269.929 150.808 270.959 147.26 272.738 144.038Z" fill="#4A4267"/>
</svg>
