<svg width="375" height="375" viewBox="0 0 375 375" fill="none" xmlns="http://www.w3.org/2000/svg">
<path d="M186.703 109.729C188.949 109.729 191.196 109.823 193.443 109.963C189.511 102.959 181.694 89.1861 181.694 89.1861C181.694 89.1861 179.588 88.9993 178.324 88.4391C177.061 87.8788 173.925 85.0307 172.567 85.591C172.567 85.591 171.865 87.2251 171.257 89.1394C170.648 88.2056 169.852 87.1318 168.682 86.0579L168.636 85.9178C168.636 85.9178 167.231 85.5443 165.499 81.2022L166.763 80.6886L166.202 79.2879L161.474 81.1555C160.912 81.1555 160.398 81.1555 159.836 81.1555C160.444 81.0621 161.053 80.9688 161.708 80.9221L165.734 79.3346C163.3 73.1249 164.938 61.7327 164.938 61.7327C162.504 61.4526 160.257 61.8261 158.338 62.5264C150.943 64.0672 139.335 68.6427 134.935 82.1827V82.2294C134.186 84.0036 133.531 85.9178 133.203 88.0189C131.612 97.2634 135.45 111.317 138.773 121.122C140.084 120.468 141.394 119.814 142.705 119.207C142.518 118.227 142.377 117.246 142.237 116.219C142.471 117.153 142.845 118.134 143.267 118.974L186.703 109.729ZM187.779 103.193C187.779 103.193 187.873 103.38 188.013 103.66C187.92 103.52 187.826 103.38 187.732 103.286C187.779 103.24 187.779 103.193 187.779 103.193Z" stroke="#F90069" stroke-width="7" stroke-miterlimit="10" stroke-linecap="round" stroke-linejoin="round"/>
<path d="M254.384 134.008C256.818 131.3 260.188 127.331 261.592 124.577L263.137 122.802C263.137 122.802 286.165 86.8049 284.668 77.8406C283.17 68.8762 259.533 47.0256 256.584 44.2709C255.367 43.1036 254.29 41.9364 253.214 40.7225C253.495 40.0688 253.495 39.5552 253.307 39.2284C252.839 38.2479 246.099 32.1316 243.01 32.1783C243.01 32.1783 236.457 23.3073 231.87 25.0815C227.283 26.809 230.887 29.7505 228.828 31.1045C225.458 33.2522 226.019 35.8201 226.019 35.8201C225.692 38.6681 228.828 40.6758 228.828 40.6758C228.828 44.5043 230.56 44.7378 234.819 46.8388C237.955 48.4262 241.559 46.7921 243.197 45.8583C243.197 45.8583 244.227 46.8388 245.912 46.7921C248.018 48.7531 251.435 52.5816 253.307 58.0909C256.116 66.4017 263.605 80.5952 263.605 83.7234C263.605 86.8049 260.375 91.1937 254.712 93.9951C249.048 96.7965 247.269 100.065 247.269 100.065L245.538 103.1C245.116 103.753 243.431 106.274 242.495 107.021C241.419 107.909 238.517 110.663 237.066 112.531C235.615 114.398 232.76 114.772 231.449 115.285C230.138 115.799 230.092 117.573 228.5 118.087C228.5 118.087 228.5 118.087 228.453 118.087C228.407 118.087 228.36 118.134 228.266 118.18" stroke="#F90069" stroke-width="7" stroke-miterlimit="10" stroke-linecap="round" stroke-linejoin="round"/>
<path d="M187.451 315.116C242.486 315.116 287.101 270.613 287.101 215.715C287.101 160.816 242.486 116.313 187.451 116.313C132.416 116.313 87.8008 160.816 87.8008 215.715C87.8008 270.613 132.416 315.116 187.451 315.116Z" fill="#000E49"/>
<path d="M187.449 114.398C201.163 114.398 214.456 117.06 227 122.336C239.076 127.425 249.935 134.755 259.296 144.046C268.611 153.337 275.959 164.169 281.061 176.262C286.35 188.728 289.018 202.034 289.018 215.714C289.018 229.394 286.35 242.654 281.061 255.167C275.959 267.213 268.611 278.045 259.296 287.383C249.982 296.674 239.123 304.004 227 309.093C214.503 314.369 201.163 317.031 187.449 317.031C173.735 317.031 160.442 314.369 147.898 309.093C135.822 304.004 124.963 296.674 115.602 287.383C106.24 278.092 98.9387 267.26 93.8369 255.167C88.5478 242.701 85.8798 229.394 85.8798 215.714C85.8798 202.034 88.5478 188.775 93.8369 176.262C98.9387 164.216 106.287 153.384 115.602 144.046C124.916 134.708 135.775 127.425 147.898 122.336C160.442 117.106 173.735 114.398 187.449 114.398ZM187.449 109.729C128.754 109.729 81.1992 157.166 81.1992 215.714C81.1992 274.263 128.754 321.699 187.449 321.699C246.144 321.699 293.699 274.263 293.699 215.714C293.699 157.166 246.144 109.729 187.449 109.729Z" fill="#2F3F7A"/>
<path d="M187.449 119.768C200.414 119.768 213.052 122.289 224.894 127.285C236.362 132.094 246.612 139.05 255.458 147.828C264.305 156.652 271.232 166.924 276.053 178.316C281.061 190.129 283.589 202.688 283.589 215.668C283.589 228.647 281.061 241.207 276.053 253.019C271.232 264.458 264.258 274.683 255.458 283.507C246.612 292.332 236.315 299.242 224.894 304.051C213.052 309.047 200.461 311.568 187.449 311.568C174.437 311.568 161.846 309.047 150.004 304.051C138.537 299.242 128.286 292.285 119.44 283.507C110.594 274.683 103.666 264.411 98.8452 253.019C93.837 241.207 91.3094 228.647 91.3094 215.668C91.3094 202.688 93.837 190.129 98.8452 178.316C103.666 166.877 110.64 156.652 119.44 147.828C128.286 139.004 138.584 132.094 150.004 127.285C161.893 122.335 174.484 119.768 187.449 119.768ZM187.449 115.099C131.75 115.099 86.582 160.154 86.582 215.714C86.582 271.275 131.75 316.33 187.449 316.33C243.148 316.33 288.316 271.321 288.316 215.714C288.316 160.107 243.195 115.099 187.449 115.099Z" fill="white"/>
<path d="M282.278 263.571C289.58 249.191 293.699 232.943 293.699 215.714C293.699 157.166 246.144 109.729 187.449 109.729C128.754 109.729 81.1992 157.166 81.1992 215.714C81.1992 233.97 85.833 251.152 93.9773 266.186" stroke="#F90069" stroke-width="4" stroke-miterlimit="10"/>
<path d="M171.445 139.144C171.445 139.144 173.973 143.486 172.803 145.587C171.586 147.641 196.299 145.634 197.704 133.028C199.108 120.468 171.445 139.144 171.445 139.144Z" fill="#140823"/>
<path d="M197.702 133.028C197.702 133.028 196.532 119.114 195.783 115.332C195.034 111.55 185.299 99.1777 185.299 99.1777L168.074 104.5L162.41 112.344L146.684 118.507C146.684 118.507 151.598 126.911 158.479 135.035C162.644 139.984 171.116 139.284 178.137 139.564C185.111 139.844 197.843 134.942 197.702 133.028Z" fill="#140823"/>
<path d="M173.317 92.1742C173.317 92.1742 172.709 89.1861 169.385 86.0579C166.062 82.9297 144.906 85.0308 144.906 85.0308L141.348 95.4425C141.348 95.4425 140.272 111.317 143.267 114.912C145.842 117.993 170.696 102.913 170.696 102.913L173.317 92.1742Z" fill="#140823"/>
<path d="M243.806 45.8116C243.806 45.8116 246.381 48.2862 249.938 45.2513C253.495 42.2165 254.431 40.1622 253.916 39.1817C253.401 38.2012 246.708 32.0849 243.619 32.1316C240.53 32.1783 243.806 45.8116 243.806 45.8116Z" fill="#4A4267"/>
<path d="M139.243 248.07C139.243 248.07 152.302 249.751 152.77 245.829C153.238 241.907 145.608 243.915 145.608 243.915C145.608 243.915 159.697 239.106 157.45 235.884C155.204 232.663 142.66 239.713 142.66 239.713C142.66 239.713 158.246 233.97 155.344 229.161C152.442 224.352 143.315 235.231 139.243 233.737C135.124 232.289 153.097 227.2 150.055 221.597C147.013 215.995 135.826 229.955 131.286 228.181C126.792 226.406 135.592 218.703 133.579 217.115C131.567 215.528 123.75 231.682 123.75 231.682L130.209 242.421L139.243 248.07Z" fill="#F90069"/>
<path d="M247.832 100.018C247.832 100.018 249.657 96.7498 255.274 93.9485C260.891 91.1471 264.167 86.7583 264.167 83.6768C264.167 80.5953 256.678 66.355 253.87 58.0443C251.062 49.7336 244.696 45.2514 244.696 45.2514C244.696 45.2514 239.594 48.8932 235.382 46.7922C231.169 44.6911 229.39 44.4577 229.39 40.6292C229.39 40.6292 226.254 38.6215 226.582 35.7735C226.582 35.7735 226.02 33.2055 229.39 31.0578C231.45 29.7505 227.846 26.8091 232.433 25.0349C237.02 23.2607 243.573 32.1317 243.573 32.1317C243.573 32.1317 247.036 33.6258 249.47 36.0069C251.904 38.3881 254.198 41.4696 257.146 44.2242C260.095 46.9789 283.732 68.8296 285.23 77.7939C286.728 86.7583 263.699 122.756 263.699 122.756L256.959 130.413L240.624 112.624L247.832 100.018Z" fill="#686393"/>
<path d="M113.452 236.585C113.452 236.585 112.563 246.483 119.35 248.07C126.137 249.658 133.579 248.584 139.196 248.07C144.813 247.557 151.833 247.557 151.833 245.782C151.833 243.962 144.298 245.176 143.127 243.962C143.127 243.962 157.637 240.273 156.374 236.071C156.374 236.071 144.344 239.666 142.659 239.666C142.659 239.666 156.888 233.877 154.689 229.675C154.689 229.675 142.145 236.491 138.353 235.184C134.562 233.877 151.506 224.586 149.259 222.298C147.059 220.01 132.971 232.709 129.132 229.301C125.294 225.893 133.719 219.683 133.532 217.115C133.532 217.115 129.507 215.388 126.979 218.049C124.405 220.664 117.665 224.726 113.452 236.585Z" fill="#140823"/>
<path opacity="0.33" d="M252.092 101.325C252.092 101.325 255.228 97.2635 264.917 92.4545C274.606 87.5988 263.607 73.5453 261.922 66.3551C259.02 54.0758 248.535 45.8117 248.535 45.8117C248.535 45.8117 253.075 43.4306 253.169 41.9365C253.169 41.9365 282.844 70.277 282.048 78.9145C281.253 87.5521 272.64 112.391 259.16 120.421C259.16 120.421 254.199 117.293 252.092 101.325Z" fill="#C2C3CA"/>
<path d="M257.568 122.336C257.568 122.336 253.542 119.348 254.011 115.939C254.525 112.531 263.419 110.803 269.269 103.52C275.12 96.283 281.158 88.4392 282.001 78.9146L284.388 80.5487C284.388 80.5954 277.273 110.243 257.568 122.336Z" fill="#686393"/>
<path d="M129.13 313.249L127.398 316.61C127.398 316.61 136.292 327.862 160.631 325.435C184.97 323.007 160.631 325.435 160.631 325.435C160.631 325.435 137.087 321.653 129.13 313.249C121.173 304.891 129.13 313.249 129.13 313.249Z" fill="#4A4267"/>
<path d="M256.305 123.97C253.31 121.122 250.688 111.177 250.829 108.329C250.969 105.481 247.833 100.018 247.833 100.018C247.833 100.018 244.65 106.088 242.965 107.488C241.514 108.702 238.987 111.083 238.378 112.204C237.817 113.184 235.851 114.819 233.979 115.379C233.698 115.472 233.417 115.519 233.183 115.566C231.077 115.799 231.311 117.947 229.953 117.947C228.596 117.947 228.315 118.834 227.098 120.561C225.834 122.289 224.383 122.802 222.371 124.016C220.358 125.277 221.388 130.833 216.146 130.366C210.903 129.853 206.55 131.487 206.55 131.487C202.946 131.487 200.465 133.961 200.465 133.961C199.576 132.981 197.751 133.074 197.751 133.074C189.045 141.898 172.85 145.634 172.85 145.634C172.616 147.361 171.352 149.976 169.012 151.236C166.625 152.497 166.625 153.477 164.799 156.839C162.927 160.201 157.825 161.041 153.472 165.15C149.119 169.258 143.034 197.412 143.034 197.412C143.034 197.412 154.127 199.793 156.608 200.634C159.089 201.521 160.587 219.87 159.463 225.099C158.34 230.328 162.927 245.596 159.463 248.677C156 251.759 163.067 255.26 160.353 257.128C157.638 258.996 162.74 267.306 158.106 267.166C153.519 267.026 150.757 277.858 143.034 288.036C135.311 298.215 129.227 313.342 129.227 313.342C144.907 327.722 177.25 326.508 177.25 326.508C182.726 317.591 197.142 305.265 204.772 305.265C212.354 305.265 238.098 331.458 241.983 330.944C245.821 330.43 277.321 309.98 277.321 309.98C276.947 305.405 270.956 302.183 269.832 298.308C268.709 294.479 264.871 290.137 262.343 288.27C259.862 286.402 258.365 281.687 256.633 279.072C254.901 276.457 252.28 277.951 252.139 273.236C251.999 268.52 250.267 270.388 249.893 267.54C249.518 264.692 248.161 265.532 245.774 263.945C243.387 262.357 243.387 255.4 243.387 255.4C242.263 251.292 242.778 236.771 241.514 228.321C240.251 219.87 241 198.906 241 192.556C241 186.207 241 162.535 243.621 156.045C246.242 149.556 250.829 140.171 252.186 137.043C252.186 137.043 261.547 127.518 262.764 123.269C262.764 123.223 259.02 126.584 256.305 123.97Z" fill="#140823"/>
<path d="M227.895 122.476C227.895 122.476 226.678 133.821 230.189 145.494C230.189 145.494 230.891 140.965 233.372 143.299C235.899 145.634 235.946 152.777 239.925 152.637C239.925 152.637 234.589 142.272 234.823 134.989C234.823 134.989 233.138 135.829 233.091 138.49C233.044 141.152 228.036 133.401 227.895 122.476Z" fill="#4A4267"/>
<path d="M242.122 113.465C242.122 113.465 240.437 126.071 241.7 131.907C241.7 131.86 244.509 122.429 242.122 113.465Z" fill="#4A4267"/>
<path d="M249.19 119.441C249.19 119.441 246.662 130.413 249.19 133.541C249.19 133.541 251.858 123.456 249.19 119.441Z" fill="#4A4267"/>
<path d="M225.927 140.358C225.927 140.358 226.02 168.745 220.497 176.869C214.974 184.993 224.71 181.444 226.535 175.188C229.016 166.924 230.092 151.283 225.927 140.358Z" fill="#4A4267"/>
<path d="M232.385 146.007C232.385 146.007 238.377 192.37 230.653 209.925C222.93 227.48 220.356 257.595 176.218 259.93C176.218 259.93 207.906 240.273 221.199 212.68C221.199 212.68 192.038 247.09 181.367 249.004C170.695 250.918 214.365 226.126 220.169 197.692C220.169 197.692 205.191 227.2 184.409 237.425C163.627 247.697 193.817 229.721 195.783 222.251C195.783 222.251 177.341 239.76 172.005 238.079C166.67 236.351 217.641 194.704 219.982 163.049C222.322 131.44 216.097 130.273 216.097 130.273C216.097 130.273 201.821 158.8 171.584 169.025C141.347 179.297 178.511 204.089 171.444 216.508C164.376 228.928 159.555 243.635 167.044 241.907C174.533 240.18 178.418 243.168 175.422 249.191C172.427 255.167 163.861 265.626 174.159 265.205C184.456 264.785 212.071 263.478 230.7 245.969C249.329 228.461 232.385 146.007 232.385 146.007Z" fill="#534C75"/>
<path d="M249.844 267.446C249.844 267.446 224.054 285.095 205.098 283.087C205.098 283.087 217.595 285.608 235.849 281.36C254.104 277.111 249.517 297.421 218.157 290.744C218.157 290.744 258.41 297.841 253.729 305.592C249.049 313.342 254.806 324.034 254.806 324.034L277.226 309.934C277.226 309.934 277.226 306.432 275.4 304.004C273.575 301.53 270.158 298.028 268.333 293.452C266.507 288.877 262.669 289.857 260.797 286.682C258.925 283.507 259.393 279.632 256.21 277.391C253.027 275.197 252.372 274.543 252.372 271.415C252.372 268.287 249.844 267.446 249.844 267.446Z" fill="#4A4267"/>
<path d="M194.897 145.494C194.897 145.494 182.493 160.901 165.877 163.656C149.214 166.411 182.493 157.96 194.897 145.494Z" fill="#F90069"/>
<path d="M178.561 153.104C178.561 153.104 166.251 157.96 168.31 158.287C170.37 158.613 176.408 155.999 178.561 153.104Z" fill="#F90069"/>
<path d="M152.162 166.737C152.162 166.737 146.545 191.296 152.162 192.743C157.779 194.191 156.609 181.865 155.251 171.686C155.251 171.686 161.477 196.152 156.468 200.54L142.895 197.319C142.941 197.319 146.92 176.869 152.162 166.737Z" fill="#F90069"/>
<path d="M153.05 173.367C153.05 173.367 149.166 186.814 152.489 190.596C155.765 194.424 155.812 178.456 153.05 173.367Z" fill="#4A4267"/>
<path d="M211.043 187.421C211.043 187.421 168.59 236.258 170.79 238.359C172.99 240.46 207.907 195.965 211.043 187.421Z" fill="#F90069"/>
<path d="M195.785 222.298C195.785 222.298 174.816 240.32 176.922 241.067C179.075 241.861 195.691 227.62 195.785 222.298Z" fill="#F90069"/>
<path d="M197.844 231.729C197.844 231.729 178.419 246.53 179.87 249.004C179.87 249.004 193.912 237.332 197.844 231.729Z" fill="#F90069"/>
<path d="M209.685 230.422C209.685 230.422 183.989 255.167 176.266 259.929C176.266 259.929 200.792 248.724 209.685 230.422Z" fill="#F90069"/>
<path d="M214.977 188.028C214.977 188.028 189.796 222.391 181.043 231.309C172.29 240.226 193.072 222.531 199.859 215.481C206.646 208.431 194.055 228.694 193.868 229.021C193.727 229.348 193.727 229.348 193.727 229.348C193.727 229.348 226.679 197.646 214.977 188.028Z" fill="#4A4267"/>
<path d="M158.478 249.938C158.478 249.938 158.244 247.977 166.81 244.475C166.81 244.475 162.878 247.603 163.908 251.432C164.938 255.26 173.784 245.409 173.784 245.409C173.784 245.409 157.776 264.832 169.572 266.466C181.367 268.1 189.136 265.859 189.136 265.859C189.136 265.859 177.716 273.002 159.555 266.606C159.555 266.606 159.555 264.271 158.947 260.863C158.338 257.455 159.929 256.848 160.21 255.821C160.491 254.747 157.683 253.253 158.478 249.938Z" fill="#F90069"/>
<path d="M198.265 284.535C198.265 284.535 182.024 278.698 172.241 274.17C162.506 269.641 155.719 268.007 155.719 268.007C155.719 268.007 153.659 269.034 147.387 281.266C141.162 293.499 132.877 293.873 129.133 313.249C129.133 313.249 135.077 319.972 146.872 322.586C158.667 325.201 142.987 314.883 148.464 309.84C153.94 304.798 162.927 311.801 170.463 311.801C170.463 311.801 156.14 308.58 157.076 305.171C157.965 301.81 182.96 303.864 193.07 299.195C193.07 299.195 160.493 301.53 158.433 298.308C156.374 295.086 188.483 295.18 190.683 295.507C190.683 295.507 179.449 291.445 163.816 290.791C148.136 290.137 165.454 285.749 180.292 289.344C195.129 292.985 169.105 287.009 169.105 284.301C169.105 281.593 189.934 290.511 198.359 290.931C198.359 290.931 167.561 279.912 170.509 277.298C173.458 274.683 186.423 284.675 198.265 284.535Z" fill="#F90069"/>
<path d="M218.953 287.103C218.953 287.103 242.45 281.033 242.309 284.021C242.122 287.056 233.51 292.519 218.953 287.103Z" fill="#F90069"/>
<path d="M211.324 298.355C211.324 298.355 252.748 299.569 251.25 303.397C249.752 307.226 230.468 305.918 211.324 298.355Z" fill="#F90069"/>
<path d="M151.789 311.054C151.789 311.054 152.257 323.66 179.498 320.486C179.498 320.486 170.933 317.264 174.162 314.136C177.392 311.008 186.753 305.965 188.298 303.21C188.298 303.21 160.682 304.798 160.729 306.105C160.776 307.413 172.899 308.813 172.758 311.334C172.618 313.902 163.631 316.097 151.789 311.054Z" fill="#4A4267"/>
<path d="M224.525 122.709C224.525 122.709 227.38 118.601 229.018 118.087C230.703 117.574 230.703 115.799 232.014 115.286C233.324 114.772 236.179 114.399 237.63 112.531C239.081 110.663 241.937 107.909 243.06 107.022C244.136 106.135 246.196 102.96 246.196 102.96C246.196 102.96 246.43 109.356 247.553 114.912C247.553 114.912 244.511 107.862 242.124 110.71C239.737 113.558 239.035 122.989 238.941 124.484C238.847 125.978 238.145 117.62 236.039 116.5C233.933 115.379 231.92 118.881 232.997 126.865C232.997 126.865 228.878 117.293 226.584 122.383C224.291 127.472 220.078 128.546 220.078 128.546C220.078 128.546 220.219 123.69 224.525 122.709Z" fill="#686393"/>
<path d="M234.962 118.927C234.962 118.927 231.779 127.098 238.519 134.895C238.519 134.849 237.162 113.698 234.962 118.927Z" fill="#4A4267"/>
<path d="M241.841 330.897C241.841 330.897 248.955 329.263 264.401 317.964C269.316 314.369 264.401 317.964 264.401 317.964C264.401 317.964 244.555 328.469 235.101 326.835C225.646 325.201 235.101 326.835 235.101 326.835C235.101 326.835 238.237 330.85 241.841 330.897Z" fill="#F90069"/>
<path d="M165.594 61.6861C165.594 61.6861 142.331 61.546 135.638 82.136C127.587 106.928 161.147 68.5961 161.147 68.5961C161.147 68.5961 160.071 63.3669 165.594 61.6861Z" fill="#1F1336"/>
<path d="M151.833 67.1021C151.833 67.1021 136.528 72.6114 133.907 87.9722C131.286 103.333 143.689 132.28 143.689 132.28L146.357 131.253C146.357 131.253 130.209 83.8169 162.412 80.8754C162.412 80.8754 160.212 68.1759 151.833 67.1021Z" fill="#140823"/>
<path d="M160.444 66.9154C160.398 67.6157 160.398 68.3161 160.398 69.0631C159.976 68.5028 159.555 67.9892 159.134 67.4756C159.508 67.2889 159.976 67.1021 160.444 66.9154ZM164.002 61.5928C156.793 61.5928 151.832 67.1021 151.832 67.1021C156.513 69.8568 162.41 80.8755 162.41 80.8755L166.436 79.2881C164.002 73.0784 165.64 61.6862 165.64 61.6862C165.031 61.6395 164.516 61.5928 164.002 61.5928Z" fill="#C2C3CA"/>
<path d="M173.597 85.5444C173.457 85.5444 173.316 85.5444 173.223 85.5911C173.223 85.5911 185.86 112.391 193.302 127.378L193.864 121.028C193.864 121.028 188.154 113.044 187.358 109.73C186.562 106.415 188.388 103.193 188.388 103.193C188.388 103.193 190.213 106.555 190.494 108.516C190.728 110.477 190.026 113.838 191.009 114.959C191.992 116.126 200.183 127.752 202.617 136.529C202.617 136.529 197.936 116.873 196.064 113.465C194.239 110.103 182.35 89.1395 182.35 89.1395C182.35 89.1395 180.244 88.9528 178.98 88.3925C177.856 87.9723 175.095 85.5444 173.597 85.5444Z" fill="#C2C3CA"/>
<path d="M173.224 85.5911C173.224 85.5911 171.211 90.2133 171.211 92.7812C171.211 92.7812 164.799 94.7889 162.318 98.8509C159.791 102.913 154.876 112.531 142.379 113.371C142.379 113.371 142.894 117.246 144.204 119.301C144.204 119.301 149.774 119.441 153.097 125.324C156.421 131.207 159.323 137.23 159.323 137.23L191.525 144.28L182.398 120.468C182.398 120.468 168.169 126.071 163.254 116.219L182.258 112.344C182.258 112.344 187.781 122.476 187.687 126.117L193.351 127.471L173.224 85.5911Z" fill="white"/>
<path d="M162.41 80.8754C162.41 80.8754 158.104 70.0435 151.832 67.1021C151.832 67.1021 152.253 73.6386 149.164 77.4671C146.122 81.2956 137.696 88.8126 138.445 101.465C138.445 101.465 139.007 113.651 146.356 131.253C146.309 131.253 125.667 82.8831 162.41 80.8754Z" fill="#F90069"/>
<path d="M165.268 87.6921C165.268 87.6921 159.276 84.7973 152.349 87.5053C145.469 90.2133 142.707 95.069 142.707 95.069L142.941 92.5011L147.06 86.4315L152.068 83.1632L159.978 81.3423L162.88 82.2294L164.191 80.9221L165.97 82.9765L166.11 86.805L165.268 87.6921Z" fill="#140823"/>
<path d="M139.474 98.4774C139.755 94.9757 141.113 91.5207 143.359 88.766C144.53 87.412 145.84 86.1981 147.291 85.2176C148.742 84.2372 150.333 83.4434 151.972 82.8365C153.189 82.3696 154.406 81.9961 155.669 81.7626C157.776 81.2957 159.976 81.0623 162.129 81.1557L166.856 79.2881L167.418 80.6888L166.154 81.2024C167.886 85.5445 169.29 85.918 169.29 85.918L169.571 86.665L167.371 87.5054L165.171 88.3458L164.89 87.5988C164.89 87.5988 165.639 86.3382 163.954 82.0428L162.69 82.5563C162.69 82.5563 151.363 83.3034 145.981 88.1591C145.746 88.3458 145.559 88.5793 145.372 88.766C145.325 88.8127 145.325 88.8127 145.278 88.8594C144.998 89.1396 144.764 89.4197 144.53 89.7465C143.5 91.0071 142.657 92.4078 142.002 93.9019C141.862 94.2754 141.674 94.6489 141.534 95.0224L141.206 96.2363C141.113 96.6099 141.019 97.0301 140.925 97.4503L140.785 98.0572L140.691 98.6642C140.177 101.932 140.317 105.341 140.738 108.749C139.662 105.481 139.194 101.979 139.474 98.4774Z" fill="#4A4267"/>
<path d="M165.22 88.2525C165.22 88.2525 149.868 86.6651 145.094 101.419C145.094 101.419 145.843 87.272 164.94 87.5988" fill="#F90069"/>
<path d="M159.557 181.584C159.557 181.584 178.327 193.304 178.561 208.338C178.748 223.372 168.076 234.063 168.076 234.063C168.076 234.063 159.136 187.747 159.557 181.584Z" fill="#140823"/>
<path d="M174.627 215.434C174.627 199.046 161.287 185.74 144.859 185.74C128.43 185.74 115.09 199.046 115.09 215.434C115.09 219.823 116.026 223.979 117.758 227.714C121.315 222.344 125.106 219.823 126.885 218.002C129.085 215.761 132.314 216.695 133.204 216.975C133.344 217.022 133.438 217.069 133.438 217.069C135.45 218.656 126.651 226.36 131.144 228.134C135.638 229.908 146.824 215.948 149.914 221.551C152.113 225.613 143.408 229.348 139.897 231.682C139.382 232.149 138.914 232.616 138.54 232.99C138.493 233.27 138.633 233.503 139.148 233.643C143.267 235.091 152.348 224.212 155.249 229.068C156.7 231.496 153.471 234.157 149.867 236.211C153.05 235.044 156.326 234.297 157.356 235.791C159.602 239.013 145.514 243.822 145.514 243.822C145.514 243.822 150.616 242.468 152.207 244.148C165.126 240.927 174.627 229.301 174.627 215.434Z" fill="white"/>
<path d="M253.822 40.3957C253.822 40.3957 252.933 45.9985 246.521 46.4654C246.521 46.4654 245.351 46.8389 243.806 45.5316C243.806 45.5316 239.453 48.3329 235.942 46.8389C232.432 45.3448 229.998 44.5978 229.717 42.4501C229.717 42.4501 229.156 41.4229 229.436 40.3023C229.436 40.3023 224.99 37.2208 226.628 33.8125C228.266 30.4042 229.624 29.4704 229.858 28.3499C230.045 27.1826 229.717 24.7548 232.947 24.5213C236.177 24.2879 239.078 25.922 243.665 31.8516C243.665 31.8516 245.351 31.6181 249.376 34.6996C253.401 37.7811 254.571 37.8745 253.822 40.3957Z" fill="#140823"/>
<path d="M295.339 255.587C295.339 255.587 288.225 256.241 286.212 256.754L284.48 260.723L295.948 259.649L295.339 255.587Z" fill="#F90069"/>
<path d="M346.639 332.158C343.503 325.341 340.227 318.571 336.903 311.895C341.865 306.152 344.533 298.635 344.533 289.951C344.533 276.831 339.01 266.186 328.946 259.976C321.457 255.354 311.862 253.86 298.71 255.26C297.633 255.354 296.51 255.494 295.386 255.587C275.447 294.853 234.632 321.746 187.498 321.746C141.581 321.746 101.609 296.207 81.1547 258.575C76.8953 257.081 72.0743 256.007 66.598 255.354C59.0622 254.467 51.62 253.486 44.5055 252.412C40.1525 251.759 35.7059 252.973 32.3359 255.774C28.9191 258.529 27 262.591 27 266.886V309.467V336.827C27 341.076 28.9191 345.138 32.2891 347.939C35.0507 350.227 38.5611 351.487 42.1652 351.487C42.9141 351.487 43.7098 351.441 44.4587 351.301C53.3518 349.993 62.3854 348.779 71.2786 347.705C79.1888 346.772 86.0693 344.25 91.7797 340.329C94.12 341.729 96.8815 342.476 99.6431 342.476C100.064 342.476 100.486 342.476 100.954 342.43C111.906 341.542 123.046 340.795 134.046 340.235C137.696 340.048 141.02 338.601 143.547 336.36C145.747 337.527 148.228 338.134 150.802 338.134C150.989 338.134 151.13 338.134 151.317 338.134C156.887 337.947 162.551 337.807 168.12 337.714C172.567 337.621 176.546 335.706 179.26 332.671C182.022 335.66 186 337.527 190.447 337.527C196.064 337.527 201.68 337.621 207.25 337.714C207.344 337.714 207.438 337.714 207.531 337.714C211.51 337.714 215.301 336.22 218.156 333.512C218.952 332.765 219.607 331.971 220.216 331.084C220.871 331.644 221.526 332.205 222.135 332.718C222.135 332.718 222.182 332.718 222.182 332.765C229.53 338.461 238.236 341.636 248.159 342.243C249.235 342.29 250.265 342.336 251.248 342.336C257.473 342.336 262.622 341.122 266.928 339.348C269.362 342.99 273.434 345.604 278.208 346.025C284.855 346.678 291.501 347.379 298.007 348.126C299.926 348.359 301.845 348.219 303.671 347.752C305.309 348.639 307.135 349.246 309.054 349.48C316.168 350.413 323.376 351.441 330.491 352.514C331.287 352.655 332.082 352.701 332.878 352.701C337.559 352.701 342.005 350.6 344.907 346.958C348.184 342.756 348.886 337.06 346.639 332.158ZM61.4961 292.379C60.0919 292.519 58.6877 292.705 57.2836 292.845V283.694C58.6877 283.881 60.1387 284.021 61.5897 284.208L61.4961 292.379ZM294.731 290.558V288.783C295.012 288.13 295.48 287.476 296.042 286.916C297.024 285.935 298.429 285.188 299.786 284.862V291.025C298.148 290.884 296.416 290.744 294.731 290.558Z" fill="#F90069"/>
<path d="M99.5934 314.229C96.8786 314.229 94.2107 313.249 92.198 311.428C89.9981 309.42 88.7344 306.666 88.7344 303.724V275.337C88.7344 272.442 89.9981 269.594 92.198 267.633C94.3979 265.625 97.3467 264.598 100.389 264.785C110.967 265.485 122.154 266.046 133.621 266.466C139.472 266.699 144.106 271.322 144.106 276.971V288.41C144.106 290.418 143.498 292.379 142.421 294.059C142.468 294.526 142.515 294.993 142.515 295.507V301.903C142.515 307.506 137.928 312.175 132.124 312.408C121.405 312.875 110.733 313.482 100.483 314.229C100.155 314.229 99.8742 314.229 99.5934 314.229Z" fill="#35407A"/>
<path d="M150.708 311.708C147.9 311.708 145.138 310.634 143.126 308.72C141.02 306.759 139.803 304.004 139.803 301.156V299.849C134.467 299.148 130.395 294.76 130.395 289.437V278.605C130.395 275.757 131.565 273.049 133.718 271.041C135.824 269.08 138.679 268.007 141.628 268.053C153.283 268.38 165.359 268.613 177.575 268.66C183.566 268.707 188.387 273.376 188.387 279.165V289.624C188.387 292.425 187.217 295.086 185.204 297.094C183.426 298.822 181.086 299.849 178.652 300.129V300.736C178.652 306.479 173.877 311.148 167.933 311.241C162.082 311.334 156.372 311.474 151.036 311.614C150.896 311.708 150.802 311.708 150.708 311.708Z" fill="#35407A"/>
<path d="M207.433 311.335C207.387 311.335 207.34 311.335 207.246 311.335C201.676 311.241 195.966 311.194 190.349 311.194C184.358 311.194 179.49 306.479 179.49 300.689V300.176C174.154 299.475 170.082 295.087 170.082 289.764V279.306C170.082 276.504 171.252 273.843 173.265 271.835C175.324 269.874 178.086 268.754 180.941 268.754H180.988C193.064 268.8 205.14 268.707 216.982 268.52C219.884 268.474 222.739 269.547 224.798 271.555C226.905 273.516 228.075 276.224 228.075 279.072V289.671C228.075 295.133 223.815 299.615 218.292 300.129V300.829C218.292 303.631 217.122 306.339 215.063 308.346C213.05 310.261 210.288 311.335 207.433 311.335Z" fill="#35407A"/>
<path d="M274.743 314.182C274.462 314.182 274.228 314.182 273.947 314.136C267.816 313.716 261.356 313.295 254.85 312.969C252.276 312.828 249.936 311.848 248.157 310.261C246.144 311.661 243.71 312.408 241.23 312.315C234.911 312.035 228.498 311.801 222.086 311.661C216.235 311.521 211.601 306.946 211.508 301.296C211.508 301.109 211.508 300.969 211.508 300.783C211.508 289.017 216.282 279.259 225.316 272.535C231.868 267.633 239.591 264.972 248.297 264.552C259.625 264.038 268.845 267.306 275.679 274.263C282.325 281.033 285.696 290.277 285.696 301.716C285.696 302.51 285.649 303.35 285.649 304.098C285.508 306.946 284.198 309.607 281.998 311.474C279.938 313.249 277.364 314.182 274.743 314.182Z" fill="#35407A"/>
<path d="M317.807 318.151C317.385 318.151 316.964 318.151 316.543 318.058C304.326 316.657 291.595 315.49 278.723 314.509C273.06 314.089 268.66 309.514 268.66 304.004V271.695C268.66 266.232 273.013 261.657 278.63 261.19C285.604 260.63 292.484 259.976 299.084 259.276C311.207 257.968 319.96 259.276 326.559 263.384C332.785 267.213 340.18 274.917 340.18 289.904C340.18 302.697 334.002 312.268 322.674 316.937C321.223 317.731 319.538 318.151 317.807 318.151ZM298.429 291.025C298.522 291.772 299.084 292.659 299.786 293.359V289.297C299.552 289.437 299.271 289.624 299.084 289.811C298.663 290.231 298.476 290.744 298.429 291.025Z" fill="#35407A"/>
<path d="M42.1636 319.972C39.5425 319.972 37.015 319.038 35.0023 317.357C32.6152 315.35 31.2578 312.455 31.2578 309.42V266.839C31.2578 263.758 32.662 260.863 35.0491 258.855C37.483 256.848 40.6658 255.961 43.8019 256.428C50.9632 257.501 58.4522 258.482 66.0348 259.369C76.8002 260.63 84.8508 263.571 90.7016 268.427C97.2544 273.936 100.718 281.033 100.718 288.923C100.718 293.592 99.5479 297.701 97.3948 301.063C98.1905 303.164 98.2842 305.498 97.5821 307.739C96.2715 311.848 92.527 314.743 88.1272 315.116C72.7748 316.377 57.8437 317.964 43.6146 319.832C43.0998 319.925 42.6317 319.972 42.1636 319.972ZM61.5882 285.188C60.3712 286.262 59.5755 287.943 59.5755 289.39C59.5755 290.698 60.4648 292.145 61.4946 293.079L61.5882 285.188Z" fill="#35407A"/>
<path d="M42.1636 347.332C39.5893 347.332 37.0618 346.445 35.0491 344.811C32.662 342.803 31.2578 339.908 31.2578 336.827V309.467C31.2578 304.191 35.2831 299.756 40.7126 299.055C55.2693 297.141 70.5749 295.553 86.255 294.246C89.0634 294.013 91.8249 294.853 94.0248 296.534C94.3524 296.767 94.6333 297.001 94.9141 297.281C98.1906 300.129 102.075 305.405 102.075 314.136C102.075 322.073 98.7054 329.17 92.3866 334.586C86.723 339.535 79.4213 342.57 70.7154 343.644C61.7754 344.717 52.695 345.931 43.755 347.239C43.2402 347.285 42.6785 347.332 42.1636 347.332Z" fill="#35407A"/>
<path d="M99.6442 338.368C96.9294 338.368 94.3083 337.387 92.2956 335.613C90.0489 333.605 88.7852 330.804 88.7852 327.862V303.724C88.7852 298.215 93.1849 293.639 98.8485 293.219C109.333 292.472 120.192 291.865 131.098 291.351C134.093 291.211 136.949 292.285 139.102 294.246C141.255 296.207 142.472 298.962 142.472 301.856V306.479C142.472 307.039 142.425 307.599 142.331 308.159C143.455 309.84 144.063 311.848 144.063 313.856V325.528C144.063 331.131 139.523 335.753 133.766 336.033C122.766 336.593 111.58 337.34 100.58 338.274C100.253 338.321 99.925 338.368 99.6442 338.368Z" fill="#35407A"/>
<path d="M150.707 333.979C147.898 333.979 145.183 332.905 143.124 331.037C141.018 329.076 139.801 326.322 139.801 323.474V301.203C139.801 295.507 144.481 290.838 150.379 290.698C155.808 290.558 161.612 290.418 167.557 290.324C170.506 290.324 173.267 291.351 175.373 293.359C177.433 295.32 178.603 298.028 178.603 300.876V323.1C178.603 328.843 173.829 333.512 167.931 333.605C162.315 333.699 156.651 333.839 151.034 334.026C150.941 333.979 150.8 333.979 150.707 333.979Z" fill="#35407A"/>
<path d="M207.435 333.559C207.389 333.559 207.295 333.559 207.248 333.559C201.678 333.465 195.968 333.419 190.351 333.372C184.36 333.372 179.492 328.656 179.492 322.867V300.689C179.492 297.888 180.662 295.227 182.675 293.219C184.734 291.258 187.496 290.137 190.398 290.137C196.108 290.137 201.912 290.184 207.576 290.278C213.52 290.371 218.294 295.04 218.294 300.783V323.007C218.294 325.808 217.124 328.516 215.018 330.524C213.052 332.485 210.291 333.559 207.435 333.559Z" fill="#35407A"/>
<path d="M251.201 338.227C250.265 338.227 249.282 338.181 248.299 338.134C239.312 337.574 231.355 334.679 224.708 329.543C224.708 329.543 224.708 329.543 224.662 329.543C216.002 322.773 211.556 313.249 211.462 301.249C211.415 298.401 212.632 295.647 214.739 293.639C216.845 291.631 219.747 290.558 222.649 290.651C229.155 290.838 235.708 291.071 242.12 291.305C244.741 291.398 247.129 292.425 248.954 294.012C250.967 292.565 253.494 291.865 256.022 291.958C262.668 292.332 269.221 292.705 275.493 293.172C281.391 293.592 285.837 298.448 285.556 304.144C285.088 314.182 281.625 322.446 275.353 328.703C269.127 335.006 260.983 338.227 251.201 338.227Z" fill="#35407A"/>
<path d="M332.781 348.639C332.219 348.639 331.657 348.593 331.096 348.499C323.934 347.425 316.679 346.398 309.518 345.464C307.505 345.184 305.68 344.437 304.182 343.27C302.404 344.064 300.391 344.344 298.425 344.11C291.872 343.317 285.179 342.616 278.532 341.963C272.962 341.402 268.703 336.92 268.703 331.504V304.051C268.703 301.109 269.967 298.308 272.214 296.347C274.46 294.339 277.409 293.359 280.451 293.592C293.604 294.573 306.616 295.787 319.113 297.234C322.764 297.654 325.9 299.802 327.585 302.93C332.781 312.922 337.929 323.334 342.797 333.885C344.435 337.387 343.921 341.496 341.487 344.577C339.334 347.145 336.151 348.639 332.781 348.639Z" fill="#35407A"/>
<path d="M99.5936 311.475C97.581 311.475 95.6151 310.728 94.1173 309.374C92.4791 307.88 91.543 305.825 91.543 303.677V275.29C91.543 273.143 92.4791 271.042 94.1173 269.594C95.7555 268.147 97.9086 267.353 100.155 267.493C110.733 268.194 121.967 268.754 133.481 269.174C137.787 269.314 141.204 272.769 141.204 276.924V288.363C141.204 290.184 140.549 291.958 139.332 293.359C139.519 294.013 139.613 294.713 139.613 295.413V301.81C139.613 305.965 136.243 309.374 131.937 309.56C121.171 310.027 110.499 310.634 100.202 311.381C100.015 311.475 99.8277 311.475 99.5936 311.475ZM107.644 283.554V295.367C108.3 295.32 108.955 295.273 109.61 295.227V288.083C109.61 286.496 110.078 285.002 111.014 283.741C109.891 283.694 108.768 283.648 107.644 283.554Z" fill="#000E49"/>
<path d="M150.709 308.953C148.602 308.953 146.59 308.16 145.092 306.759C143.547 305.312 142.658 303.304 142.658 301.203V297.281C142.19 297.281 141.675 297.281 141.207 297.281C136.807 297.234 133.25 293.779 133.25 289.53V278.698C133.25 276.597 134.139 274.59 135.684 273.096C137.229 271.648 139.382 270.808 141.535 270.901C153.189 271.228 165.312 271.462 177.575 271.508C182.022 271.555 185.579 275.01 185.579 279.305V289.764C185.579 291.818 184.737 293.826 183.192 295.273C181.694 296.721 179.635 297.561 177.529 297.561C176.967 297.561 176.405 297.561 175.844 297.561V300.876C175.844 305.125 172.333 308.58 167.933 308.673C162.083 308.767 156.372 308.907 150.99 309.047C150.849 308.953 150.755 308.953 150.709 308.953ZM158.198 286.822C158.525 287.663 158.713 288.597 158.713 289.577V293.219C159.04 293.219 159.368 293.219 159.649 293.219V289.717C159.649 288.737 159.836 287.756 160.21 286.869C159.555 286.869 158.9 286.822 158.198 286.822Z" fill="#000E49"/>
<path d="M207.437 308.58C207.391 308.58 207.344 308.58 207.297 308.58C201.68 308.486 196.017 308.44 190.353 308.44C185.907 308.44 182.303 304.938 182.303 300.643V297.468C181.834 297.468 181.366 297.468 180.945 297.468C176.499 297.468 172.895 293.966 172.895 289.671V279.212C172.895 277.158 173.737 275.15 175.282 273.703C176.779 272.255 178.839 271.415 180.992 271.415C193.068 271.462 205.191 271.368 217.033 271.182C219.186 271.135 221.292 271.929 222.837 273.423C224.381 274.87 225.224 276.878 225.224 278.979V289.577C225.224 293.826 221.666 297.328 217.22 297.374C216.611 297.374 216.05 297.374 215.441 297.374V300.783C215.441 302.884 214.599 304.845 213.054 306.339C211.603 307.786 209.544 308.58 207.437 308.58ZM198.451 292.939C198.778 292.939 199.106 292.939 199.434 292.939V289.671C199.434 288.737 199.621 287.85 199.902 287.009C199.246 287.009 198.591 287.009 197.983 287.009C198.31 287.85 198.497 288.784 198.497 289.717V292.939H198.451Z" fill="#000E49"/>
<path d="M274.743 311.428C274.556 311.428 274.369 311.428 274.135 311.428C267.956 311.008 261.544 310.587 254.991 310.214C252.089 310.074 249.655 308.44 248.344 306.105C248.017 306.572 247.689 306.946 247.268 307.366C245.677 308.86 243.523 309.607 241.324 309.56C235.005 309.28 228.545 309.047 222.133 308.907C217.827 308.767 214.363 305.358 214.316 301.203C214.316 301.109 214.316 300.969 214.316 300.829C214.316 289.811 218.576 281.033 227.001 274.73C233.086 270.201 240.294 267.68 248.391 267.306C258.876 266.839 267.348 269.828 273.573 276.177C279.705 282.434 282.794 291.025 282.794 301.763C282.794 302.557 282.794 303.304 282.747 304.051C282.653 306.152 281.67 308.113 280.032 309.514C278.581 310.774 276.709 311.428 274.743 311.428ZM263.135 295.133C264.118 295.18 265.148 295.273 266.131 295.32C265.382 291.818 263.978 289.017 261.918 286.916C261.216 286.216 260.28 285.375 259.016 284.675C261.169 287.149 262.527 290.604 263.135 295.133ZM231.681 293.639C232.571 293.686 233.46 293.686 234.349 293.733C234.817 291.491 235.566 289.531 236.549 287.803C236.737 287.476 236.924 287.103 237.158 286.823C237.064 286.869 236.971 286.963 236.924 287.009C234.443 288.83 232.711 291.025 231.681 293.639Z" fill="#000E49"/>
<path d="M317.807 315.396C317.479 315.396 317.198 315.396 316.871 315.35C304.608 313.949 291.876 312.782 278.958 311.801C274.745 311.474 271.516 308.113 271.516 304.051V271.742C271.516 267.68 274.745 264.318 278.911 263.991C285.885 263.431 292.812 262.777 299.412 262.077C310.88 260.863 319.024 262.03 325.062 265.766C330.679 269.221 337.372 276.271 337.372 289.951C337.372 301.623 331.755 310.307 321.505 314.509C320.428 315.07 319.117 315.396 317.807 315.396ZM315.092 299.475C315.56 299.522 315.981 299.569 316.449 299.615C319.071 298.261 321.317 295.74 321.317 289.904C321.317 281.827 317.62 279.539 316.403 278.792C315.045 277.951 312.471 277.111 307.51 277.111C309.569 277.765 311.394 278.745 312.892 280.146C314.905 281.967 317.339 285.375 317.339 290.978C317.386 294.153 316.59 297.001 315.092 299.475ZM287.617 296.861C289.021 296.954 290.378 297.094 291.783 297.188V284.161C291.783 281.733 292.906 279.586 294.731 278.138C292.391 278.372 290.051 278.605 287.664 278.792L287.617 296.861Z" fill="#000E49"/>
<path d="M42.1639 317.217C40.2449 317.217 38.3258 316.564 36.8748 315.303C35.143 313.809 34.1133 311.708 34.1133 309.467V266.886C34.1133 264.598 35.143 262.451 36.9216 260.957C38.7003 259.462 41.0874 258.809 43.3809 259.182C50.589 260.256 58.078 261.237 65.7074 262.124C75.9111 263.291 83.4469 266.046 88.8296 270.528C94.8208 275.57 97.8632 281.733 97.8632 288.924C97.8632 293.592 96.5526 297.561 94.1187 300.689C95.2421 302.557 95.5229 304.798 94.8676 306.899C93.8847 309.934 91.1231 312.081 87.8467 312.362C72.4475 313.622 57.4695 315.21 43.1937 317.077C42.866 317.171 42.4916 317.217 42.1639 317.217ZM50.2146 275.897V300.596C52.04 300.362 53.9123 300.176 55.7377 299.942C54.3803 298.542 53.5378 296.674 53.5378 294.62V283.508C53.5378 281.453 54.3803 279.446 55.9249 277.998C56.393 277.531 56.9079 277.158 57.4695 276.831C55.0356 276.504 52.6017 276.224 50.2146 275.897ZM75.0686 280.333C77.5025 282.901 78.4855 286.262 78.4855 289.39C78.4855 290.604 78.3451 291.772 78.0174 292.892C81.7619 292.192 81.7619 290.744 81.7619 288.97C81.7619 286.356 80.7322 284.348 78.2983 282.294C77.4557 281.593 76.3792 280.94 75.0686 280.333Z" fill="#000E49"/>
<path d="M42.1639 344.577C40.2449 344.577 38.3726 343.924 36.9216 342.71C35.143 341.216 34.1133 339.068 34.1133 336.827V309.467C34.1133 305.592 37.1089 302.277 41.0874 301.763C55.5973 299.895 70.8561 298.261 86.4893 296.954C88.5956 296.767 90.6551 297.421 92.2933 298.682C92.5741 298.868 92.8082 299.055 93.0422 299.289C95.8974 301.763 99.2674 306.385 99.2674 314.136C99.2674 321.373 96.3186 327.582 90.5146 332.578C85.2724 337.154 78.4855 339.955 70.388 340.935C61.4012 342.009 52.3209 343.223 43.3809 344.531C42.9596 344.577 42.5384 344.577 42.1639 344.577ZM50.2146 316.237V327.816C52.6485 327.489 55.0824 327.162 57.5163 326.835C55.1292 325.481 53.5378 323.007 53.5378 320.112V315.863C52.4145 316.003 51.2911 316.143 50.2146 316.237ZM79.328 313.155C79.328 313.249 79.328 313.295 79.328 313.389C79.328 317.497 77.5494 321.186 74.3665 323.847C74.2261 323.987 74.0857 324.081 73.8985 324.221C76.192 323.427 78.1578 322.353 79.7492 320.906C82.1364 318.851 83.1193 316.844 83.1193 314.089C83.1193 313.575 83.0725 313.155 83.0257 312.828C81.8087 312.922 80.5449 313.062 79.328 313.155Z" fill="#000E49"/>
<path d="M99.6405 335.613C97.6278 335.613 95.7088 334.866 94.211 333.559C92.5728 332.065 91.5898 330.01 91.5898 327.816V303.677C91.5898 299.615 94.8195 296.207 99.032 295.927C109.47 295.18 120.329 294.573 131.235 294.059C133.435 293.966 135.588 294.76 137.179 296.207C138.77 297.654 139.66 299.709 139.66 301.81V306.432C139.66 307.226 139.519 308.02 139.285 308.72C140.549 310.121 141.251 311.941 141.251 313.809V325.481C141.251 329.637 137.881 333.045 133.622 333.232C122.575 333.792 111.389 334.539 100.343 335.473C100.062 335.613 99.8277 335.613 99.6405 335.613ZM107.644 310.961V319.412C108.861 319.318 110.031 319.225 111.248 319.132C110.219 317.778 109.61 316.143 109.61 314.416V310.821C108.955 310.868 108.3 310.914 107.644 310.961Z" fill="#000E49"/>
<path d="M150.707 331.224C148.647 331.224 146.635 330.43 145.137 329.03C143.546 327.582 142.703 325.528 142.703 323.427V301.156C142.703 296.954 146.167 293.499 150.52 293.359C155.949 293.219 161.753 293.079 167.698 292.986C169.851 292.986 171.91 293.779 173.455 295.227C174.999 296.674 175.842 298.682 175.842 300.783V323.007C175.842 327.256 172.331 330.711 167.932 330.804C162.315 330.897 156.605 331.037 151.035 331.224C150.894 331.224 150.801 331.224 150.707 331.224ZM158.758 308.767V315.443C159.085 315.443 159.413 315.443 159.694 315.397V308.72C159.366 308.767 159.038 308.767 158.758 308.767Z" fill="#000E49"/>
<path d="M207.436 330.804C207.389 330.804 207.342 330.804 207.295 330.804C201.679 330.711 196.015 330.664 190.352 330.617C185.905 330.617 182.348 327.115 182.348 322.82V300.643C182.348 298.588 183.19 296.581 184.688 295.133C186.186 293.686 188.245 292.845 190.352 292.845C196.062 292.845 201.819 292.892 207.529 292.986C211.929 293.032 215.44 296.534 215.44 300.783V323.007C215.44 325.108 214.55 327.115 213.052 328.563C211.555 330.01 209.542 330.804 207.436 330.804ZM198.449 315.116C198.777 315.116 199.104 315.116 199.385 315.116V308.486C199.057 308.486 198.73 308.486 198.449 308.486V315.116Z" fill="#000E49"/>
<path d="M251.2 335.473C250.31 335.473 249.421 335.426 248.485 335.38C240.06 334.866 232.664 332.158 226.486 327.396C218.529 321.186 214.457 312.362 214.363 301.25C214.363 299.149 215.206 297.094 216.797 295.647C218.342 294.153 220.495 293.359 222.648 293.406C229.107 293.593 235.66 293.826 242.073 294.059C245.021 294.199 247.502 295.787 248.813 298.168C249.14 297.655 249.561 297.234 250.03 296.814C251.621 295.367 253.774 294.62 255.927 294.76C262.527 295.133 269.08 295.507 275.352 295.974C279.705 296.301 282.981 299.896 282.794 304.098C282.326 313.436 279.19 321.139 273.386 326.882C267.629 332.578 260.14 335.473 251.2 335.473ZM260.748 314.976C260.046 316.33 259.204 317.498 258.267 318.478C259.859 317.731 260.982 316.797 261.825 315.957C263.276 314.556 264.399 312.829 265.195 310.821C264.305 310.774 263.369 310.728 262.48 310.634C262.012 312.268 261.45 313.669 260.748 314.976ZM236.596 315.256C236.643 315.303 236.69 315.303 236.69 315.35C236.549 315.116 236.409 314.836 236.269 314.556C235.473 312.969 234.864 311.241 234.443 309.28C233.601 309.233 232.758 309.233 231.916 309.187C232.945 311.615 234.49 313.622 236.596 315.256Z" fill="#000E49"/>
<path d="M332.785 345.885C332.364 345.885 331.942 345.838 331.521 345.791C324.313 344.671 317.058 343.644 309.897 342.757C307.79 342.476 305.918 341.403 304.608 339.815C302.923 341.029 300.816 341.636 298.757 341.356C292.204 340.562 285.464 339.862 278.771 339.208C274.652 338.835 271.516 335.473 271.516 331.458V304.004C271.516 301.857 272.452 299.756 274.09 298.308C275.728 296.814 277.928 296.114 280.175 296.254C293.28 297.234 306.246 298.448 318.696 299.849C321.364 300.176 323.704 301.717 324.921 304.051C330.117 313.996 335.219 324.361 340.04 334.866C341.257 337.481 340.882 340.515 339.057 342.757C337.653 344.764 335.266 345.885 332.785 345.885ZM316.777 327.956C317.62 328.049 318.462 328.189 319.305 328.283C317.105 323.754 314.858 319.272 312.611 314.883C312.19 314.836 311.769 314.79 311.348 314.743C313.126 319.132 314.952 323.52 316.777 327.956ZM287.617 324.454C288.974 324.594 290.332 324.734 291.689 324.874V312.782C290.332 312.642 288.974 312.548 287.664 312.455L287.617 324.454Z" fill="#000E49"/>
<path d="M133.154 277.018C121.967 276.597 110.78 276.037 99.5938 275.29C99.5938 284.768 99.5938 294.246 99.5938 303.724C109.985 302.977 120.656 302.37 131.562 301.903C131.562 299.755 131.562 297.654 131.562 295.507C126.929 295.507 122.295 295.46 117.661 295.46C117.661 293.032 117.661 290.604 117.661 288.13C122.81 288.223 128.005 288.363 133.154 288.41C133.154 284.628 133.154 280.799 133.154 277.018Z" fill="#F70797"/>
<path d="M177.529 279.259C165.453 279.165 153.377 278.979 141.301 278.652C141.301 282.247 141.301 285.889 141.301 289.484C144.437 289.53 147.573 289.577 150.709 289.577C150.709 293.452 150.709 297.328 150.709 301.203C156.326 301.063 162.036 300.923 167.746 300.829C167.746 297.141 167.746 293.406 167.746 289.717C171.023 289.717 174.252 289.764 177.529 289.764C177.529 286.262 177.529 282.761 177.529 279.259Z" fill="#F70797"/>
<path d="M180.988 289.717C184.124 289.717 187.26 289.717 190.396 289.717C190.396 293.359 190.396 297.001 190.396 300.642C196.107 300.642 201.817 300.689 207.434 300.782C207.434 297.094 207.434 293.359 207.434 289.67C210.71 289.67 213.94 289.624 217.216 289.624C217.216 286.075 217.216 282.574 217.216 279.025C205.14 279.259 193.064 279.305 180.988 279.259C180.988 282.76 180.988 286.262 180.988 289.717Z" fill="#F70797"/>
<path d="M248.813 275.057C242.307 275.337 236.69 277.298 231.963 280.846C225.597 285.608 222.414 292.192 222.414 300.782C222.414 300.876 222.414 301.016 222.414 301.109C228.92 301.296 235.333 301.53 241.698 301.763C241.698 301.576 241.698 301.389 241.698 301.249C241.698 296.954 242.353 293.732 243.617 291.491C244.928 289.11 246.706 287.85 248.906 287.803C253.306 287.709 255.506 292.285 255.506 301.623C255.506 301.903 255.506 302.136 255.506 302.417C262.012 302.79 268.424 303.164 274.79 303.631C274.837 302.977 274.837 302.37 274.837 301.716C274.837 293.079 272.497 286.262 267.816 281.5C263.042 276.737 256.723 274.683 248.813 275.057Z" fill="#F70797"/>
<path d="M329.368 289.951C329.368 281.827 326.513 275.85 320.756 272.302C316.262 269.501 309.429 268.847 300.302 269.781C293.421 270.528 286.494 271.135 279.566 271.695C279.566 282.48 279.566 293.266 279.566 304.004C292.766 304.985 305.544 306.199 317.807 307.599V307.553C325.53 304.658 329.368 298.635 329.368 289.951ZM306.995 297.047C305.45 298.635 303.484 299.382 301.191 299.382C300.723 299.382 300.302 299.382 299.833 299.382C299.833 294.293 299.833 289.25 299.833 284.161C300.067 284.161 300.302 284.114 300.582 284.114C306.433 283.788 309.335 286.029 309.335 290.978C309.335 293.452 308.539 295.46 306.995 297.047Z" fill="#F70797"/>
<path d="M89.8127 288.97C89.8127 284.021 87.7532 279.959 83.5875 276.457C79.5153 273.049 73.1965 270.855 64.7714 269.874C57.2356 268.987 49.6998 268.007 42.1641 266.886C42.1641 281.08 42.1641 295.273 42.1641 309.467C56.4399 307.599 71.5115 306.012 87.1915 304.704C84.8044 302.79 81.2004 301.576 76.3793 300.969C85.3193 300.222 89.8127 296.254 89.8127 288.97ZM68.4223 293.312C67.0649 294.246 65.2395 294.666 62.8992 294.62C62.4779 294.62 62.0099 294.619 61.5886 294.573C61.5886 290.884 61.5886 287.196 61.5886 283.461C62.0567 283.461 62.4311 283.461 62.7588 283.461C63.0864 283.461 63.3672 283.461 63.5545 283.507C68.1415 283.834 70.435 285.748 70.435 289.344C70.4818 291.118 69.7797 292.425 68.4223 293.312Z" fill="#F70797"/>
<path d="M87.6128 305.031C87.4724 304.891 87.332 304.798 87.1915 304.704C71.5115 306.012 56.4399 307.599 42.1641 309.467C42.1641 318.571 42.1641 327.722 42.1641 336.827C51.2444 335.473 60.3248 334.259 69.4052 333.185C75.9113 332.391 81.1536 330.197 85.1789 326.742C89.2042 323.287 91.2169 319.131 91.2169 314.136C91.1701 310.12 89.9999 307.132 87.6128 305.031ZM69.0776 317.964C67.6266 319.178 65.7075 319.878 63.2736 320.065C63.0864 320.065 62.8524 320.112 62.5715 320.112C62.2907 320.112 61.963 320.112 61.5886 320.112C61.5886 316.003 61.5886 311.848 61.5886 307.739C62.1035 307.739 62.6183 307.692 63.1332 307.692C65.6607 307.646 67.6266 308.113 69.0776 309.14C70.5286 310.167 71.2307 311.568 71.2307 313.435C71.2775 315.256 70.5286 316.797 69.0776 317.964Z" fill="#F70797"/>
<path d="M133.201 325.575C133.201 321.699 133.201 317.778 133.201 313.902C128.005 314.042 122.856 314.229 117.708 314.416C117.708 311.848 117.708 309.327 117.708 306.759C122.342 306.665 126.975 306.572 131.609 306.479C131.609 304.938 131.609 303.397 131.609 301.856C120.75 302.323 110.078 302.93 99.6406 303.677C99.6406 311.708 99.6406 319.738 99.6406 327.816C110.78 326.929 121.967 326.182 133.201 325.575Z" fill="#F70797"/>
<path d="M167.744 323.053C167.744 315.63 167.744 308.253 167.744 300.829C162.034 300.922 156.324 301.016 150.707 301.203C150.707 308.626 150.707 316.05 150.707 323.473C156.371 323.287 162.081 323.147 167.744 323.053Z" fill="#F70797"/>
<path d="M207.436 323.053C207.436 315.63 207.436 308.253 207.436 300.829C201.772 300.736 196.109 300.689 190.398 300.689C190.398 308.066 190.398 315.49 190.398 322.867C196.062 322.867 201.772 322.96 207.436 323.053Z" fill="#F70797"/>
<path d="M231.541 321.326C236.409 325.108 242.213 327.209 249 327.629C256.629 328.096 262.854 326.135 267.582 321.373C271.982 316.984 274.369 311.008 274.696 303.677C268.378 303.21 261.918 302.837 255.412 302.463C255.319 306.292 254.71 309.28 253.54 311.428C252.37 313.716 250.638 314.836 248.438 314.743C246.285 314.649 244.6 313.435 243.43 311.101C242.26 308.86 241.698 305.732 241.651 301.763C235.286 301.483 228.873 301.249 222.367 301.109C222.461 309.98 225.503 316.61 231.541 321.326Z" fill="#F70797"/>
<path d="M299.74 333.652C299.74 326.228 299.74 318.805 299.74 311.334C299.693 309.934 299.646 308.533 299.599 307.132C299.974 308.019 300.255 308.813 300.489 309.42C300.723 310.074 300.91 310.587 301.004 310.961C304.327 318.711 307.65 326.695 310.973 335.006C318.275 335.94 325.53 336.967 332.785 338.087C327.824 327.302 322.815 317.171 317.807 307.599C305.544 306.199 292.766 304.985 279.566 304.004C279.566 313.155 279.566 322.306 279.566 331.458C286.306 332.111 293 332.858 299.74 333.652Z" fill="#F70797"/>
<path d="M133.154 277.018C121.967 276.597 110.78 276.037 99.5938 275.29C99.5938 284.768 99.5938 294.246 99.5938 303.724C109.985 302.977 120.656 302.37 131.562 301.903C131.562 299.755 131.562 297.654 131.562 295.507C126.929 295.507 122.295 295.46 117.661 295.46C117.661 293.032 117.661 290.604 117.661 288.13C122.81 288.223 128.005 288.363 133.154 288.41C133.154 284.628 133.154 280.799 133.154 277.018Z" fill="#FEFFFF"/>
<path d="M177.529 279.259C165.453 279.165 153.377 278.979 141.301 278.652C141.301 282.247 141.301 285.889 141.301 289.484C144.437 289.53 147.573 289.577 150.709 289.577C150.709 293.452 150.709 297.328 150.709 301.203C156.326 301.063 162.036 300.923 167.746 300.829C167.746 297.141 167.746 293.406 167.746 289.717C171.023 289.717 174.252 289.764 177.529 289.764C177.529 286.262 177.529 282.761 177.529 279.259Z" fill="#FEFFFF"/>
<path d="M180.988 289.717C184.124 289.717 187.26 289.717 190.396 289.717C190.396 293.359 190.396 297.001 190.396 300.642C196.107 300.642 201.817 300.689 207.434 300.782C207.434 297.094 207.434 293.359 207.434 289.67C210.71 289.67 213.94 289.624 217.216 289.624C217.216 286.075 217.216 282.574 217.216 279.025C205.14 279.259 193.064 279.305 180.988 279.259C180.988 282.76 180.988 286.262 180.988 289.717Z" fill="#FEFFFF"/>
<path d="M248.813 275.057C242.307 275.337 236.69 277.298 231.963 280.846C225.597 285.608 222.414 292.192 222.414 300.782C222.414 300.876 222.414 301.016 222.414 301.109C228.92 301.296 235.333 301.53 241.698 301.763C241.698 301.576 241.698 301.389 241.698 301.249C241.698 296.954 242.353 293.732 243.617 291.491C244.928 289.11 246.706 287.85 248.906 287.803C253.306 287.709 255.506 292.285 255.506 301.623C255.506 301.903 255.506 302.136 255.506 302.417C262.012 302.79 268.424 303.164 274.79 303.631C274.837 302.977 274.837 302.37 274.837 301.716C274.837 293.079 272.497 286.262 267.816 281.5C263.042 276.737 256.723 274.683 248.813 275.057Z" fill="#FEFFFF"/>
<path d="M329.368 289.951C329.368 281.827 326.513 275.85 320.756 272.302C316.262 269.501 309.429 268.847 300.302 269.781C293.421 270.528 286.494 271.135 279.566 271.695C279.566 282.48 279.566 293.266 279.566 304.004C292.766 304.985 305.544 306.199 317.807 307.599V307.553C325.53 304.658 329.368 298.635 329.368 289.951ZM306.995 297.047C305.45 298.635 303.484 299.382 301.191 299.382C300.723 299.382 300.302 299.382 299.833 299.382C299.833 294.293 299.833 289.25 299.833 284.161C300.067 284.161 300.302 284.114 300.582 284.114C306.433 283.788 309.335 286.029 309.335 290.978C309.335 293.452 308.539 295.46 306.995 297.047Z" fill="#FEFFFF"/>
<path d="M89.8127 288.97C89.8127 284.021 87.7532 279.959 83.5875 276.457C79.5153 273.049 73.1965 270.855 64.7714 269.874C57.2356 268.987 49.6998 268.007 42.1641 266.886C42.1641 281.08 42.1641 295.273 42.1641 309.467C56.4399 307.599 71.5115 306.012 87.1915 304.704C84.8044 302.79 81.2004 301.576 76.3793 300.969C85.3193 300.222 89.8127 296.254 89.8127 288.97ZM68.4223 293.312C67.0649 294.246 65.2395 294.666 62.8992 294.62C62.4779 294.62 62.0099 294.619 61.5886 294.573C61.5886 290.884 61.5886 287.196 61.5886 283.461C62.0567 283.461 62.4311 283.461 62.7588 283.461C63.0864 283.461 63.3672 283.461 63.5545 283.507C68.1415 283.834 70.435 285.748 70.435 289.344C70.4818 291.118 69.7797 292.425 68.4223 293.312Z" fill="#FEFFFF"/>
<path d="M87.6128 305.031C87.4724 304.891 87.332 304.798 87.1915 304.704C71.5115 306.012 56.4399 307.599 42.1641 309.467C42.1641 318.571 42.1641 327.722 42.1641 336.827C51.2444 335.473 60.3248 334.259 69.4052 333.185C75.9113 332.391 81.1536 330.197 85.1789 326.742C89.2042 323.287 91.2169 319.131 91.2169 314.136C91.1701 310.12 89.9999 307.132 87.6128 305.031ZM69.0776 317.964C67.6266 319.178 65.7075 319.878 63.2736 320.065C63.0864 320.065 62.8524 320.112 62.5715 320.112C62.2907 320.112 61.963 320.112 61.5886 320.112C61.5886 316.003 61.5886 311.848 61.5886 307.739C62.1035 307.739 62.6183 307.692 63.1332 307.692C65.6607 307.646 67.6266 308.113 69.0776 309.14C70.5286 310.167 71.2307 311.568 71.2307 313.435C71.2775 315.256 70.5286 316.797 69.0776 317.964Z" fill="#C2C3CA"/>
<path d="M133.201 325.575C133.201 321.699 133.201 317.778 133.201 313.902C128.005 314.042 122.856 314.229 117.708 314.416C117.708 311.848 117.708 309.327 117.708 306.759C122.342 306.665 126.975 306.572 131.609 306.479C131.609 304.938 131.609 303.397 131.609 301.856C120.75 302.323 110.078 302.93 99.6406 303.677C99.6406 311.708 99.6406 319.738 99.6406 327.816C110.78 326.929 121.967 326.182 133.201 325.575Z" fill="#C2C3CA"/>
<path d="M167.744 323.053C167.744 315.63 167.744 308.253 167.744 300.829C162.034 300.922 156.324 301.016 150.707 301.203C150.707 308.626 150.707 316.05 150.707 323.473C156.371 323.287 162.081 323.147 167.744 323.053Z" fill="#C2C3CA"/>
<path d="M207.436 323.053C207.436 315.63 207.436 308.253 207.436 300.829C201.772 300.736 196.109 300.689 190.398 300.689C190.398 308.066 190.398 315.49 190.398 322.867C196.062 322.867 201.772 322.96 207.436 323.053Z" fill="#C2C3CA"/>
<path d="M231.541 321.326C236.409 325.108 242.213 327.209 249 327.629C256.629 328.096 262.854 326.135 267.582 321.373C271.982 316.984 274.369 311.008 274.696 303.677C268.378 303.21 261.918 302.837 255.412 302.463C255.319 306.292 254.71 309.28 253.54 311.428C252.37 313.716 250.638 314.836 248.438 314.743C246.285 314.649 244.6 313.435 243.43 311.101C242.26 308.86 241.698 305.732 241.651 301.763C235.286 301.483 228.873 301.249 222.367 301.109C222.461 309.98 225.503 316.61 231.541 321.326Z" fill="#C2C3CA"/>
<path d="M299.74 333.652C299.74 326.228 299.74 318.805 299.74 311.334C299.693 309.934 299.646 308.533 299.599 307.132C299.974 308.019 300.255 308.813 300.489 309.42C300.723 310.074 300.91 310.587 301.004 310.961C304.327 318.711 307.65 326.695 310.973 335.006C318.275 335.94 325.53 336.967 332.785 338.087C327.824 327.302 322.815 317.171 317.807 307.599C305.544 306.199 292.766 304.985 279.566 304.004C279.566 313.155 279.566 322.306 279.566 331.458C286.306 332.111 293 332.858 299.74 333.652Z" fill="#C2C3CA"/>
<path d="M144.716 257.221V246.669C144.716 241.487 140.504 237.285 135.308 237.285H117.896C112.701 237.285 108.488 241.487 108.488 246.669V256.288V269.687H144.716V257.221ZM136.853 252.832C136.853 256.241 136.057 258.669 134.512 260.163C132.781 261.797 130.253 262.591 126.93 262.591C123.653 262.591 121.079 261.797 119.16 260.209C117.288 258.622 116.352 256.381 116.352 253.58C116.352 250.731 117.288 248.49 119.16 246.856C121.032 245.222 123.607 244.382 126.836 244.382C131.142 244.382 134.278 245.829 136.244 248.724L129.083 250.405C128.989 249.844 128.755 249.424 128.334 249.097C127.96 248.771 127.492 248.63 126.883 248.63C124.87 248.63 123.841 250.405 123.841 254C123.841 255.54 124.075 256.614 124.496 257.315C124.964 258.015 125.666 258.342 126.649 258.342C127.023 258.342 127.398 258.295 127.726 258.155C128.053 258.015 128.334 257.875 128.521 257.642C128.755 257.408 128.896 257.175 129.036 256.848C129.177 256.521 129.223 256.194 129.223 255.774H126.509V252.085H136.806V252.832H136.853Z" fill="#000E49"/>
<path d="M106.29 269.688V246.67C106.29 240.273 111.485 235.091 117.898 235.091H135.309C140.271 235.091 144.483 238.219 146.168 242.561C146.449 241.627 146.871 240.74 147.339 239.9C144.952 235.698 140.458 232.896 135.309 232.896H117.898C110.268 232.896 104.043 239.106 104.043 246.716V269.734H108.49H106.29V269.688Z" fill="#2E3C79"/>
<path d="M135.309 235.044H117.897C111.485 235.044 106.289 240.226 106.289 246.623V269.641H108.489V256.241V246.623C108.489 241.44 112.701 237.238 117.897 237.238H135.309C140.504 237.238 144.717 241.44 144.717 246.623V257.174V269.641H145.513V246.623C145.513 245.175 145.747 243.821 146.121 242.514C144.53 238.172 140.27 235.044 135.309 235.044Z" fill="#2E3C79"/>
<path d="M186.189 254.56V246.669C186.189 241.487 181.976 237.285 176.781 237.285H159.369C154.173 237.285 149.961 241.487 149.961 246.669V259.696V269.687H186.189V254.56ZM174.628 262.264H161.709V244.709H169.105V258.062H174.628V262.264Z" fill="#000E49"/>
<path d="M159.365 235.044H176.777C181.364 235.044 185.296 237.705 187.168 241.487C187.496 240.647 187.917 239.9 188.385 239.153C185.904 235.324 181.645 232.803 176.777 232.803H159.365C154.216 232.803 149.723 235.651 147.336 239.806C147.804 240.647 148.225 241.534 148.506 242.467C150.191 238.172 154.404 235.044 159.365 235.044Z" fill="#2E3C79"/>
<path d="M147.758 269.687V246.669C147.758 245.222 148.039 243.821 148.507 242.561C148.226 241.627 147.805 240.74 147.337 239.899C146.869 240.74 146.448 241.627 146.167 242.561C146.635 243.821 146.916 245.222 146.916 246.669V269.687H145.512H149.116H147.758Z" fill="#2E3C79"/>
<path d="M145.559 269.687H146.963V246.669C146.963 245.222 146.682 243.821 146.214 242.561C145.793 243.868 145.605 245.269 145.605 246.669V269.687H145.559Z" fill="#2E3C79"/>
<path d="M176.779 235.044H159.367C154.405 235.044 150.193 238.172 148.508 242.514C148.929 243.821 149.116 245.222 149.116 246.623V269.641H149.912V259.649V246.623C149.912 241.44 154.125 237.238 159.32 237.238H176.779C181.974 237.238 186.187 241.44 186.187 246.623C186.187 244.802 186.561 243.074 187.17 241.487C185.297 237.705 181.366 235.044 176.779 235.044Z" fill="#2E3C79"/>
<path d="M148.554 242.561C148.086 243.821 147.805 245.222 147.805 246.669V269.687H149.209V246.669C149.162 245.222 148.928 243.821 148.554 242.561Z" fill="#2E3C79"/>
<path d="M209.918 254.233C209.918 254.233 209.871 254.14 209.824 253.906C209.777 253.72 209.684 253.066 209.45 251.945C209.403 251.805 209.403 251.619 209.356 251.432C209.309 251.198 209.263 250.918 209.216 250.591L208.982 248.911C208.935 249.051 208.935 249.237 208.888 249.424C208.841 249.611 208.795 249.844 208.748 250.078C208.654 250.545 208.607 250.872 208.561 251.058C208.514 251.245 208.514 251.338 208.467 251.385L207.952 253.533L207.203 256.288H210.339L209.918 254.233Z" fill="#000E49"/>
<path d="M190.633 269.687H226.861V256.288V246.669C226.861 241.487 222.648 237.285 217.453 237.285H200.041C194.845 237.285 190.633 241.487 190.633 246.669V258.015V269.687ZM204.628 244.709H213.661L219.465 262.31H211.836L211.274 260.069H206.266L205.658 262.31H198.028L204.628 244.709Z" fill="#000E49"/>
<path d="M200.042 235.044H217.453C222.04 235.044 226.019 237.705 227.891 241.58C228.219 240.74 228.64 239.993 229.108 239.246C226.627 235.417 222.368 232.849 217.453 232.849H200.042C195.174 232.849 190.868 235.371 188.434 239.199C188.902 239.946 189.323 240.693 189.651 241.534C191.523 237.705 195.455 235.044 200.042 235.044Z" fill="#2E3C79"/>
<path d="M188.434 269.687V246.67C188.434 244.849 188.856 243.074 189.651 241.534C189.324 240.693 188.902 239.946 188.434 239.199C187.966 239.946 187.545 240.693 187.217 241.534C187.966 243.074 188.434 244.802 188.434 246.67V269.687H186.234H190.681H188.434Z" fill="#2E3C79"/>
<path d="M186.188 254.56V269.687H188.387V246.67C188.387 244.802 187.966 243.074 187.17 241.534C186.515 243.121 186.188 244.849 186.188 246.67V254.56Z" fill="#2E3C79"/>
<path d="M217.455 235.044H200.043C195.456 235.044 191.525 237.705 189.652 241.487C190.308 243.074 190.635 244.802 190.635 246.623C190.635 241.44 194.848 237.238 200.043 237.238H217.455C222.651 237.238 226.863 241.44 226.863 246.623V256.241V269.641H226.91V246.623C226.91 244.848 227.284 243.121 227.893 241.534C225.974 237.705 222.042 235.044 217.455 235.044Z" fill="#2E3C79"/>
<path d="M190.633 258.015V246.67C190.633 244.849 190.259 243.121 189.651 241.534C188.902 243.074 188.434 244.802 188.434 246.67V269.687H190.633V258.015Z" fill="#2E3C79"/>
<path d="M247.597 249.051H247.363V258.015C249.984 257.922 251.342 256.474 251.342 253.626C251.342 252.225 251.014 251.105 250.312 250.311C249.657 249.471 248.721 249.051 247.597 249.051Z" fill="#000E49"/>
<path d="M267.537 263.198V246.623C267.537 241.44 263.324 237.238 258.128 237.238H240.717C235.521 237.238 231.309 241.44 231.309 246.623V257.175V269.641H267.537V263.198ZM255.461 260.256C253.541 261.61 250.686 262.264 246.848 262.264H239.968V244.709H246.333C249.984 244.709 252.793 245.316 254.852 246.576C257.52 248.21 258.831 250.545 258.831 253.486C258.877 256.381 257.754 258.669 255.461 260.256Z" fill="#000E49"/>
<path d="M271.937 246.669C271.937 239.059 265.712 232.849 258.082 232.849H240.67C235.803 232.849 231.496 235.417 229.016 239.246C229.484 239.993 229.905 240.787 230.233 241.58C232.105 237.705 236.083 235.044 240.67 235.044H258.082C264.495 235.044 269.69 240.226 269.69 246.623V269.641H267.49H271.937V246.669Z" fill="#2E3C79"/>
<path d="M229.106 269.687V246.669C229.106 244.849 229.527 243.121 230.276 241.58C229.949 240.74 229.527 239.993 229.059 239.246C228.591 239.993 228.17 240.787 227.842 241.58C228.591 243.121 229.013 244.849 229.013 246.669L229.106 269.687H226.906H231.306H229.106Z" fill="#2E3C79"/>
<path d="M226.906 269.687H229.059V246.669C229.059 244.849 228.638 243.121 227.889 241.58C227.281 243.168 226.906 244.849 226.906 246.669V269.687Z" fill="#2E3C79"/>
<path d="M231.26 269.687L231.307 257.221V246.67C231.307 241.487 235.52 237.285 240.715 237.285H258.127C263.322 237.285 267.535 241.487 267.535 246.67V263.244V269.687H269.735V246.67C269.735 240.273 264.539 235.091 258.127 235.091H240.715C236.128 235.091 232.15 237.752 230.277 241.627C230.886 243.215 231.26 244.895 231.26 246.716V269.687Z" fill="#2E3C79"/>
<path d="M229.109 269.687H231.262V246.669C231.262 244.895 230.888 243.168 230.28 241.58C229.531 243.121 229.109 244.849 229.109 246.669V269.687Z" fill="#2E3C79"/>
<path d="M126.555 255.821H129.27C129.27 256.194 129.223 256.568 129.083 256.895C128.942 257.221 128.802 257.455 128.568 257.688C128.334 257.922 128.1 258.062 127.772 258.202C127.445 258.342 127.117 258.389 126.696 258.389C125.713 258.389 125.011 258.062 124.543 257.361C124.075 256.661 123.887 255.541 123.887 254.047C123.887 250.451 124.917 248.677 126.93 248.677C127.491 248.677 128.006 248.817 128.381 249.144C128.755 249.471 128.989 249.891 129.13 250.451L136.291 248.771C134.325 245.876 131.236 244.428 126.883 244.428C123.607 244.428 121.079 245.269 119.207 246.903C117.335 248.537 116.398 250.778 116.398 253.626C116.398 256.428 117.335 258.622 119.207 260.256C121.079 261.844 123.653 262.637 126.977 262.637C130.347 262.637 132.874 261.844 134.559 260.21C136.151 258.715 136.9 256.288 136.9 252.879V252.132H126.602V255.821H126.555Z" fill="#F90069"/>
<path d="M169.102 244.708H161.707V262.264H174.626V258.062H169.102V244.708Z" fill="#F90069"/>
<path d="M206.269 260.023H211.231L211.792 262.264H219.422L213.618 244.708H204.584L198.031 262.31H205.661L206.269 260.023ZM208.001 253.533L208.516 251.385C208.516 251.338 208.563 251.245 208.609 251.058C208.656 250.871 208.703 250.545 208.797 250.078C208.843 249.844 208.89 249.611 208.937 249.424C208.984 249.237 209.031 249.051 209.031 248.911L209.265 250.591C209.312 250.918 209.358 251.198 209.405 251.432C209.452 251.665 209.452 251.852 209.499 251.945C209.733 253.113 209.826 253.766 209.873 253.906C209.92 254.093 209.92 254.186 209.967 254.233L210.435 256.287H207.299L208.001 253.533Z" fill="#F90069"/>
<path d="M254.853 246.576C252.84 245.315 249.985 244.708 246.334 244.708H239.969V262.31H246.849C250.641 262.31 253.543 261.657 255.462 260.303C257.708 258.715 258.832 256.474 258.832 253.533C258.878 250.545 257.521 248.21 254.853 246.576ZM247.364 258.015V249.051H247.598C248.721 249.051 249.658 249.471 250.313 250.265C250.968 251.058 251.343 252.179 251.343 253.579C251.343 256.474 249.985 257.922 247.364 258.015Z" fill="#F90069"/>
<path d="M81.1536 258.529C81.1536 258.529 88.5022 260.956 92.7615 265.672L94.0253 266.186C94.0253 266.186 91.5446 268.007 91.0765 268.754C91.0765 268.754 86.9576 265.205 82.8855 263.618C78.8133 262.03 81.1536 258.529 81.1536 258.529Z" fill="#F90069"/>
<path d="M161.285 65.3276H158.43V71.2572H161.285V65.3276Z" fill="#C2C3CA"/>
</svg>
