<svg width="375" height="375" viewBox="0 0 375 375" fill="none" xmlns="http://www.w3.org/2000/svg">
<path d="M131.309 232.209C131.309 232.209 119.608 206.483 119.608 198.92C119.608 191.356 128.547 179.357 139.219 175.949C139.219 175.949 119.935 151.95 119.608 146.114C119.608 146.114 91.758 128.979 94.1451 109.416C96.5322 89.8532 114.786 58.9915 114.786 51.101C114.786 43.2105 115.816 22.6205 123.399 21.5933C130.981 20.5662 149.189 21.5933 146.802 33.966C146.802 33.966 154.01 38.4482 150.219 43.584C146.427 48.7199 133.369 45.6384 130.607 56.6104C127.845 67.5824 119.842 85.4178 122.65 98.4908C125.458 111.564 131.309 119.081 136.13 120.808C140.951 122.536 160.563 136.589 160.563 136.589C160.563 136.589 160.235 97.4636 175.354 91.6275C190.472 85.7913 211.113 89.8999 214.249 120.808C214.249 120.808 209.756 140.698 210.786 148.962C210.786 148.962 218.368 149.662 219.398 155.499C220.428 161.335 232.457 158.253 236.248 166.844C240.039 175.435 247.95 180.571 247.95 189.162C247.95 197.753 245.563 198.079 247.95 212.133C250.337 226.186 256.89 257.795 251.741 271.522C251.741 271.522 280.995 304.811 278.561 325.075C276.127 345.338 252.069 338.801 252.069 338.801C252.069 338.801 206.995 357.01 174.652 353.228C142.309 349.446 130.981 340.856 130.981 340.856C130.981 340.856 111.042 295.193 110.668 281.84C110.668 281.84 103.085 276.331 106.549 256.441C109.966 236.318 131.309 232.209 131.309 232.209Z" fill="#140823"/>
<path d="M119.605 146.067C119.605 146.067 126.86 135.609 130.558 132.014C130.558 132.014 118.201 144.76 123.865 151.53C129.528 158.3 137.251 156.012 141.604 160.494C145.957 164.976 151.012 174.454 151.012 174.454C151.012 174.454 145.021 172.727 139.217 175.902C133.413 179.077 139.217 175.902 139.217 175.902C139.217 175.902 124.333 159.094 119.605 146.067Z" fill="#F90069"/>
<path d="M252.068 338.614C252.068 338.614 257.217 319.798 236.622 313.028C216.027 306.258 251.834 316.437 252.068 338.614Z" fill="#534C75"/>
<path d="M230.208 310.927C230.208 310.927 230.021 300.142 225.387 294.026C220.8 287.91 224.498 292.298 224.077 300.796C223.655 309.293 214.013 289.917 205.073 292.065C196.134 294.259 220.192 314.102 225.387 314.523C230.583 314.943 223.843 308.873 230.208 310.927Z" fill="#534C75"/>
<path d="M224.173 347.579C224.173 347.579 228.291 318.071 227.589 313.309C226.84 308.546 199.319 334.459 187.149 334.786C174.98 335.159 197.587 341.229 214.858 326.709C232.13 312.188 217.667 340.249 196.838 345.198C176.009 350.147 189.77 353.368 189.77 353.368C189.77 353.368 212.144 353.835 224.173 347.579Z" fill="white"/>
<path d="M124.477 267.32C124.477 267.32 163.747 275.584 196.184 253.033C228.62 230.482 207.043 280.953 194.265 289.544C181.486 298.135 154.058 321.526 162.67 337.074C162.67 337.074 131.357 323.16 146.709 297.948C162.015 272.736 135.148 282.167 124.477 267.32Z" fill="#534C75"/>
<path d="M110.668 281.653C110.668 281.653 114.225 312.795 130.982 340.669C130.982 340.669 142.122 348.186 148.909 348.139C155.649 348.092 131.544 337.541 131.356 326.475C131.169 315.363 135.335 310.881 134.352 300.329C133.416 289.824 122.276 291.505 120.965 301.263C119.608 311.021 118.297 275.397 110.668 281.653Z" fill="#F90069"/>
<path d="M267.703 338.614C267.703 338.614 279.639 329.837 277.345 313.776C277.345 313.776 289 330.631 267.703 338.614Z" fill="white"/>
<path d="M246.734 183.279C246.734 183.279 241.539 169.459 214.766 175.902C214.766 175.902 217.012 169.925 236.25 166.657C255.487 163.342 236.25 166.657 236.25 166.657C236.25 166.657 246.5 180.197 246.734 183.279Z" fill="white"/>
<path d="M114.176 54.416C114.176 54.416 100.555 97.557 103.644 108.529C106.734 119.501 110.15 138.924 110.15 138.924C110.15 138.924 92.0364 127.672 94.1895 109.323C96.3426 90.9738 111.461 63.4271 114.176 54.416Z" fill="#F90069"/>
<path d="M115.066 112.031C115.066 112.031 123.866 110.77 129.997 115.719C136.129 120.668 157.145 134.068 157.145 134.068C157.145 134.068 137.908 126.691 128.125 143.172C118.343 159.654 139.546 126.878 133.648 122.582C127.704 118.334 125.925 113.431 115.066 112.031Z" fill="#534C75"/>
<path d="M114.88 46.7121C114.88 46.7121 113.85 18.2316 126.395 21.2197C126.395 21.2197 120.871 23.134 119.561 30.3241C118.297 37.5143 120.871 46.5721 114.88 46.7121Z" fill="#F90069"/>
<path d="M210.784 148.822C210.784 148.822 222.392 164.416 175.867 175.948C175.867 175.948 189.488 182.158 216.588 161.288C216.588 161.288 231.847 162.969 236.294 166.657C236.294 166.657 236.528 160.121 221.269 156.479C221.222 156.479 218.133 148.495 210.784 148.822Z" fill="#534C75"/>
<path d="M196.325 229.268C196.325 229.268 190.287 220.444 180.317 216.241C170.347 211.993 201.24 183.325 201.24 183.325C201.24 183.325 185.56 191.169 170.207 220.303C170.16 220.303 189.772 218.996 196.325 229.268Z" fill="#534C75"/>
<path d="M139.219 175.948C139.219 175.948 129.296 185.987 129.952 194.578C130.607 203.168 147.364 191.73 151.67 197.659C155.976 203.589 128.782 211.246 131.309 232.256C131.309 232.256 118.718 209.892 119.607 198.966C120.497 187.994 128.641 179.637 139.219 175.948Z" fill="#F90069"/>
<path d="M110.668 281.653C110.668 281.653 101.541 272.782 106.877 254.527C112.213 236.271 127.378 233.236 131.31 232.209C131.31 232.209 110.2 240.053 108.609 259.009C107.018 277.965 111.792 270.308 110.668 281.653Z" fill="#F90069"/>
<path d="M124.477 246.963C124.477 246.963 168.147 261.904 194.264 236.691C194.218 236.691 170.768 272.596 124.477 246.963Z" fill="white"/>
<path d="M188.645 229.268C188.645 229.268 193.231 241.127 201.188 237.812C209.192 234.497 227.213 208.164 227.213 208.164C227.213 208.164 201.189 245.889 188.645 229.268Z" fill="white"/>
<path d="M246.736 183.279C246.736 183.279 249.825 187.994 247.719 200.087C245.612 212.18 253.897 230.202 253.804 244.255C253.71 258.309 256.05 261.203 251.744 271.288C251.744 271.288 224.269 244.349 211.304 239.399C201.615 235.711 246.361 249.578 245.753 242.294C245.145 235.011 245.519 232.676 241.447 221.938C237.281 211.199 243.647 186.36 246.736 183.279Z" fill="white"/>
<path d="M270.136 297.294C270.136 297.294 261.618 306.726 241.678 307.706C241.678 307.706 262.039 301.73 261.337 295.987C260.635 290.244 242.615 302.43 237.372 301.823C232.083 301.216 255.205 286.369 251.695 271.335C251.695 271.335 270.043 289.544 270.136 297.294Z" fill="white"/>
<path d="M172.451 106.007C172.451 106.007 171.748 102.646 173.761 97.9769C175.821 93.308 198.522 86.0244 198.522 86.0244L206.853 95.1755C206.853 95.1755 215.044 111.05 213.546 116.092C212.282 120.435 179.893 115.952 179.893 115.952L172.451 106.007Z" fill="#140823"/>
<path d="M166.738 71.1773C166.738 71.1773 190.656 60.6255 206.758 78.8811C226.182 100.825 174.415 76.2665 174.415 76.2665C174.415 76.2665 173.198 70.4303 166.738 71.1773Z" fill="#1F1336"/>
<path d="M183.403 70.6171C183.403 70.6171 201.611 69.4499 211.253 84.1571C220.895 98.8175 220.989 134.208 220.989 134.208L217.759 134.302C217.759 134.302 218.602 77.1536 178.629 89.5263C178.676 89.5263 175.212 75.4261 183.403 70.6171Z" fill="white"/>
<path d="M173.853 89.9931L178.674 89.853C178.674 89.853 179.798 75.8929 183.402 70.9438C183.402 70.9438 174.649 66.9752 166.785 71.5041C166.739 71.4574 173.572 82.4761 173.853 89.9931Z" fill="#F90069"/>
<path d="M169.594 99.1909C169.594 99.1909 168.565 132.434 167.582 151.25L164.165 144.947C164.165 144.947 166.505 134.161 165.803 130.426C165.148 126.691 161.825 124.123 161.825 124.123C161.825 124.123 161.45 128.418 162.059 130.566C162.667 132.714 164.914 135.842 164.446 137.43C163.978 139.017 160.748 154.705 162.152 164.836C162.152 164.836 158.174 142.472 158.548 138.177C158.923 133.881 161.778 106.988 161.778 106.988C161.778 106.988 163.884 105.868 164.914 104.747C165.99 103.626 168.003 99.2843 169.594 99.1909Z" fill="#F90069"/>
<path d="M169.595 99.1909C169.595 99.1909 173.76 103.066 174.93 105.727C174.93 105.727 182.42 104.934 186.819 108.015C191.219 111.097 200.627 118.8 213.873 114.085C213.873 114.085 215.09 118.334 214.669 121.042C214.669 121.042 209.005 123.703 208.163 131.22C207.32 138.737 207.04 146.254 207.04 146.254L176.99 167.871L175.726 139.25C175.726 139.25 192.904 138.69 193.559 126.317L172.216 130.8C172.216 130.8 171.046 143.686 172.778 147.374L167.535 151.296L169.595 99.1909Z" fill="white"/>
<path d="M178.676 90.4133C178.676 90.4133 178.255 76.4531 183.404 70.6169C183.404 70.6169 185.931 77.5737 190.799 80.1416C195.667 82.7095 207.696 86.7248 212.61 100.078C212.61 100.078 217.478 112.871 217.806 134.301C217.806 134.301 217.431 75.5193 178.676 89.853" fill="#534C75"/>
<path d="M178.722 97.7903C178.722 97.7903 183.637 92.1409 191.969 91.8608C200.3 91.5806 207.04 95.2224 207.04 95.2224L204.606 92.5144L196.977 88.3591L190.331 87.2385L181.39 88.9193L178.816 91.1137L176.85 90.3667L175.914 93.2615L177.459 97.2767L178.722 97.7903Z" fill="white"/>
<path d="M210.176 97.4636C208.351 94.0086 205.402 91.0204 201.845 89.1529C200.066 88.2658 198.147 87.6121 196.181 87.2386C194.216 86.9118 192.25 86.7717 190.284 86.8651C188.833 86.9584 187.382 87.0985 185.978 87.3787C183.59 87.8455 181.25 88.5926 179.05 89.6197L173.34 89.8065L173.387 91.534L174.931 91.4873C175.118 96.7165 173.808 97.7437 173.808 97.7437L173.855 98.6308L176.476 98.5374L179.097 98.444L179.05 97.5569C179.05 97.5569 177.693 96.6232 177.506 91.3939L179.05 91.3473C179.05 91.3473 191.033 87.0518 198.802 89.7131C199.13 89.8065 199.411 89.9466 199.739 90.0866C199.785 90.0866 199.832 90.1333 199.879 90.1333C200.3 90.3201 200.675 90.5068 201.049 90.6936C202.687 91.534 204.185 92.6079 205.496 93.8685C205.823 94.1953 206.198 94.4754 206.479 94.849L207.368 95.8761C207.649 96.2496 207.93 96.6232 208.211 96.9967L208.632 97.5569L209.006 98.1639C211.019 101.339 212.376 104.887 213.5 108.576C213.078 104.7 212.049 100.919 210.176 97.4636Z" fill="#4A4267"/>
<path d="M146.664 173.894C146.664 173.894 175.871 174.781 178.539 206.25L172.314 216.288C172.314 216.288 164.778 208.538 166.369 197.052C168.008 185.613 156.681 175.108 146.664 173.894Z" fill="#534C75"/>
<path d="M170.16 220.303C170.16 220.303 156.399 236.271 135.852 232.209C135.852 232.209 129.112 234.03 124.478 239.259C119.844 244.442 151.391 247.617 159.348 239.259C167.352 230.902 179.99 224.599 170.16 220.303Z" fill="#534C75"/>
<path d="M131.358 54.4159C131.358 54.4159 127.801 51.9414 125.133 46.7122C125.133 46.7122 133.558 50.0271 141 47.5059C141 47.5526 134.167 51.5679 131.358 54.4159Z" fill="#534C75"/>
<path d="M146.801 33.8726C146.801 33.8726 152.933 40.9693 144.555 46.5721L146.801 33.8726Z" fill="#534C75"/>
<path d="M233.812 194.391C233.812 194.391 222.859 211.152 195.431 210.219C167.956 209.285 234.467 204.569 228.897 189.115C223.327 173.661 204.745 200.647 192.014 203.169C179.283 205.69 233.765 156.292 233.812 194.391Z" fill="#534C75"/>
<path d="M205.637 201.254C205.637 201.254 216.168 186.08 222.581 189.208C228.993 192.336 215.606 200.647 205.637 201.254Z" fill="#534C75"/>
<path d="M251.646 271.382C251.646 271.382 269.994 289.591 270.088 297.341C273.13 302.71 275.798 308.406 277.296 313.822C277.296 313.822 287.406 328.483 271.539 336.934C270.322 337.681 269.011 338.241 267.654 338.661C260.305 340.902 251.974 338.661 251.974 338.661C251.974 338.661 240.038 343.47 224.077 347.625C212.048 353.882 189.675 353.415 189.675 353.415C184.479 353.695 179.378 353.602 174.557 353.041C163.744 351.781 155.273 349.96 148.766 348.139C143.524 348.186 135.614 343.657 132.337 341.649C131.308 341.042 130.84 340.715 130.84 340.715C119.045 321.059 113.802 299.769 111.696 288.937C110.994 286.042 110.573 283.568 110.526 281.7C110.526 281.7 108.373 280.159 106.875 275.677C105.096 271.195 103.926 264.191 106.735 254.573C107.952 249.344 110.479 245.282 113.428 242.154C118.904 235.991 125.644 233.703 129.342 232.723C130.465 232.396 131.167 232.256 131.167 232.256C131.167 232.256 118.577 209.892 119.466 198.966C119.466 197.799 119.7 196.492 120.074 195.185C122.087 186.967 128.406 180.524 136.503 176.976C137.346 176.602 138.188 176.275 139.031 175.995C142.027 174.361 145.022 174.034 147.269 174.081C146.988 174.034 146.754 173.988 146.473 173.988C146.473 173.988 147.222 173.988 148.439 174.174C149.89 174.314 150.826 174.548 150.826 174.548C159.064 176.182 176.335 182.485 178.395 206.343C178.395 206.343 167.068 237.905 135.754 232.256C135.754 232.256 115.066 236.038 123.21 254.807C131.355 273.576 187.803 254.527 211.159 239.446C211.253 239.446 222.861 243.415 251.646 271.382Z" fill="black" fill-opacity="0.5"/>
</svg>
